<svg width="8" height="8" fill="none" xmlns="http://www.w3.org/2000/svg">
<path d="M3.36033 3.6213C3.37699 3.5113 3.41366 3.41464 3.46033 3.3313C3.50699 3.24797 3.57366 3.17797 3.65699 3.12464C3.73699 3.07464 3.83699 3.0513 3.96033 3.04797C4.03699 3.0513 4.10699 3.06464 4.17033 3.0913C4.23699 3.1213 4.29699 3.1613 4.34366 3.2113C4.39033 3.2613 4.42699 3.3213 4.45699 3.38797C4.48699 3.45464 4.50033 3.52797 4.50366 3.6013H5.10033C5.09366 3.44464 5.06366 3.3013 5.00699 3.1713C4.95033 3.0413 4.87366 2.92797 4.77366 2.83464C4.67366 2.7413 4.55366 2.66797 4.41366 2.61464C4.27366 2.5613 4.12033 2.53797 3.95033 2.53797C3.73366 2.53797 3.54366 2.57464 3.38366 2.6513C3.22366 2.72797 3.09033 2.82797 2.98366 2.95797C2.87699 3.08797 2.79699 3.23797 2.74699 3.4113C2.69699 3.58464 2.66699 3.76464 2.66699 3.95797V4.04797C2.66699 4.2413 2.69366 4.4213 2.74366 4.59464C2.79366 4.76797 2.87366 4.91797 2.98033 5.04464C3.08699 5.1713 3.22033 5.27464 3.38033 5.34797C3.54033 5.4213 3.73033 5.4613 3.94699 5.4613C4.10366 5.4613 4.25033 5.43464 4.38699 5.38464C4.52366 5.33464 4.64366 5.26464 4.74699 5.17464C4.85033 5.08464 4.93366 4.9813 4.99366 4.8613C5.05366 4.7413 5.09033 4.61464 5.09366 4.47797H4.49699C4.49366 4.54797 4.47699 4.6113 4.44699 4.6713C4.41699 4.7313 4.37699 4.7813 4.32699 4.82464C4.27699 4.86797 4.22033 4.9013 4.15366 4.92464C4.09033 4.94797 4.02366 4.95464 3.95366 4.95797C3.83366 4.95464 3.73366 4.9313 3.65699 4.8813C3.57366 4.82797 3.50699 4.75797 3.46033 4.67464C3.41366 4.5913 3.37699 4.4913 3.36033 4.3813C3.34366 4.2713 3.33366 4.15797 3.33366 4.04797V3.95797C3.33366 3.8413 3.34366 3.7313 3.36033 3.6213ZM4.00033 0.667969C2.16033 0.667969 0.666992 2.1613 0.666992 4.0013C0.666992 5.8413 2.16033 7.33464 4.00033 7.33464C5.84033 7.33464 7.33366 5.8413 7.33366 4.0013C7.33366 2.1613 5.84033 0.667969 4.00033 0.667969ZM4.00033 6.66797C2.53033 6.66797 1.33366 5.4713 1.33366 4.0013C1.33366 2.5313 2.53033 1.33464 4.00033 1.33464C5.47033 1.33464 6.66699 2.5313 6.66699 4.0013C6.66699 5.4713 5.47033 6.66797 4.00033 6.66797Z" fill="#B8B8B8"/>
</svg>
