<svg width="12" height="12" viewBox="0 0 12 12" fill="none" xmlns="http://www.w3.org/2000/svg">
<path d="M9.13243 2.30351C8.02852 1.19961 6.23087 1.19961 5.12813 2.30351L2.06954 5.35976C2.04962 5.37968 2.03907 5.40664 2.03907 5.43476C2.03907 5.46289 2.04962 5.48984 2.06954 5.50976L2.50196 5.94218C2.52173 5.96186 2.54849 5.97291 2.57638 5.97291C2.60427 5.97291 2.63103 5.96186 2.65079 5.94218L5.70938 2.88594C6.08907 2.50625 6.59415 2.29766 7.13087 2.29766C7.66759 2.29766 8.17266 2.50625 8.55118 2.88594C8.93087 3.26562 9.13946 3.7707 9.13946 4.30625C9.13946 4.84297 8.93087 5.34687 8.55118 5.72656L5.43399 8.84257L4.92892 9.34765C4.45665 9.81991 3.68907 9.81991 3.21681 9.34765C2.98829 9.11913 2.8629 8.81562 2.8629 8.49218C2.8629 8.16874 2.98829 7.86523 3.21681 7.63671L6.30938 4.54531C6.3879 4.46797 6.49102 4.42461 6.60118 4.42461H6.60235C6.71251 4.42461 6.81446 4.46797 6.8918 4.54531C6.97032 4.62383 7.01251 4.72695 7.01251 4.83711C7.01251 4.94609 6.96915 5.04922 6.8918 5.12656L4.36407 7.65195C4.34415 7.67187 4.3336 7.69882 4.3336 7.72695C4.3336 7.75507 4.34415 7.78203 4.36407 7.80195L4.79649 8.23437C4.81626 8.25405 4.84302 8.2651 4.87091 8.2651C4.8988 8.2651 4.92556 8.25405 4.94532 8.23437L7.47188 5.70781C7.70508 5.47461 7.83282 5.16523 7.83282 4.83593C7.83282 4.50664 7.70391 4.19609 7.47188 3.96406C6.99024 3.48242 6.20743 3.48359 5.72579 3.96406L5.42579 4.26523L2.63439 7.05546C2.44493 7.24381 2.29475 7.46789 2.19256 7.71472C2.09037 7.96155 2.0382 8.22621 2.03907 8.49335C2.03907 9.03593 2.25118 9.5457 2.63439 9.9289C3.03165 10.325 3.55196 10.523 4.07228 10.523C4.59259 10.523 5.1129 10.325 5.50899 9.9289L9.13243 6.30781C9.66563 5.77343 9.96094 5.06211 9.96094 4.30625C9.96212 3.54922 9.6668 2.83789 9.13243 2.30351Z" fill="#2D2B6F"/>
</svg>
