<svg width="14" height="13" viewBox="0 0 14 13" fill="none" xmlns="http://www.w3.org/2000/svg">
<path d="M8.90909 0L3.18182 0C2.65364 0 2.20182 0.325 2.01091 0.793L0.0890909 5.3755C0.0318182 5.525 0 5.681 0 5.85L0 7.15C0 7.865 0.572727 8.45 1.27273 8.45H5.28818L4.68364 11.4205L4.66455 11.6285C4.66455 11.895 4.77273 12.142 4.94455 12.3175L5.61909 13L9.81273 8.7165C10.0418 8.4825 10.1818 8.1575 10.1818 7.8L10.1818 1.3C10.1818 0.585 9.60909 0 8.90909 0ZM8.90909 7.8L6.14727 10.621L7 7.15L1.27273 7.15L1.27273 5.85L3.18182 1.3L8.90909 1.3L8.90909 7.8ZM11.4545 0L14 0L14 7.8H11.4545L11.4545 0Z" fill="#AC2E2E"/>
</svg>
