<svg width="30" height="28" viewBox="0 0 19 18" fill="none" xmlns="http://www.w3.org/2000/svg">
<path d="M17.0811 1H1.91892C1.67521 1 1.44148 1.09112 1.26915 1.2533C1.09681 1.41549 1 1.63546 1 1.86483V16.1345C1 16.3638 1.09681 16.5838 1.26915 16.746C1.44148 16.9082 1.67521 16.9993 1.91892 16.9993H17.0811C17.3248 16.9993 17.5585 16.9082 17.7309 16.746C17.9032 16.5838 18 16.3638 18 16.1345V1.86483C18 1.63546 17.9032 1.41549 17.7309 1.2533C17.5585 1.09112 17.3248 1 17.0811 1V1Z" stroke="#2D2B6F" stroke-linejoin="round"/>
<path d="M5.54476 16.9987L8.03549 12.0895L8.66816 13.423L10.2648 9.26018L11.0665 10.2565L12.2216 7.85094L12.7399 8.4693L18.0007 2.57031M5.03108 4.71033H4.24219M5.03108 4.71033V6.8058H6.50089C6.79615 6.8058 7.07931 6.69541 7.28809 6.49893C7.49687 6.30244 7.61416 6.03594 7.61416 5.75806C7.61416 5.48019 7.49687 5.21369 7.28809 5.0172C7.07931 4.82071 6.79615 4.71033 6.50089 4.71033H5.03108Z" stroke="#2D2B6F" stroke-linejoin="round"/>
<path d="M5.03108 9.03744H4.24219M5.02924 9.05128V9.73838M6.30608 9.05128V9.73838M5.02924 3.95312V4.64066M6.30608 3.95312V4.64066M5.03108 6.80532V9.03874H6.59784C6.75562 9.04166 6.91244 9.01494 7.05912 8.96013C7.2058 8.90532 7.33939 8.82353 7.45207 8.71955C7.56476 8.61556 7.65427 8.49147 7.71538 8.35453C7.77649 8.21759 7.80797 8.07056 7.80797 7.92203C7.80797 7.77351 7.77649 7.62647 7.71538 7.48953C7.65427 7.35259 7.56476 7.2285 7.45207 7.12452C7.33939 7.02053 7.2058 6.93874 7.05912 6.88393C6.91244 6.82913 6.75562 6.8024 6.59784 6.80532H5.03108Z" stroke="#2D2B6F" stroke-linejoin="round"/>
</svg>