<svg width="15" height="14" viewBox="0 0 15 14" fill="none" xmlns="http://www.w3.org/2000/svg">
<path d="M3.20313 1.75C2.65084 1.75 2.20312 2.19772 2.20312 2.75V11.8097C2.20312 12.0529 2.40027 12.25 2.64347 12.25C2.88666 12.25 3.08381 12.0529 3.08381 11.8097V8.75H10.8906C11.4429 8.75 11.8906 8.30228 11.8906 7.75V2.75C11.8906 2.19772 11.4429 1.75 10.8906 1.75H3.20313ZM3.08381 2.625H4.40483V3.9375H5.72585V2.625H7.04687V3.9375H8.3679V2.625H9.68892V3.9375H11.0099V5.25H9.68892V6.5625H11.0099V7.875H9.68892V6.5625H8.3679V7.875H7.04687V6.5625H5.72585V7.875H4.40483V6.5625H3.08381V5.25H4.40483V3.9375H3.08381V2.625ZM4.40483 5.25V6.5625H5.72585V5.25H4.40483ZM5.72585 5.25H7.04687V3.9375H5.72585V5.25ZM7.04687 5.25V6.5625H8.3679V5.25H7.04687ZM8.3679 5.25H9.68892V3.9375H8.3679V5.25Z" fill="#808080"/>
</svg>
