<svg width="12" height="12" viewBox="0 0 12 12" fill="none" xmlns="http://www.w3.org/2000/svg">
<path d="M6 2C5.46957 2 4.96086 2.21071 4.58579 2.58579C4.21071 2.96086 4 3.46957 4 4C4 4.53043 4.21071 5.03914 4.58579 5.41421C4.96086 5.78929 5.46957 6 6 6C6.53043 6 7.03914 5.78929 7.41421 5.41421C7.78929 5.03914 8 4.53043 8 4C8 3.46957 7.78929 2.96086 7.41421 2.58579C7.03914 2.21071 6.53043 2 6 2ZM3 4C3 3.20435 3.31607 2.44129 3.87868 1.87868C4.44129 1.31607 5.20435 1 6 1C6.79565 1 7.55871 1.31607 8.12132 1.87868C8.68393 2.44129 9 3.20435 9 4C9 4.79565 8.68393 5.55871 8.12132 6.12132C7.55871 6.68393 6.79565 7 6 7C5.20435 7 4.44129 6.68393 3.87868 6.12132C3.31607 5.55871 3 4.79565 3 4ZM4 9C3.60218 9 3.22064 9.15804 2.93934 9.43934C2.65804 9.72064 2.5 10.1022 2.5 10.5C2.5 10.6326 2.44732 10.7598 2.35355 10.8536C2.25979 10.9473 2.13261 11 2 11C1.86739 11 1.74021 10.9473 1.64645 10.8536C1.55268 10.7598 1.5 10.6326 1.5 10.5C1.5 9.83696 1.76339 9.20107 2.23223 8.73223C2.70107 8.26339 3.33696 8 4 8H8C8.66304 8 9.29893 8.26339 9.76777 8.73223C10.2366 9.20107 10.5 9.83696 10.5 10.5C10.5 10.6326 10.4473 10.7598 10.3536 10.8536C10.2598 10.9473 10.1326 11 10 11C9.86739 11 9.74021 10.9473 9.64645 10.8536C9.55268 10.7598 9.5 10.6326 9.5 10.5C9.5 10.1022 9.34196 9.72064 9.06066 9.43934C8.77936 9.15804 8.39782 9 8 9H4Z" fill="#2D2B6F"/>
</svg>
