<svg width="38" height="38" viewBox="0 0 38 38" fill="none" xmlns="http://www.w3.org/2000/svg">
<path d="M16.8672 0.135654C8.10944 1.1156 1.06517 8.3672 0.113245 17.1867C-0.838684 26.3982 4.30173 34.6297 12.1075 37.7656C12.6787 37.9616 13.2499 37.5696 13.2499 36.7856V33.6498C13.2499 33.6498 12.4883 33.8458 11.5364 33.8458C8.87099 33.8458 7.72867 31.4939 7.53829 30.122C7.3479 29.338 6.96713 28.7501 6.39597 28.1621C5.82482 27.9661 5.63443 27.9661 5.63443 27.7701C5.63443 27.3781 6.20559 27.3781 6.39597 27.3781C7.53829 27.3781 8.49022 28.7501 8.87099 29.338C9.82292 30.906 10.9652 31.2979 11.5364 31.2979C12.2979 31.2979 12.8691 31.1019 13.2499 30.9059C13.4402 29.534 14.0114 28.1621 15.1537 27.3781C10.7748 26.3982 7.53829 23.8503 7.53829 19.5386C7.53829 17.3827 8.49022 15.2268 9.82292 13.6589C9.63253 13.2669 9.44214 12.287 9.44214 10.9151C9.44214 10.1311 9.44214 8.95517 10.0133 7.77923C10.0133 7.77923 12.6787 7.77923 15.3441 10.3271C16.296 9.93511 17.6287 9.73912 18.9614 9.73912C20.2941 9.73912 21.6268 9.93511 22.7691 10.3271C25.2442 7.77923 28.0999 7.77923 28.0999 7.77923C28.4807 8.95517 28.4807 10.1311 28.4807 10.9151C28.4807 12.483 28.2903 13.2669 28.0999 13.6589C29.4326 15.2268 30.3846 17.1867 30.3846 19.5386C30.3846 23.8503 27.148 26.3982 22.7691 27.3781C23.9115 28.3581 24.673 30.122 24.673 31.8859V36.9816C24.673 37.5696 25.2442 38.1575 26.0057 37.9616C33.05 35.0217 38 27.9661 38 19.7346C38 7.97522 28.2903 -1.23627 16.8672 0.135654Z" fill="black"/>
</svg>
