<svg width="30" height="28" viewBox="0 0 30 28" fill="none" xmlns="http://www.w3.org/2000/svg">
<path d="M13.9041 7.71948C14.3615 7.71948 14.8001 7.55923 15.1236 7.27398C15.447 6.98873 15.6287 6.60185 15.6287 6.19845C15.6287 5.79504 15.447 5.40816 15.1236 5.12291C14.8001 4.83766 14.3615 4.67741 13.9041 4.67741C13.4467 4.67741 13.0081 4.83766 12.6847 5.12291C12.3612 5.40816 12.1795 5.79504 12.1795 6.19845C12.1795 6.60185 12.3612 6.98873 12.6847 7.27398C13.0081 7.55923 13.4467 7.71948 13.9041 7.71948ZM15.5965 0.530041C15.1181 0.187168 14.5205 0 13.9041 0C13.2877 0 12.6901 0.187168 12.2117 0.530041L0.710068 8.77407C-0.687976 9.77998 0.116819 11.7756 1.91956 11.7756H2.40704V20.2934C1.04118 20.9079 0.107621 22.1592 0.107621 23.6052V24.9579C0.107621 25.2269 0.228751 25.4848 0.444363 25.6749C0.659975 25.8651 0.952407 25.9719 1.25733 25.9719H7.78077C7.43482 25.3306 7.2007 24.6469 7.08634 23.9439H2.40704V23.6052C2.40704 22.6723 3.26472 21.9158 4.32245 21.9158H7.08634C7.32931 20.4227 8.10674 19.0372 9.30528 17.9611V11.7756H12.7544V16.1258C13.5007 15.9302 14.2752 15.8311 15.0538 15.8317V11.7756H18.5029V15.8317H20.8023V11.7756H23.1018V15.8317H24.2515C24.6424 15.8317 25.0264 15.856 25.4012 15.9027V11.7776H25.8886C27.6914 11.7776 28.4962 9.77998 27.0958 8.7761L15.5988 0.530041H15.5965ZM13.665 2.10381C13.7333 2.05508 13.8185 2.02849 13.9064 2.02849C13.9943 2.02849 14.0795 2.05508 14.1478 2.10381L24.8056 9.74754H3.00028L13.665 2.10178V2.10381ZM7.00586 19.8878H4.70645V11.7756H7.00586V19.8878ZM15.0538 17.8597C13.5292 17.8597 12.067 18.3939 10.989 19.3447C9.91092 20.2956 9.30528 21.5852 9.30528 22.9299C9.30528 24.2746 9.91092 25.5642 10.989 26.515C12.067 27.4658 13.5292 28 15.0538 28H16.2035C16.5084 28 16.8009 27.8932 17.0165 27.703C17.2321 27.5128 17.3532 27.2549 17.3532 26.986C17.3532 26.717 17.2321 26.4591 17.0165 26.2689C16.8009 26.0788 16.5084 25.9719 16.2035 25.9719H15.0538C14.139 25.9719 13.2618 25.6514 12.6149 25.0809C11.9681 24.5104 11.6047 23.7367 11.6047 22.9299C11.6047 22.1231 11.9681 21.3493 12.6149 20.7788C13.2618 20.2083 14.139 19.8878 15.0538 19.8878H16.2035C16.5084 19.8878 16.8009 19.781 17.0165 19.5908C17.2321 19.4006 17.3532 19.1427 17.3532 18.8738C17.3532 18.6048 17.2321 18.3469 17.0165 18.1567C16.8009 17.9666 16.5084 17.8597 16.2035 17.8597H15.0538ZM23.1018 17.8597C22.7968 17.8597 22.5044 17.9666 22.2888 18.1567C22.0732 18.3469 21.9521 18.6048 21.9521 18.8738C21.9521 19.1427 22.0732 19.4006 22.2888 19.5908C22.5044 19.781 22.7968 19.8878 23.1018 19.8878H24.2515C24.7044 19.8878 25.1529 19.9665 25.5714 20.1194C25.9899 20.2722 26.3701 20.4963 26.6904 20.7788C27.0106 21.0613 27.2647 21.3966 27.438 21.7657C27.6114 22.1348 27.7006 22.5304 27.7006 22.9299C27.7006 23.3294 27.6114 23.7249 27.438 24.094C27.2647 24.4631 27.0106 24.7985 26.6904 25.0809C26.3701 25.3634 25.9899 25.5875 25.5714 25.7404C25.1529 25.8933 24.7044 25.9719 24.2515 25.9719H23.1018C22.7968 25.9719 22.5044 26.0788 22.2888 26.2689C22.0732 26.4591 21.9521 26.717 21.9521 26.986C21.9521 27.2549 22.0732 27.5128 22.2888 27.703C22.5044 27.8932 22.7968 28 23.1018 28H24.2515C25.7761 28 27.2382 27.4658 28.3163 26.515C29.3944 25.5642 30 24.2746 30 22.9299C30 21.5852 29.3944 20.2956 28.3163 19.3447C27.2382 18.3939 25.7761 17.8597 24.2515 17.8597H23.1018ZM13.9041 22.9299C13.9041 22.6609 14.0252 22.403 14.2408 22.2128C14.4565 22.0227 14.7489 21.9158 15.0538 21.9158H24.2515C24.5564 21.9158 24.8488 22.0227 25.0644 22.2128C25.28 22.403 25.4012 22.6609 25.4012 22.9299C25.4012 23.1988 25.28 23.4567 25.0644 23.6469C24.8488 23.8371 24.5564 23.9439 24.2515 23.9439H15.0538C14.7489 23.9439 14.4565 23.8371 14.2408 23.6469C14.0252 23.4567 13.9041 23.1988 13.9041 22.9299Z" fill="#2D2B6F"/>
</svg>
