<svg width="15" height="14" viewBox="0 0 15 14" fill="none" xmlns="http://www.w3.org/2000/svg">
<path d="M3.20215 1.75C2.64986 1.75 2.20215 2.19772 2.20215 2.75V11.8097C2.20215 12.0529 2.3993 12.25 2.64249 12.25C2.88568 12.25 3.08283 12.0529 3.08283 11.8097V8.75H10.8896C11.4419 8.75 11.8896 8.30228 11.8896 7.75V2.75C11.8896 2.19772 11.4419 1.75 10.8896 1.75H3.20215ZM3.08283 2.625H4.40385V3.9375H5.72488V2.625H7.0459V3.9375H8.36692V2.625H9.68794V3.9375H11.009V5.25H9.68794V6.5625H11.009V7.875H9.68794V6.5625H8.36692V7.875H7.0459V6.5625H5.72488V7.875H4.40385V6.5625H3.08283V5.25H4.40385V3.9375H3.08283V2.625ZM4.40385 5.25V6.5625H5.72488V5.25H4.40385ZM5.72488 5.25H7.0459V3.9375H5.72488V5.25ZM7.0459 5.25V6.5625H8.36692V5.25H7.0459ZM8.36692 5.25H9.68794V3.9375H8.36692V5.25Z" fill="#808080"/>
</svg>
