<svg width="40" height="40" viewBox="0 0 40 40" fill="none" xmlns="http://www.w3.org/2000/svg">
<circle cx="20" cy="20" r="20" fill="#ECECEC"/>
<path d="M20 20.875C21.9017 20.875 23.5817 21.3183 24.9467 21.925C26.2067 22.485 27 23.745 27 25.1217V26C27 26.5523 26.5523 27 26 27H14C13.4477 27 13 26.5523 13 26V25.1217C13 23.745 13.7933 22.485 15.0533 21.925C16.4183 21.33 18.0983 20.875 20 20.875Z" fill="#C0C0C0"/>
<path d="M16.5 16.5C16.5 14.5633 18.0633 13 20 13C21.9367 13 23.5 14.5633 23.5 16.5C23.5 18.4367 21.9367 20 20 20C18.0633 20 16.5 18.4367 16.5 16.5Z" fill="#C0C0C0"/>
</svg>
