<?xml version="1.0" encoding="utf-8"?>
<!-- Generator: Adobe Illustrator 26.2.1, SVG Export Plug-In . SVG Version: 6.00 Build 0)  -->
<svg version="1.1" id="Layer_1" xmlns="http://www.w3.org/2000/svg" xmlns:xlink="http://www.w3.org/1999/xlink" x="0px" y="0px"
	 viewBox="0 0 1280 1024" style="enable-background:new 0 0 1280 1024;" xml:space="preserve">
<style type="text/css">
	.st0{fill-rule:evenodd;clip-rule:evenodd;fill:#6E46BE;}
</style>
<g>
	<path class="st0" d="M639.65,453.32c-32.59,0-59,26.42-59,59c0,32.58,26.41,59,59,59c32.58,0,59-26.42,59-59
		C698.65,479.74,672.23,453.32,639.65,453.32z M640.33,546.83c-19.02,0-34.42-15.44-34.42-34.51c0-19.07,15.4-34.51,34.42-34.51
		c9.29,0,17.06,3.43,23.02,8.99l-9.71,9.73v-0.02c-3.61-3.45-8.2-5.22-13.31-5.22c-11.36,0-20.59,9.62-20.59,21.01
		c0,11.38,9.23,21.03,20.59,21.03c10.31,0,17.32-5.91,18.76-14.02h-18.76v-13.46h32.38c0.43,2.31,0.66,4.72,0.66,7.25
		C673.37,532.82,660.21,546.83,640.33,546.83z"/>
</g>
</svg>
