<svg width="19" height="18" viewBox="0 0 19 18" fill="none" xmlns="http://www.w3.org/2000/svg">
<path d="M16.3621 9.48996V8.50359L17.6334 7.42053C17.8677 7.21942 18.0215 6.94413 18.0676 6.6433C18.1136 6.34247 18.0489 6.03549 17.885 5.77659L16.3224 3.19786C16.2062 3.00205 16.0393 2.8394 15.8382 2.72625C15.6372 2.6131 15.4091 2.55341 15.1769 2.55318C15.0329 2.5521 14.8898 2.57388 14.7531 2.61765L13.1441 3.14629C12.8663 2.96655 12.5765 2.80503 12.2767 2.66277L11.939 1.03818C11.8785 0.741367 11.7126 0.474749 11.4705 0.284995C11.2284 0.0952399 10.9255 -0.00556115 10.6147 0.000236876H7.51595C7.20521 -0.00556115 6.90227 0.0952399 6.66017 0.284995C6.41806 0.474749 6.25222 0.741367 6.19167 1.03818L5.85398 2.66277C5.55201 2.80499 5.26003 2.96652 4.97997 3.14629L3.40408 2.59186C3.26589 2.5568 3.12279 2.54374 2.98031 2.55318C2.74808 2.55341 2.52 2.6131 2.31895 2.72625C2.11789 2.8394 1.95093 3.00205 1.83482 3.19786L0.272175 5.77659C0.117623 6.0351 0.0601928 6.33789 0.109719 6.63309C0.159245 6.9283 0.312647 7.19755 0.543651 7.39474L1.79509 8.51004V9.49641L0.543651 10.5795C0.306122 10.778 0.148524 11.0521 0.0988265 11.3531C0.0491286 11.654 0.110544 11.9624 0.272175 12.2234L1.83482 14.8021C1.95093 14.998 2.11789 15.1606 2.31895 15.2737C2.52 15.3869 2.74808 15.4466 2.98031 15.4468C3.12423 15.4479 3.26736 15.4261 3.40408 15.3824L5.01307 14.8537C5.29086 15.0334 5.58064 15.195 5.88047 15.3372L6.21816 16.9618C6.27871 17.2586 6.44455 17.5253 6.68665 17.715C6.92875 17.9048 7.23169 18.0056 7.54243 17.9998H10.6677C10.9785 18.0056 11.2814 17.9048 11.5235 17.715C11.7656 17.5253 11.9314 17.2586 11.992 16.9618L12.3297 15.3372C12.6317 15.195 12.9236 15.0335 13.2037 14.8537L14.8061 15.3824C14.9428 15.4261 15.0859 15.4479 15.2298 15.4468C15.4621 15.4466 15.6901 15.3869 15.8912 15.2737C16.0923 15.1606 16.2592 14.998 16.3753 14.8021L17.885 12.2234C18.0396 11.9649 18.097 11.6621 18.0475 11.3669C17.9979 11.0717 17.8445 10.8024 17.6135 10.6053L16.3621 9.48996ZM15.1769 14.1575L12.9057 13.4096C12.3741 13.8481 11.7665 14.1908 11.1113 14.4218L10.6412 16.7362H7.51595L7.04583 14.4476C6.39589 14.21 5.79156 13.8679 5.25806 13.4354L2.98031 14.1575L1.41767 11.5787L3.21868 10.0315C3.09625 9.36415 3.09625 8.68097 3.21868 8.01364L1.41767 6.42127L2.98031 3.84254L5.25144 4.59037C5.78309 4.15192 6.39072 3.80918 7.04583 3.57822L7.51595 1.26381H10.6412L11.1113 3.55244C11.7613 3.78995 12.3656 4.1321 12.8991 4.56459L15.1769 3.84254L16.7395 6.42127L14.9385 7.96851C15.0609 8.63585 15.0609 9.31903 14.9385 9.98636L16.7395 11.5787L15.1769 14.1575Z" fill="#808080"/>
<path d="M9.07829 12.869C8.29254 12.869 7.52444 12.6421 6.87111 12.2171C6.21778 11.7921 5.70858 11.188 5.40788 10.4812C5.10719 9.77436 5.02852 8.99662 5.18181 8.24628C5.3351 7.49594 5.71347 6.80671 6.26908 6.26575C6.82469 5.72479 7.53258 5.35639 8.30323 5.20714C9.07388 5.05789 9.87268 5.13449 10.5986 5.42726C11.3246 5.72002 11.945 6.2158 12.3816 6.85191C12.8181 7.48801 13.0511 8.23587 13.0511 9.00091C13.0564 9.51031 12.9573 10.0156 12.7595 10.4873C12.5617 10.9589 12.2693 11.3874 11.8993 11.7476C11.5294 12.1078 11.0893 12.3925 10.6049 12.5851C10.1205 12.7777 9.60148 12.8742 9.07829 12.869ZM9.07829 6.42218C8.72825 6.41424 8.38019 6.47551 8.05517 6.6023C7.73014 6.72908 7.43491 6.91874 7.18733 7.15979C6.93974 7.40085 6.74495 7.6883 6.61474 8.00475C6.48452 8.32121 6.42159 8.66009 6.42974 9.00091C6.42159 9.34172 6.48452 9.6806 6.61474 9.99706C6.74495 10.3135 6.93974 10.601 7.18733 10.842C7.43491 11.0831 7.73014 11.2727 8.05517 11.3995C8.38019 11.5263 8.72825 11.5876 9.07829 11.5796C9.42833 11.5876 9.77639 11.5263 10.1014 11.3995C10.4264 11.2727 10.7217 11.0831 10.9692 10.842C11.2168 10.601 11.4116 10.3135 11.5418 9.99706C11.6721 9.6806 11.735 9.34172 11.7268 9.00091C11.735 8.66009 11.6721 8.32121 11.5418 8.00475C11.4116 7.6883 11.2168 7.40085 10.9692 7.15979C10.7217 6.91874 10.4264 6.72908 10.1014 6.6023C9.77639 6.47551 9.42833 6.41424 9.07829 6.42218Z" fill="#808080"/>
</svg>
