<svg width="16" height="18" viewBox="0 0 16 18" fill="none" xmlns="http://www.w3.org/2000/svg">
<path d="M2.54431 3.0571L2.54421 3.05755L4.00121 3.69565C4.11064 3.74523 4.19514 3.83086 4.2418 3.93378L4.24178 3.93379L4.24381 3.93817C4.57304 4.65126 5.10324 5.25424 5.76942 5.67634C6.43549 6.09837 7.20992 6.32219 8.00022 6.32219C8.79053 6.32219 9.56496 6.09837 10.231 5.67634C10.8972 5.25424 11.4274 4.65126 11.7566 3.93817L11.1211 3.64475M2.54431 3.0571L4.28521 3.05583C4.54968 3.17424 4.76099 3.3837 4.87934 3.64475C5.15156 4.23435 5.59063 4.73437 6.14407 5.08504C6.69751 5.43571 7.34191 5.62219 8.00022 5.62219C8.65854 5.62219 9.30294 5.43571 9.85638 5.08504C10.4098 4.73437 10.8489 4.23435 11.1211 3.64475M2.54431 3.0571C2.22669 2.91902 1.86569 2.90949 1.54067 3.03092C1.2155 3.1524 0.955722 3.39379 0.814364 3.69888C0.524635 4.32791 0.804433 5.0729 1.46136 5.36017L1.46187 5.36039L4.51296 6.69752C4.51309 6.69758 4.51322 6.69764 4.51335 6.69769L2.54431 3.0571ZM11.1211 3.64475C11.2342 3.40087 11.4342 3.17946 11.7152 3.05583M11.1211 3.64475L11.7561 3.93927C11.8062 3.83143 11.8896 3.74401 11.9967 3.69677L11.9964 3.69688L11.7152 3.05583M11.7152 3.05583L11.9971 3.69659L13.4535 3.05775C13.4536 3.0577 13.4537 3.05765 13.4538 3.0576C13.7719 2.91868 14.1337 2.90881 14.4594 3.03044C14.7849 3.152 15.0449 3.39372 15.1862 3.69922L15.1863 3.69926C15.2557 3.8494 15.294 4.01113 15.2994 4.17519C15.3047 4.33924 15.2769 4.50293 15.2174 4.65692C15.1579 4.81093 15.0677 4.95257 14.9513 5.07337C14.835 5.19419 14.6948 5.29177 14.5386 5.35989L14.5374 5.36039L11.4863 6.69752L11.7667 7.33895M11.7152 3.05583L13.1731 2.41635C13.658 2.20442 14.2083 2.18944 14.7043 2.37467C15.2003 2.5599 15.6019 2.93034 15.8216 3.40536C15.9303 3.64043 15.9906 3.89436 15.999 4.15249C16.0074 4.41061 15.9636 4.66781 15.8704 4.90922C15.7771 5.15062 15.6361 5.37145 15.4555 5.55894C15.275 5.74643 15.0584 5.89686 14.8184 6.00153L11.7667 7.33895M11.7667 7.33895C11.6656 7.38309 11.5798 7.45511 11.5196 7.54628C11.4594 7.63744 11.4273 7.74384 11.4273 7.85256M11.7667 7.33895L11.4857 6.69781M11.4273 7.85256L11.4857 6.69781M11.4273 7.85256V9.96097M11.4273 7.85256L10.7273 7.85265M11.4273 7.85256H10.7273M11.4273 7.85256H10.7273M11.4857 6.69781C11.2623 6.79557 11.0708 6.95568 10.9355 7.16041C10.8001 7.36545 10.7273 7.60591 10.7273 7.85256M11.4857 6.69781L10.7273 7.85256M10.7273 7.85265L10.7273 9.96097L10.7273 9.96404C10.728 10.1268 10.7604 10.2876 10.8224 10.4377L10.822 10.437L11.4696 10.1711M10.7273 7.85265L8.91053 12.5994M10.7273 7.85265L11.4273 9.96097M11.4696 10.1711L10.8227 10.4387L12.9186 15.5439L12.9186 15.5439L12.9214 15.5506C12.9864 15.7044 13.0196 15.8688 13.0194 16.0347C13.0192 16.2005 12.9856 16.3649 12.9203 16.5185C12.8549 16.6721 12.7589 16.8123 12.6372 16.9305C12.5155 17.0487 12.3705 17.1427 12.2104 17.2063C12.0503 17.2699 11.8785 17.3018 11.7052 17.2999C11.5318 17.298 11.3609 17.2623 11.2023 17.1951C11.0438 17.128 10.9011 17.0309 10.7822 16.9101C10.6633 16.7893 10.5706 16.6471 10.5088 16.4922L10.5088 16.4921L10.5061 16.4856L8.91053 12.5994M11.4696 10.1711C11.442 10.1044 11.4276 10.033 11.4273 9.96097M11.4696 10.1711L13.5662 15.2781C13.6676 15.5181 13.7197 15.7755 13.7194 16.0355C13.7191 16.2954 13.6664 16.5528 13.5644 16.7926C13.4624 17.0324 13.313 17.2499 13.125 17.4326C12.937 17.6152 12.714 17.7594 12.4689 17.8568C12.2239 17.9542 11.9617 18.0028 11.6974 17.9999C11.4332 17.9969 11.1721 17.9425 10.9294 17.8397C10.6866 17.7369 10.467 17.5878 10.2832 17.401L11.4273 9.96097M8.91053 12.5994L8.90998 12.5981C8.83517 12.4156 8.70745 12.261 8.545 12.153L8.91053 12.5994ZM7.0842 12.5994C7.08429 12.5992 7.08437 12.599 7.08446 12.5988L7.0842 12.5994ZM7.0842 12.5994L5.49014 16.4818C5.36028 16.7869 5.11204 17.033 4.79541 17.1633C4.47745 17.2942 4.11913 17.2964 3.79947 17.1694C3.48011 17.0425 3.2281 16.7982 3.09468 16.4933C2.96186 16.1898 2.95582 15.8479 3.07759 15.5403L5.17839 10.4247L5.17895 10.4233C5.2405 10.2725 5.27218 10.1111 5.27199 9.94796V9.9486H4.57199L5.27199 9.94759L7.0842 12.5994ZM9.12459 1.15739L9.61547 0.658355L9.12459 1.15739C9.42061 1.44857 9.58476 1.84103 9.58476 2.24776C9.58476 2.6545 9.42061 3.04695 9.12459 3.33814L9.61547 3.83717L9.12459 3.33814C8.82817 3.62971 8.42374 3.79553 7.99965 3.79553C7.57557 3.79553 7.17113 3.62971 6.87472 3.33814C6.5787 3.04695 6.41455 2.6545 6.41455 2.24776C6.41455 1.84103 6.5787 1.44857 6.87472 1.15739C7.17113 0.865822 7.57557 0.7 7.99965 0.7C8.42374 0.7 8.82817 0.865822 9.12459 1.15739ZM5.27199 7.85256C5.27201 7.60591 5.19923 7.36545 5.06377 7.16041L4.47972 7.54628L5.27199 7.85256Z" stroke="#2D2B6F" stroke-width="1.4"/>
</svg>
