<svg width="12" height="11" viewBox="0 0 12 11" fill="none" xmlns="http://www.w3.org/2000/svg">
<path d="M4.79478 3.80907L6 0.911385L7.20522 3.80907C7.29162 4.01682 7.48699 4.15876 7.71126 4.17674L10.8396 4.42753L8.45613 6.4692C8.28525 6.61557 8.21063 6.84523 8.26283 7.06409L8.99101 10.1168L6.31275 8.4809C6.12074 8.36362 5.87926 8.36363 5.68725 8.4809L5.86969 8.77959L5.68725 8.4809L3.00899 10.1168L3.73717 7.06409C3.78937 6.84523 3.71475 6.61557 3.54387 6.4692L1.16044 4.42753L4.28874 4.17674C4.51301 4.15876 4.70838 4.01682 4.79478 3.80907ZM11.0222 4.27112L11.0219 4.2713L11.0222 4.27112Z" stroke="#605F92" stroke-width="0.7"/>
</svg>
