<svg width="15" height="15" viewBox="0 0 15 15" fill="none" xmlns="http://www.w3.org/2000/svg">
<path fill-rule="evenodd" clip-rule="evenodd" d="M11.9312 4.38044C12.0128 4.39541 12.085 4.44214 12.132 4.51035C12.1791 4.57857 12.1971 4.66268 12.1822 4.74419C11.7269 7.22169 10.6272 8.93982 9.0775 10.032C7.535 11.1195 5.58063 11.5626 3.45375 11.5626H2.1875C2.10462 11.5626 2.02513 11.5297 1.96653 11.4711C1.90792 11.4125 1.875 11.333 1.875 11.2501C1.875 11.1673 1.90792 11.0878 1.96653 11.0292C2.02513 10.9706 2.10462 10.9376 2.1875 10.9376H3.45375C5.50125 10.9376 7.31438 10.5101 8.71719 9.52138C10.1131 8.53763 11.1369 6.97451 11.5678 4.63107C11.5828 4.54956 11.6295 4.47733 11.6977 4.43027C11.7659 4.38321 11.8501 4.36518 11.9316 4.38013L11.9312 4.38044Z" fill="#2D2B6F"/>
<path fill-rule="evenodd" clip-rule="evenodd" d="M12.0667 4.07198C12.1095 4.0826 12.1495 4.10215 12.1842 4.12935C12.2189 4.15655 12.2474 4.19078 12.2679 4.22979L13.0882 5.79229C13.1085 5.8287 13.1212 5.86879 13.1257 5.9102C13.1303 5.9516 13.1265 5.9935 13.1145 6.03342C13.1026 6.07333 13.0829 6.11047 13.0564 6.14263C13.0299 6.1748 12.9973 6.20135 12.9604 6.22073C12.9236 6.2401 12.8832 6.25191 12.8417 6.25545C12.8002 6.259 12.7584 6.25421 12.7188 6.24137C12.6791 6.22853 12.6425 6.2079 12.6109 6.18069C12.5794 6.15348 12.5536 6.12023 12.5351 6.08291L11.8782 4.83166L10.8011 5.57041C10.7327 5.61732 10.6485 5.63515 10.5669 5.61997C10.4854 5.60479 10.4133 5.55785 10.3664 5.48948C10.3195 5.4211 10.3016 5.33689 10.3168 5.25537C10.332 5.17385 10.3789 5.1017 10.4473 5.05479L11.8148 4.11729C11.8512 4.09233 11.8924 4.07537 11.9359 4.0675C11.9793 4.05964 12.0239 4.06106 12.0667 4.07166V4.07198Z" fill="#2D2B6F"/>
<path fill-rule="evenodd" clip-rule="evenodd" d="M2.5 1.875V12.5H13.125V13.125H2.1875C2.10462 13.125 2.02513 13.0921 1.96653 13.0335C1.90792 12.9749 1.875 12.8954 1.875 12.8125V1.875H2.5Z" fill="#2D2B6F"/>
</svg>
