<svg width="18" height="17" viewBox="0 0 18 17" fill="none" xmlns="http://www.w3.org/2000/svg">
<path d="M0.785421 0.793015C0.704126 0.791967 0.623587 0.808726 0.549459 0.842117C0.475331 0.875507 0.40941 0.924719 0.356325 0.986298C0.30324 1.04788 0.264278 1.12033 0.242174 1.19857C0.22007 1.27681 0.21536 1.35894 0.228375 1.43919L2.59303 15.7943C2.62249 15.97 2.71291 16.1297 2.8484 16.2453C2.98389 16.3609 3.15579 16.4251 3.3339 16.4266H14.6781C14.8116 16.4283 14.9413 16.382 15.0436 16.2961C15.1458 16.2102 15.2138 16.0905 15.2352 15.9586L17.6054 1.44476C17.6184 1.36451 17.6137 1.28238 17.5916 1.20414C17.5695 1.1259 17.5305 1.05345 17.4775 0.991869C17.4244 0.93029 17.3584 0.881078 17.2843 0.847687C17.2102 0.814297 17.1297 0.797537 17.0484 0.798586L0.785421 0.793015ZM10.7426 11.168H7.12181L6.14141 6.04876H11.62L10.7426 11.168Z" fill="#A900A6"/>
<path d="M16.848 6.0498H11.6201L10.7428 11.1691H7.122L2.84668 16.2466C2.98219 16.3637 3.15496 16.4289 3.33409 16.4304H14.6811C14.8146 16.4321 14.9443 16.3858 15.0466 16.2999C15.1488 16.214 15.2168 16.0943 15.2381 15.9625L16.848 6.0498Z" fill="url(#paint0_linear_8130_71434)"/>
<defs>
<linearGradient id="paint0_linear_8130_71434" x1="18.0568" y1="7.48142" x2="9.41699" y2="14.2272" gradientUnits="userSpaceOnUse">
<stop offset="0.18" stop-color="#730071"/>
<stop offset="1" stop-color="#A900A6"/>
</linearGradient>
</defs>
</svg>
