<svg width="19" height="19" viewBox="0 0 19 19" fill="none" xmlns="http://www.w3.org/2000/svg">
<path d="M8.5556 0.655591C4.43713 1.11643 1.12445 4.52663 0.67679 8.67417C0.22913 13.006 2.64649 16.8771 6.3173 18.3518C6.5859 18.4439 6.8545 18.2596 6.8545 17.8909V16.4162C6.8545 16.4162 6.49637 16.5084 6.04871 16.5084C4.79526 16.5084 4.25807 15.4024 4.16854 14.7572C4.079 14.3886 3.89994 14.112 3.63135 13.8355C3.36275 13.7434 3.27322 13.7434 3.27322 13.6512C3.27322 13.4669 3.54181 13.4669 3.63135 13.4669C4.16854 13.4669 4.6162 14.1121 4.79526 14.3886C5.24292 15.1259 5.78011 15.3102 6.04871 15.3102C6.40684 15.3102 6.67543 15.2181 6.8545 15.1259C6.94403 14.4807 7.21262 13.8355 7.74981 13.4669C5.69058 13.006 4.16854 11.8079 4.16854 9.78018C4.16854 8.76633 4.6162 7.75249 5.24292 7.01515C5.15339 6.83082 5.06386 6.36998 5.06386 5.7248C5.06386 5.35613 5.06386 4.80313 5.33245 4.25012C5.33245 4.25012 6.5859 4.25012 7.83935 5.4483C8.28701 5.26397 8.91373 5.1718 9.54045 5.1718C10.1672 5.1718 10.7939 5.26397 11.3311 5.4483C12.495 4.25012 13.838 4.25012 13.838 4.25012C14.0171 4.80313 14.0171 5.35613 14.0171 5.7248C14.0171 6.46214 13.9275 6.83082 13.838 7.01515C14.4647 7.75249 14.9124 8.67417 14.9124 9.78018C14.9124 11.8079 13.3903 13.006 11.3311 13.4669C11.8683 13.9277 12.2264 14.7572 12.2264 15.5867V17.9831C12.2264 18.2596 12.495 18.5361 12.8531 18.4439C16.1658 17.0614 18.4937 13.7434 18.4937 9.87234C18.4937 4.34229 13.9275 0.0104182 8.5556 0.655591Z" fill="#A900A6"/>
</svg>
