<svg width="383" height="384" viewBox="0 0 383 384" fill="none" xmlns="http://www.w3.org/2000/svg">
<path d="M112.374 240.797C109.046 236.108 96.6377 237.347 91.5106 237.952C75.0403 239.884 46.8993 248.269 29.9454 252.665L7.37082 258.149C5.25092 258.397 1.22129 258.606 0.888431 255.611C0.424331 251.535 12.7587 245.524 15.9624 243.722C29.1026 236.343 57.7391 225.866 66.1395 214.794C53.8817 208.653 53.4216 209.937 40.5727 207.815C38.1576 207.414 33.6964 206.825 33.7337 203.461C33.7738 199.855 40.0398 197.508 42.7331 196.276L70.576 183.194L141.406 148.399C157.241 141.548 177.004 136.005 193.582 142.57C201.939 145.874 207.871 153.981 211.636 161.879C213.855 166.511 215.08 169.94 216.021 175.04C222.346 209.419 183.437 231.881 158.645 246.359L142.114 255.649L116.319 269.758C109.961 273.182 107.323 276.147 101.06 271.568C105.235 265.383 117.379 247.856 112.374 240.797ZM21.188 249.052L20.6753 247.442L20.1326 248.523L21.188 249.052ZM40.9031 244C55.7532 239.847 86.7739 231.596 101.307 231.6C119.592 231.607 123.029 243.157 115.531 258.538L112.818 263.941C120.761 261.989 136.208 252.859 143.935 248.444C163.175 237.443 193.099 220.902 205.521 202.242C216.739 185.4 209.329 155.525 190.999 147.714C178.292 142.308 162.144 146.783 149.621 151.171C131.419 157.551 102.755 172.899 84.6805 182.158L46.118 202.035L61.2265 206.157C72.5358 209.792 73.7425 217.231 64.1097 224.599C52.5665 233.43 30.388 240.52 21.7306 247.972C28.1551 248.072 34.6811 245.734 40.9031 244ZM154.934 211.643C128.668 197.399 140.387 156.561 169.504 156.311C174.794 156.275 179.964 158.085 184.515 160.628C203.029 170.993 202.841 197.446 186.109 210.085C178.928 215.518 170.963 216.538 162.322 215.352C159.311 214.111 157.721 213.515 154.934 211.643ZM179.32 113.313C189.32 90.0551 213.215 103.311 226.099 114.652C245.621 131.829 262.82 163.129 265.91 189.266C267.744 204.746 265.482 231.119 243.805 229.394C231.665 228.413 222.725 220.244 213.667 213.098C219.191 203.965 221.94 201.042 223.426 189.583C225.862 170.916 215.462 146.101 199.073 136.898C192.745 133.341 183.546 132.687 176.363 132.125C176.165 125.544 176.673 119.48 179.32 113.313Z" fill="url(#paint0_linear_1086_56092)"/>
<defs>
<linearGradient id="paint0_linear_1086_56092" x1="265.517" y1="389.853" x2="585.994" y2="-248.392" gradientUnits="userSpaceOnUse">
<stop stop-color="#FC65F9"/>
<stop offset="0.416667" stop-color="#405DE6"/>
</linearGradient>
</defs>
</svg>
