<svg width="14" height="16" viewBox="0 0 14 16" fill="none" xmlns="http://www.w3.org/2000/svg">
<path d="M12.25 0H1.75C0.784875 0 0 0.7176 0 1.6V15.2C0 15.4122 0.0921874 15.6157 0.256282 15.7657C0.420376 15.9157 0.642936 16 0.875 16H13.125C13.3571 16 13.5796 15.9157 13.7437 15.7657C13.9078 15.6157 14 15.4122 14 15.2V1.6C14 0.7176 13.2151 0 12.25 0ZM12.25 14.4H1.75V1.6H12.25V14.4Z" fill="#2D2B6F"/>
<path d="M3 3H6V4.6H3V3ZM8 3H11V4.6H8V3ZM3 6.2H6V7.8H3V6.2ZM8 6.2248H11V7.8H8V6.2248ZM3 9.4H6V11H3V9.4ZM8 9.4H11V11H8V9.4Z" fill="#2D2B6F"/>
</svg>
