<svg width="16" height="18" viewBox="0 0 16 18" fill="none" xmlns="http://www.w3.org/2000/svg">
<path d="M15.9719 4.41333C15.9576 4.26184 15.9057 4.11652 15.8209 3.99105C15.7361 3.86558 15.6214 3.76408 15.4874 3.69608L8.42558 0.0963598C8.30273 0.0333117 8.16707 0.000314742 8.02943 2.24059e-06C7.8918 -0.000310261 7.756 0.0320705 7.63287 0.09456L0.523241 3.69428C0.260184 3.82927 0.0786126 4.08755 0.0414126 4.38453C0.0298983 4.47182 -0.97273 13.1507 7.6063 17.8907C7.73817 17.9638 7.88625 18.0014 8.03646 18C8.18667 17.9985 8.33403 17.9581 8.46455 17.8826C16.7079 13.1498 16.0055 4.7679 15.9719 4.41333ZM8.02081 16.062C1.94481 12.4533 1.69681 6.74594 1.76501 5.07837L8.0279 1.90792L14.2261 5.06757C14.2306 6.75044 13.8001 12.4857 8.02081 16.062Z" fill="#2D2B6F"/>
<path d="M10 6.90836C10.0002 7.30338 9.8721 7.68874 9.6333 8.01133C9.3945 8.33392 9.05677 8.57786 8.66667 8.70953L9.18 11.2426C9.19868 11.3348 9.19578 11.4297 9.17152 11.5206C9.14726 11.6116 9.10224 11.6963 9.03967 11.7686C8.97711 11.841 8.89856 11.8993 8.80964 11.9393C8.72072 11.9793 8.62363 12 8.52533 12H7.47467C7.37648 11.9998 7.27955 11.979 7.19079 11.9389C7.10204 11.8988 7.02365 11.8405 6.96124 11.7681C6.89882 11.6958 6.85391 11.6112 6.82973 11.5203C6.80555 11.4295 6.80268 11.3346 6.82133 11.2426L7.33333 8.70953C6.98768 8.59286 6.68227 8.38773 6.45047 8.11656C6.21868 7.84539 6.06942 7.51861 6.019 7.17193C5.96859 6.82525 6.01896 6.47201 6.16461 6.15081C6.31026 5.82961 6.54558 5.55281 6.84487 5.35066C7.14416 5.14851 7.49589 5.02879 7.86163 5.00458C8.22738 4.98036 8.59305 5.05259 8.9187 5.21336C9.24435 5.37414 9.51745 5.61728 9.70815 5.91621C9.89885 6.21514 9.99981 6.55836 10 6.90836Z" fill="#2D2B6F"/>
</svg>
