<svg width="51" height="46" viewBox="0 0 51 46" fill="none" xmlns="http://www.w3.org/2000/svg">
<path d="M29.671 27.0787C31.2004 27.0787 32.5463 26.2423 33.2397 24.9775L40.5401 11.7379C41.2947 10.3915 40.3158 8.71867 38.766 8.71867H8.58521L6.66832 4.63867H0V8.71867H4.07849L11.4198 24.2023L8.66678 29.1799C7.17813 31.9135 9.13581 35.2387 12.2355 35.2387H36.7064V31.1587H12.2355L14.4786 27.0787H29.671ZM10.5225 12.7987H35.2993L29.671 22.9987H15.3555L10.5225 12.7987ZM12.2355 37.2787C9.99229 37.2787 8.17736 39.1147 8.17736 41.3587C8.17736 43.6027 9.99229 45.4387 12.2355 45.4387C14.4786 45.4387 16.3139 43.6027 16.3139 41.3587C16.3139 39.1147 14.4786 37.2787 12.2355 37.2787ZM32.6279 37.2787C30.3847 37.2787 28.5698 39.1147 28.5698 41.3587C28.5698 43.6027 30.3847 45.4387 32.6279 45.4387C34.8711 45.4387 36.7064 43.6027 36.7064 41.3587C36.7064 39.1147 34.8711 37.2787 32.6279 37.2787Z" fill="#2D2B6F"/>
<circle cx="40.8006" cy="10.7586" r="10.2" fill="#A900A6"/>
<path d="M44.5536 14.4619V16H37.745V14.6875L40.9648 11.2354C41.2883 10.8753 41.5435 10.5586 41.7304 10.2852C41.9172 10.0072 42.0517 9.75879 42.1337 9.54004C42.2203 9.31673 42.2636 9.10482 42.2636 8.9043C42.2636 8.60352 42.2135 8.34603 42.1132 8.13184C42.0129 7.91309 41.8648 7.74447 41.6689 7.62598C41.4775 7.50749 41.2405 7.44824 40.9579 7.44824C40.6571 7.44824 40.3974 7.52116 40.1786 7.66699C39.9644 7.81283 39.8004 8.01562 39.6864 8.27539C39.5771 8.53516 39.5224 8.8291 39.5224 9.15723H37.5468C37.5468 8.56478 37.6881 8.02246 37.9706 7.53027C38.2532 7.03353 38.6519 6.63932 39.1669 6.34766C39.6819 6.05143 40.2926 5.90332 40.9989 5.90332C41.6962 5.90332 42.2841 6.01725 42.7626 6.24512C43.2457 6.46842 43.6103 6.79199 43.8564 7.21582C44.107 7.63509 44.2323 8.13639 44.2323 8.71973C44.2323 9.04785 44.1799 9.36914 44.0751 9.68359C43.9703 9.99349 43.8199 10.3034 43.6239 10.6133C43.4325 10.9186 43.2001 11.2285 42.9267 11.543C42.6532 11.8574 42.3502 12.1833 42.0175 12.5205L40.288 14.4619H44.5536Z" fill="white"/>
</svg>
