<svg width="14" height="14" viewBox="0 0 14 14" fill="none" xmlns="http://www.w3.org/2000/svg">
<path d="M5.163 4.7215C4.8501 4.914 6.0009 7.6909 6.2816 8.1431C6.39975 8.33233 6.58799 8.46711 6.8052 8.51797C7.0224 8.56884 7.25092 8.53167 7.4408 8.41457C7.63068 8.29748 7.7665 8.10999 7.81857 7.89307C7.87065 7.67615 7.83474 7.44743 7.7187 7.2569C7.4408 6.8033 5.4752 4.5283 5.163 4.7215ZM4.9285 1.6814C6.2697 1.21332 7.7299 1.21332 9.0711 1.6814C9.3014 1.7612 9.6066 1.6009 9.4715 1.2537C9.3728 1.0017 9.2776 0.7553 9.2391 0.6552C9.1474 0.4179 8.8191 0.2219 8.6763 0.1897C8.1359 0.0679 7.5759 0 6.9998 0C6.4237 0 5.8637 0.0679 5.3226 0.1897C5.1798 0.2219 4.8522 0.4179 4.7605 0.6552L4.5281 1.2537C4.393 1.6009 4.6982 1.7619 4.9285 1.6814ZM13.3684 2.2302C13.0966 1.90409 12.796 1.60305 12.4703 1.3307C12.3632 1.2404 12.0482 1.1669 11.8487 1.3664L10.6951 2.5193C10.9825 2.7224 11.2529 2.94855 11.5036 3.1955C11.757 3.4482 11.9775 3.7219 12.1798 4.004L13.3327 2.8511C13.5329 2.6509 13.4594 2.3366 13.3684 2.2302ZM6.9998 2.03C6.25515 2.02991 5.51777 2.1765 4.82977 2.4614C4.14177 2.7463 3.51664 3.16394 2.99005 3.69046C2.46347 4.21697 2.04576 4.84206 1.76077 5.53002C1.47578 6.21798 1.3291 6.95535 1.3291 7.7C1.32901 8.44471 1.47562 9.18215 1.76057 9.87019C2.04552 10.5582 2.46321 11.1834 2.98981 11.71C3.5164 12.2366 4.14157 12.6543 4.82961 12.9392C5.51765 13.2242 6.25509 13.3708 6.9998 13.3707C8.50367 13.3707 9.94595 12.7733 11.0093 11.7099C12.0727 10.6465 12.6702 9.20422 12.6702 7.70035C12.6702 6.19648 12.0727 4.7542 11.0093 3.69081C9.94595 2.62741 8.50367 2.03 6.9998 2.03ZM6.9998 11.9707C6.43901 11.9707 5.88372 11.8602 5.36564 11.6455C4.84755 11.4309 4.37682 11.1163 3.98031 10.7197C3.5838 10.3231 3.26929 9.85234 3.05473 9.33422C2.84017 8.8161 2.72976 8.26079 2.7298 7.7C2.72985 7.13921 2.84035 6.58392 3.055 6.06583C3.26964 5.54775 3.58423 5.07701 3.98081 4.68051C4.37738 4.284 4.84816 3.96949 5.36628 3.75493C5.8844 3.54036 6.43971 3.42995 7.0005 3.43C8.13298 3.43009 9.21903 3.88006 10.0197 4.6809C10.8205 5.48175 11.2702 6.56788 11.2702 7.70035C11.2701 8.83282 10.8201 9.91888 10.0192 10.7196C9.2184 11.5203 8.13228 11.9701 6.9998 11.97V11.9707Z" fill="#808080"/>
</svg>
