<svg width="55" height="8" viewBox="0 0 55 8" fill="none" xmlns="http://www.w3.org/2000/svg">
<path d="M54.6974 4.30164L54.6974 3.69745L52.3021 3.69745L52.3021 1.3021H51.6979L51.6979 3.69745L49.3026 3.69745L49.3026 4.30164L51.6979 4.30164L51.6979 6.697H52.3021L52.3021 4.30164L54.6974 4.30164Z" fill="#B8B8B8"/>
<path d="M2.85625 1.81641L0.973438 7H0.203907L2.37188 1.3125H2.86797L2.85625 1.81641ZM4.43438 7L2.54766 1.81641L2.53594 1.3125H3.03203L5.20781 7H4.43438ZM4.33672 4.89453V5.51172H1.14141V4.89453H4.33672ZM8.72422 6.17969V1H9.45078V7H8.78672L8.72422 6.17969ZM5.88047 4.93359V4.85156C5.88047 4.52865 5.91953 4.23568 5.99766 3.97266C6.07839 3.70703 6.19167 3.47917 6.3375 3.28906C6.48594 3.09896 6.66172 2.95312 6.86484 2.85156C7.07057 2.7474 7.29974 2.69531 7.55234 2.69531C7.81797 2.69531 8.04974 2.74219 8.24766 2.83594C8.44818 2.92708 8.61745 3.0612 8.75547 3.23828C8.89609 3.41276 9.00677 3.6237 9.0875 3.87109C9.16823 4.11849 9.22422 4.39844 9.25547 4.71094V5.07031C9.22682 5.38021 9.17083 5.65885 9.0875 5.90625C9.00677 6.15365 8.89609 6.36458 8.75547 6.53906C8.61745 6.71354 8.44818 6.84766 8.24766 6.94141C8.04714 7.03255 7.81276 7.07812 7.54453 7.07812C7.29714 7.07812 7.07057 7.02474 6.86484 6.91797C6.66172 6.8112 6.48594 6.66146 6.3375 6.46875C6.19167 6.27604 6.07839 6.04948 5.99766 5.78906C5.91953 5.52604 5.88047 5.24089 5.88047 4.93359ZM6.60703 4.85156V4.93359C6.60703 5.14453 6.62787 5.34245 6.66953 5.52734C6.7138 5.71224 6.78151 5.875 6.87266 6.01562C6.9638 6.15625 7.07969 6.26693 7.22031 6.34766C7.36094 6.42578 7.52891 6.46484 7.72422 6.46484C7.9638 6.46484 8.16042 6.41406 8.31406 6.3125C8.47031 6.21094 8.59531 6.07682 8.68906 5.91016C8.78281 5.74349 8.85573 5.5625 8.90781 5.36719V4.42578C8.87656 4.28255 8.83099 4.14453 8.77109 4.01172C8.7138 3.8763 8.63828 3.75651 8.54453 3.65234C8.45339 3.54557 8.3401 3.46094 8.20469 3.39844C8.07188 3.33594 7.91432 3.30469 7.73203 3.30469C7.53412 3.30469 7.36354 3.34635 7.22031 3.42969C7.07969 3.51042 6.9638 3.6224 6.87266 3.76562C6.78151 3.90625 6.7138 4.07031 6.66953 4.25781C6.62787 4.44271 6.60703 4.64062 6.60703 4.85156ZM13.4398 6.17969V1H14.1664V7H13.5023L13.4398 6.17969ZM10.5961 4.93359V4.85156C10.5961 4.52865 10.6352 4.23568 10.7133 3.97266C10.794 3.70703 10.9073 3.47917 11.0531 3.28906C11.2016 3.09896 11.3773 2.95312 11.5805 2.85156C11.7862 2.7474 12.0154 2.69531 12.268 2.69531C12.5336 2.69531 12.7654 2.74219 12.9633 2.83594C13.1638 2.92708 13.3331 3.0612 13.4711 3.23828C13.6117 3.41276 13.7224 3.6237 13.8031 3.87109C13.8839 4.11849 13.9398 4.39844 13.9711 4.71094V5.07031C13.9424 5.38021 13.8865 5.65885 13.8031 5.90625C13.7224 6.15365 13.6117 6.36458 13.4711 6.53906C13.3331 6.71354 13.1638 6.84766 12.9633 6.94141C12.7628 7.03255 12.5284 7.07812 12.2602 7.07812C12.0128 7.07812 11.7862 7.02474 11.5805 6.91797C11.3773 6.8112 11.2016 6.66146 11.0531 6.46875C10.9073 6.27604 10.794 6.04948 10.7133 5.78906C10.6352 5.52604 10.5961 5.24089 10.5961 4.93359ZM11.3227 4.85156V4.93359C11.3227 5.14453 11.3435 5.34245 11.3852 5.52734C11.4294 5.71224 11.4971 5.875 11.5883 6.01562C11.6794 6.15625 11.7953 6.26693 11.9359 6.34766C12.0766 6.42578 12.2445 6.46484 12.4398 6.46484C12.6794 6.46484 12.876 6.41406 13.0297 6.3125C13.1859 6.21094 13.3109 6.07682 13.4047 5.91016C13.4984 5.74349 13.5714 5.5625 13.6234 5.36719V4.42578C13.5922 4.28255 13.5466 4.14453 13.4867 4.01172C13.4294 3.8763 13.3539 3.75651 13.2602 3.65234C13.169 3.54557 13.0557 3.46094 12.9203 3.39844C12.7875 3.33594 12.6299 3.30469 12.4477 3.30469C12.2497 3.30469 12.0792 3.34635 11.9359 3.42969C11.7953 3.51042 11.6794 3.6224 11.5883 3.76562C11.4971 3.90625 11.4294 4.07031 11.3852 4.25781C11.3435 4.44271 11.3227 4.64062 11.3227 4.85156ZM21.2188 5.19141H21.9688C21.9297 5.55078 21.8268 5.8724 21.6602 6.15625C21.4935 6.4401 21.2578 6.66536 20.9531 6.83203C20.6484 6.99609 20.2682 7.07812 19.8125 7.07812C19.4792 7.07812 19.1758 7.01562 18.9023 6.89062C18.6315 6.76562 18.3984 6.58854 18.2031 6.35938C18.0078 6.1276 17.8568 5.85026 17.75 5.52734C17.6458 5.20182 17.5938 4.83984 17.5938 4.44141V3.875C17.5938 3.47656 17.6458 3.11589 17.75 2.79297C17.8568 2.46745 18.0091 2.1888 18.207 1.95703C18.4076 1.72526 18.6484 1.54688 18.9297 1.42188C19.2109 1.29688 19.5273 1.23438 19.8789 1.23438C20.3086 1.23438 20.6719 1.3151 20.9688 1.47656C21.2656 1.63802 21.4961 1.86198 21.6602 2.14844C21.8268 2.43229 21.9297 2.76172 21.9688 3.13672H21.2188C21.1823 2.87109 21.1146 2.64323 21.0156 2.45312C20.9167 2.26042 20.776 2.11198 20.5938 2.00781C20.4115 1.90365 20.1732 1.85156 19.8789 1.85156C19.6263 1.85156 19.4036 1.89974 19.2109 1.99609C19.0208 2.09245 18.8607 2.22917 18.7305 2.40625C18.6029 2.58333 18.5065 2.79557 18.4414 3.04297C18.3763 3.29036 18.3438 3.5651 18.3438 3.86719V4.44141C18.3438 4.72005 18.3724 4.98177 18.4297 5.22656C18.4896 5.47135 18.5794 5.6862 18.6992 5.87109C18.819 6.05599 18.9714 6.20182 19.1562 6.30859C19.3411 6.41276 19.5599 6.46484 19.8125 6.46484C20.1328 6.46484 20.388 6.41406 20.5781 6.3125C20.7682 6.21094 20.9115 6.0651 21.0078 5.875C21.1068 5.6849 21.1771 5.45703 21.2188 5.19141ZM25.6727 6.02344V2.77344H26.3992V7H25.7078L25.6727 6.02344ZM25.8094 5.13281L26.1102 5.125C26.1102 5.40625 26.0802 5.66667 26.0203 5.90625C25.963 6.14323 25.8693 6.34896 25.7391 6.52344C25.6089 6.69792 25.4383 6.83464 25.2273 6.93359C25.0164 7.02995 24.7599 7.07812 24.4578 7.07812C24.2521 7.07812 24.0633 7.04818 23.8914 6.98828C23.7221 6.92839 23.5763 6.83594 23.4539 6.71094C23.3315 6.58594 23.2365 6.42318 23.1688 6.22266C23.1036 6.02214 23.0711 5.78125 23.0711 5.5V2.77344H23.7938V5.50781C23.7938 5.69792 23.8146 5.85547 23.8563 5.98047C23.9005 6.10286 23.9591 6.20052 24.032 6.27344C24.1076 6.34375 24.1909 6.39323 24.282 6.42188C24.3758 6.45052 24.4721 6.46484 24.5711 6.46484C24.8784 6.46484 25.1219 6.40625 25.3016 6.28906C25.4813 6.16927 25.6102 6.00911 25.6883 5.80859C25.769 5.60547 25.8094 5.38021 25.8094 5.13281ZM30.1617 5.87891C30.1617 5.77474 30.1383 5.67839 30.0914 5.58984C30.0471 5.4987 29.9547 5.41667 29.8141 5.34375C29.676 5.26823 29.4677 5.20312 29.1891 5.14844C28.9547 5.09896 28.7424 5.04036 28.5523 4.97266C28.3648 4.90495 28.2047 4.82292 28.0719 4.72656C27.9417 4.63021 27.8414 4.51693 27.7711 4.38672C27.7008 4.25651 27.6656 4.10417 27.6656 3.92969C27.6656 3.76302 27.7021 3.60547 27.775 3.45703C27.8505 3.30859 27.956 3.17708 28.0914 3.0625C28.2294 2.94792 28.3948 2.85807 28.5875 2.79297C28.7802 2.72786 28.9951 2.69531 29.232 2.69531C29.5706 2.69531 29.8596 2.75521 30.0992 2.875C30.3388 2.99479 30.5224 3.15495 30.65 3.35547C30.7776 3.55339 30.8414 3.77344 30.8414 4.01562H30.1188C30.1188 3.89844 30.0836 3.78516 30.0133 3.67578C29.9456 3.5638 29.8453 3.47135 29.7125 3.39844C29.5823 3.32552 29.4221 3.28906 29.232 3.28906C29.0315 3.28906 28.8688 3.32031 28.7438 3.38281C28.6214 3.44271 28.5315 3.51953 28.4742 3.61328C28.4195 3.70703 28.3922 3.80599 28.3922 3.91016C28.3922 3.98828 28.4052 4.05859 28.4313 4.12109C28.4599 4.18099 28.5094 4.23698 28.5797 4.28906C28.65 4.33854 28.749 4.38542 28.8766 4.42969C29.0042 4.47396 29.1669 4.51823 29.3648 4.5625C29.7112 4.64062 29.9964 4.73438 30.2203 4.84375C30.4443 4.95312 30.6109 5.08724 30.7203 5.24609C30.8297 5.40495 30.8844 5.59766 30.8844 5.82422C30.8844 6.00911 30.8453 6.17839 30.7672 6.33203C30.6917 6.48568 30.581 6.61849 30.4352 6.73047C30.2919 6.83984 30.1201 6.92578 29.9195 6.98828C29.7216 7.04818 29.499 7.07812 29.2516 7.07812C28.8792 7.07812 28.5641 7.01172 28.3063 6.87891C28.0484 6.74609 27.8531 6.57422 27.7203 6.36328C27.5875 6.15234 27.5211 5.92969 27.5211 5.69531H28.2477C28.2581 5.89323 28.3154 6.05078 28.4195 6.16797C28.5237 6.28255 28.6513 6.36458 28.8023 6.41406C28.9534 6.46094 29.1031 6.48438 29.2516 6.48438C29.4495 6.48438 29.6148 6.45833 29.7477 6.40625C29.8831 6.35417 29.9859 6.28255 30.0563 6.19141C30.1266 6.10026 30.1617 5.99609 30.1617 5.87891ZM33.8031 2.77344V3.32812H31.518V2.77344H33.8031ZM32.2914 1.74609H33.0141V5.95312C33.0141 6.09635 33.0362 6.20443 33.0805 6.27734C33.1247 6.35026 33.182 6.39844 33.2523 6.42188C33.3227 6.44531 33.3982 6.45703 33.4789 6.45703C33.5388 6.45703 33.6013 6.45182 33.6664 6.44141C33.7341 6.42839 33.7849 6.41797 33.8188 6.41016L33.8227 7C33.7654 7.01823 33.6898 7.03516 33.5961 7.05078C33.5049 7.06901 33.3943 7.07812 33.2641 7.07812C33.087 7.07812 32.9242 7.04297 32.7758 6.97266C32.6273 6.90234 32.5089 6.78516 32.4203 6.62109C32.3344 6.45443 32.2914 6.23047 32.2914 5.94922V1.74609ZM34.5812 4.93359V4.84375C34.5812 4.53906 34.6255 4.25651 34.7141 3.99609C34.8026 3.73307 34.9302 3.50521 35.0969 3.3125C35.2635 3.11719 35.4654 2.96615 35.7023 2.85938C35.9393 2.75 36.2049 2.69531 36.4992 2.69531C36.7961 2.69531 37.063 2.75 37.3 2.85938C37.5396 2.96615 37.7427 3.11719 37.9094 3.3125C38.0786 3.50521 38.2076 3.73307 38.2961 3.99609C38.3846 4.25651 38.4289 4.53906 38.4289 4.84375V4.93359C38.4289 5.23828 38.3846 5.52083 38.2961 5.78125C38.2076 6.04167 38.0786 6.26953 37.9094 6.46484C37.7427 6.65755 37.5409 6.80859 37.3039 6.91797C37.0695 7.02474 36.8039 7.07812 36.507 7.07812C36.2102 7.07812 35.9432 7.02474 35.7062 6.91797C35.4693 6.80859 35.2661 6.65755 35.0969 6.46484C34.9302 6.26953 34.8026 6.04167 34.7141 5.78125C34.6255 5.52083 34.5812 5.23828 34.5812 4.93359ZM35.3039 4.84375V4.93359C35.3039 5.14453 35.3286 5.34375 35.3781 5.53125C35.4276 5.71615 35.5018 5.88021 35.6008 6.02344C35.7023 6.16667 35.8286 6.27995 35.9797 6.36328C36.1307 6.44401 36.3065 6.48438 36.507 6.48438C36.7049 6.48438 36.8781 6.44401 37.0266 6.36328C37.1776 6.27995 37.3026 6.16667 37.4016 6.02344C37.5005 5.88021 37.5747 5.71615 37.6242 5.53125C37.6763 5.34375 37.7023 5.14453 37.7023 4.93359V4.84375C37.7023 4.63542 37.6763 4.4388 37.6242 4.25391C37.5747 4.06641 37.4992 3.90104 37.3977 3.75781C37.2987 3.61198 37.1737 3.4974 37.0227 3.41406C36.8742 3.33073 36.6997 3.28906 36.4992 3.28906C36.3013 3.28906 36.1268 3.33073 35.9758 3.41406C35.8273 3.4974 35.7023 3.61198 35.6008 3.75781C35.5018 3.90104 35.4276 4.06641 35.3781 4.25391C35.3286 4.4388 35.3039 4.63542 35.3039 4.84375ZM40.2539 3.61328V7H39.5273V2.77344H40.2148L40.2539 3.61328ZM40.1055 4.72656L39.7695 4.71484C39.7721 4.42578 39.8099 4.15885 39.8828 3.91406C39.9557 3.66667 40.0638 3.45182 40.207 3.26953C40.3503 3.08724 40.5286 2.94661 40.7422 2.84766C40.9557 2.74609 41.2031 2.69531 41.4844 2.69531C41.6823 2.69531 41.8646 2.72396 42.0312 2.78125C42.1979 2.83594 42.3424 2.92318 42.4648 3.04297C42.5872 3.16276 42.6823 3.31641 42.75 3.50391C42.8177 3.69141 42.8516 3.91797 42.8516 4.18359V7H42.1289V4.21875C42.1289 3.9974 42.0911 3.82031 42.0156 3.6875C41.9427 3.55469 41.8385 3.45833 41.7031 3.39844C41.5677 3.33594 41.4089 3.30469 41.2266 3.30469C41.013 3.30469 40.8346 3.34245 40.6914 3.41797C40.5482 3.49349 40.4336 3.59766 40.3477 3.73047C40.2617 3.86328 40.1992 4.01562 40.1602 4.1875C40.1237 4.35677 40.1055 4.53646 40.1055 4.72656ZM42.8438 4.32812L42.3594 4.47656C42.362 4.24479 42.3997 4.02214 42.4727 3.80859C42.5482 3.59505 42.6562 3.40495 42.7969 3.23828C42.9401 3.07161 43.1159 2.9401 43.3242 2.84375C43.5326 2.74479 43.7708 2.69531 44.0391 2.69531C44.2656 2.69531 44.4661 2.72526 44.6406 2.78516C44.8177 2.84505 44.9661 2.9375 45.0859 3.0625C45.2083 3.1849 45.3008 3.34245 45.3633 3.53516C45.4258 3.72786 45.457 3.95703 45.457 4.22266V7H44.7305V4.21484C44.7305 3.97786 44.6927 3.79427 44.6172 3.66406C44.5443 3.53125 44.4401 3.4388 44.3047 3.38672C44.1719 3.33203 44.013 3.30469 43.8281 3.30469C43.6693 3.30469 43.5286 3.33203 43.4062 3.38672C43.2839 3.44141 43.181 3.51693 43.0977 3.61328C43.0143 3.70703 42.9505 3.8151 42.9062 3.9375C42.8646 4.0599 42.8438 4.1901 42.8438 4.32812Z" fill="#808080"/>
</svg>
