<?xml version="1.0" encoding="utf-8"?>
<!-- Generator: Adobe Illustrator 26.2.1, SVG Export Plug-In . SVG Version: 6.00 Build 0)  -->
<svg version="1.1" id="Layer_1" xmlns="http://www.w3.org/2000/svg" xmlns:xlink="http://www.w3.org/1999/xlink" x="0px" y="0px"
	 viewBox="0 0 1280 1024" style="enable-background:new 0 0 1280 1024;" xml:space="preserve">
<style type="text/css">
	.st0{fill:#6E46BE;}
</style>
<g>
	<path class="st0" d="M634.61,468.55l14.31,30.92l2.8,6.05l0.05-26.06l0.07-26.11h30.24l0.06,58.86c0.02,32.4-0.02,59.01-0.11,59.06
		c-0.08,0.05-1.48,0-3.09-0.15c-7.86-0.72-15.75-1.23-23.66-1.53c-1.5-0.04-3.01-0.11-4.5-0.21c-0.02-0.02-1.93-4.13-5.5-11.83
		v-0.02l-15.19-32.84l-2.41-5.17l-0.06,24.85c-0.04,23.65-0.07,24.98-0.4,24.98c-1.15,0-11.12,0.49-14.45,0.74
		c-2.18,0.15-6.56,0.49-9.7,0.78c-3.16,0.28-5.78,0.46-5.83,0.42c-0.06-0.03-0.11-26.6-0.11-59.02v-58.96h0.04v-0.01h30.37l0.2,0.43
		c0.05,0.09,0.46,0.95,1.11,2.37l4.54,9.63l1.23,2.69L634.61,468.55L634.61,468.55z"/>
</g>
</svg>
