<svg width="13" height="13" viewBox="0 0 13 13" fill="none" xmlns="http://www.w3.org/2000/svg">
<path fill-rule="evenodd" clip-rule="evenodd" d="M9.07073 3.79297C9.07073 3.36199 8.90209 2.94867 8.60189 2.64392C8.30169 2.33917 7.89453 2.16797 7.46999 2.16797H5.33566C4.91112 2.16797 4.50396 2.33917 4.20376 2.64392C3.90356 2.94867 3.73491 3.36199 3.73491 3.79297H3.20133C2.77679 3.79297 2.36963 3.96417 2.06943 4.26892C1.76924 4.57367 1.60059 4.98699 1.60059 5.41797V9.7513C1.60059 10.1823 1.76924 10.5956 2.06943 10.9004C2.36963 11.2051 2.77679 11.3763 3.20133 11.3763H9.60432C10.0289 11.3763 10.436 11.2051 10.7362 10.9004C11.0364 10.5956 11.2051 10.1823 11.2051 9.7513V5.41797C11.2051 4.98699 11.0364 4.57367 10.7362 4.26892C10.436 3.96417 10.0289 3.79297 9.60432 3.79297H9.07073ZM7.46999 3.2513H5.33566C5.19415 3.2513 5.05843 3.30837 4.95836 3.40995C4.8583 3.51153 4.80208 3.64931 4.80208 3.79297H8.00357C8.00357 3.64931 7.94735 3.51153 7.84729 3.40995C7.74722 3.30837 7.6115 3.2513 7.46999 3.2513ZM3.20133 4.8763H9.60432C9.74583 4.8763 9.88155 4.93337 9.98162 5.03495C10.0817 5.13653 10.1379 5.27431 10.1379 5.41797V9.7513C10.1379 9.89496 10.0817 10.0327 9.98162 10.1343C9.88155 10.2359 9.74583 10.293 9.60432 10.293H3.20133C3.05982 10.293 2.9241 10.2359 2.82403 10.1343C2.72397 10.0327 2.66775 9.89496 2.66775 9.7513V5.41797C2.66775 5.27431 2.72397 5.13653 2.82403 5.03495C2.9241 4.93337 3.05982 4.8763 3.20133 4.8763Z" fill="#2D2B6F"/>
</svg>
