<svg width="14" height="14" viewBox="0 0 14 14" fill="none" xmlns="http://www.w3.org/2000/svg">
<path d="M7.00065 6.99935C8.61148 6.99935 9.91732 5.69351 9.91732 4.08268C9.91732 2.47185 8.61148 1.16602 7.00065 1.16602C5.38982 1.16602 4.08398 2.47185 4.08398 4.08268C4.08398 5.69351 5.38982 6.99935 7.00065 6.99935Z" stroke="#808080"/>
<path d="M9.91703 8.16602H10.1224C10.5488 8.16614 10.9606 8.32198 11.2802 8.60426C11.5999 8.88655 11.8055 9.27585 11.8584 9.69902L12.0864 11.5214C12.107 11.6855 12.0923 11.8522 12.0435 12.0102C11.9947 12.1683 11.9128 12.3142 11.8033 12.4382C11.6938 12.5622 11.5592 12.6616 11.4084 12.7296C11.2575 12.7976 11.094 12.8327 10.9285 12.8327H3.07219C2.90675 12.8327 2.74319 12.7976 2.59237 12.7296C2.44155 12.6616 2.30692 12.5622 2.19741 12.4382C2.08791 12.3142 2.00603 12.1683 1.95721 12.0102C1.9084 11.8522 1.89376 11.6855 1.91428 11.5214L2.14178 9.69902C2.19468 9.27565 2.40044 8.88619 2.72035 8.60388C3.04026 8.32157 3.45228 8.16585 3.87894 8.16602H4.08369" stroke="#808080" stroke-linecap="round" stroke-linejoin="round"/>
</svg>
