<?xml version="1.0" encoding="utf-8"?>
<!-- Generator: Adobe Illustrator 26.2.1, SVG Export Plug-In . SVG Version: 6.00 Build 0)  -->
<svg version="1.1" id="Layer_1" xmlns="http://www.w3.org/2000/svg" xmlns:xlink="http://www.w3.org/1999/xlink" x="0px" y="0px"
	 viewBox="0 0 1280 1024" style="enable-background:new 0 0 1280 1024;" xml:space="preserve">
<style type="text/css">
	.st0{fill:#6E46BE;}
</style>
<g>
	<path class="st0" d="M691.35,555.14c-0.55-0.15-1.21-0.07-1.97,0.22c-10.19,4.69-20.09,8.04-29.72,10.02
		c-20.79,4.26-41.04,2.03-60.75-6.67c-5.47-2.43-13.08-6.52-22.82-12.32c-0.25-0.2-0.56-0.32-0.88-0.33
		c-0.33-0.02-0.61,0.02-0.88,0.15c-0.26,0.13-0.46,0.3-0.61,0.52c-0.15,0.22-0.18,0.52-0.07,0.9c0.1,0.37,0.35,0.78,0.76,1.23
		c1.72,2.03,3.85,4.19,6.38,6.49c2.53,2.3,5.89,4.89,10.07,7.79c4.18,2.9,8.57,5.48,13.11,7.72c4.56,2.25,9.86,4.14,15.89,5.67
		c6.04,1.53,12.07,2.3,18.09,2.3c5.99,0,11.81-0.62,17.45-1.81c5.66-1.22,10.42-2.65,14.3-4.31c3.87-1.65,7.44-3.49,10.72-5.49
		c3.27-2,5.69-3.7,7.26-5.04c1.57-1.36,2.7-2.43,3.34-3.23c0.76-0.95,1.14-1.76,1.14-2.48C692.2,555.7,691.9,555.27,691.35,555.14z
		 M642.14,485.1c-2.51,0.22-5.54,0.68-9.09,1.38c-3.56,0.68-6.85,1.55-9.89,2.56c-3.04,1.02-6.15,2.43-9.31,4.23
		c-3.17,1.8-5.87,3.86-8.1,6.16c-2.23,2.3-4.05,5.18-5.47,8.65c-1.42,3.46-2.13,7.27-2.13,11.43c0,4.51,0.78,8.52,2.36,12.07
		c1.57,3.55,3.67,6.32,6.32,8.39c2.63,2.06,5.62,3.68,8.93,4.86c3.31,1.18,6.81,1.71,10.45,1.56c3.64-0.15,7.19-0.72,10.65-1.71
		c3.44-0.98,6.68-2.56,9.69-4.71c3.01-2.15,5.47-4.69,7.41-7.61c0.71,1.1,1.34,1.91,1.9,2.45l1.44,1.48
		c0.96,0.98,2.43,2.43,4.42,4.34c1.97,1.91,3.99,3.78,6,5.61l17.26-16.63l-0.99-0.82c-0.71-0.55-1.55-1.33-2.51-2.38
		c-0.96-1.03-1.92-2.18-2.84-3.41c-0.94-1.23-1.75-2.68-2.43-4.31c-0.68-1.63-1.03-3.21-1.03-4.74v-43.74c0-1.68-0.31-3.5-0.94-5.46
		c-0.65-1.95-1.77-4.08-3.42-6.37c-1.65-2.3-3.7-4.36-6.15-6.16c-2.46-1.8-5.74-3.33-9.86-4.56c-4.1-1.23-8.7-1.85-13.76-1.85
		c-5.18,0-9.99,0.62-14.49,1.81c-4.48,1.21-8.32,2.83-11.53,4.86c-3.19,2.03-5.94,4.38-8.22,7.06c-2.28,2.68-3.99,5.48-5.09,8.39
		c-1.11,2.91-1.67,5.86-1.67,8.84l22.36,1.98c0.91-2.73,2.13-5.09,3.64-7.12c1.52-2.03,2.96-3.5,4.27-4.41
		c1.32-0.92,2.75-1.65,4.25-2.2c1.52-0.55,2.55-0.83,3.08-0.9c0.53-0.05,0.94-0.07,1.26-0.07c4.42,0,7.47,1.31,9.19,3.93
		c1.07,1.58,1.6,3.98,1.6,7.21v9.42C647.17,484.72,644.66,484.89,642.14,485.1z M649.7,510.38c0,2.76-0.36,5.28-1.07,7.49
		c-1.52,4.84-4.42,7.89-8.66,9.12c-3.7,1.1-7.23,0.55-10.57-1.63c-3.56-2.33-5.32-5.63-5.32-9.87c0-3.31,0.83-6.14,2.48-8.5
		c1.65-2.35,3.85-4.11,6.61-5.28c2.76-1.17,5.46-2,8.1-2.48c2.63-0.5,5.46-0.8,8.43-0.9V510.38z M705.13,546.82
		c-0.71-0.9-2.63-1.48-5.77-1.78c-3.14-0.3-5.87-0.28-8.22,0.07c-2.53,0.3-5.14,1.03-7.82,2.23c-2.69,1.18-3.87,2.18-3.57,2.96
		l0.12,0.22l0.15,0.12l0.23,0.03H681c0.13,0,0.3-0.02,0.53-0.03c0.23-0.02,0.45-0.05,0.64-0.07c0.2-0.02,0.48-0.05,0.84-0.07
		c0.35-0.02,0.68-0.07,0.99-0.12c0.05,0,0.61-0.05,1.7-0.15c1.09-0.1,1.89-0.17,2.36-0.22c0.48-0.05,1.29-0.1,2.4-0.15
		c1.11-0.05,2-0.05,2.66,0c0.66,0.05,1.41,0.12,2.25,0.18c0.84,0.07,1.52,0.22,2.05,0.45c0.53,0.22,0.93,0.5,1.17,0.85
		c0.86,1.1,0.7,3.53-0.5,7.31c-1.19,3.78-2.32,6.79-3.37,9.02c-0.46,0.95-0.46,1.53,0,1.78c0.46,0.25,1.11,0.02,1.97-0.67
		c2.58-2.03,4.73-5.09,6.47-9.2c1.01-2.43,1.74-4.96,2.17-7.61C705.74,549.33,705.67,547.62,705.13,546.82z"/>
</g>
</svg>
