<svg width="41" height="42" viewBox="0 0 41 42" fill="none" xmlns="http://www.w3.org/2000/svg">
<path d="M29.671 23.0787C31.2004 23.0787 32.5463 22.2423 33.2397 20.9775L40.5401 7.73787C41.2947 6.39147 40.3158 4.71867 38.766 4.71867H8.58521L6.66832 0.638672H0V4.71867H4.07849L11.4198 20.2023L8.66678 25.1799C7.17813 27.9135 9.13581 31.2387 12.2355 31.2387H36.7064V27.1587H12.2355L14.4786 23.0787H29.671ZM10.5225 8.79867H35.2993L29.671 18.9987H15.3555L10.5225 8.79867ZM12.2355 33.2787C9.99229 33.2787 8.17736 35.1147 8.17736 37.3587C8.17736 39.6027 9.99229 41.4387 12.2355 41.4387C14.4786 41.4387 16.3139 39.6027 16.3139 37.3587C16.3139 35.1147 14.4786 33.2787 12.2355 33.2787ZM32.6279 33.2787C30.3847 33.2787 28.5698 35.1147 28.5698 37.3587C28.5698 39.6027 30.3847 41.4387 32.6279 41.4387C34.8711 41.4387 36.7064 39.6027 36.7064 37.3587C36.7064 35.1147 34.8711 33.2787 32.6279 33.2787Z" fill="#2D2B6F"/>
</svg>
