<svg width="16" height="15" viewBox="0 0 16 15" fill="none" xmlns="http://www.w3.org/2000/svg">
<g clip-path="url(#clip0_6146_71582)">
<path d="M1.20962 12.8549L1.91523 14.1337C2.06186 14.4029 2.27262 14.6145 2.52005 14.7683L5.04009 10.1914H0C0 10.4895 0.0733104 10.7876 0.219931 11.0568L1.20962 12.8549Z" fill="#0066DA"/>
<path d="M8 4.80739L5.47995 0.230469C5.23253 0.384315 5.02176 0.595853 4.87514 0.865084L0.219931 9.32662C0.076007 9.59005 0.000191627 9.88836 0 10.192H5.04009L8 4.80739Z" fill="#00AC47"/>
<path d="M13.4794 14.7683C13.7268 14.6145 13.9376 14.4029 14.0842 14.1337L14.3774 13.6049L15.7795 11.0568C15.9261 10.7876 15.9994 10.4895 15.9994 10.1914H10.959L12.0315 12.4029L13.4794 14.7683Z" fill="#EA4335"/>
<path d="M8.00052 4.80769L10.5206 0.230769C10.2731 0.0769231 9.98906 0 9.69582 0H6.30521C6.01197 0 5.72789 0.0865385 5.48047 0.230769L8.00052 4.80769Z" fill="#00832D"/>
<path d="M10.9594 10.1914H5.03958L2.51953 14.7683C2.76695 14.9222 3.05103 14.9991 3.34427 14.9991H12.6547C12.9479 14.9991 13.232 14.9126 13.4794 14.7683L10.9594 10.1914Z" fill="#2684FC"/>
<path d="M13.4525 5.09585L11.1249 0.865084C10.9782 0.595853 10.7675 0.384315 10.52 0.230469L8 4.80739L10.9599 10.192H15.9908C15.9908 9.89393 15.9175 9.59585 15.7709 9.32662L13.4525 5.09585Z" fill="#FFBA00"/>
</g>
<defs>
<clipPath id="clip0_6146_71582">
<rect width="16" height="15" fill="white"/>
</clipPath>
</defs>
</svg>
