<svg width="18" height="18" viewBox="0 0 18 18" fill="none" xmlns="http://www.w3.org/2000/svg">
<path d="M1.25 4.25H16.75V13.75H1.25V4.25Z" fill="white"/>
<path d="M1.25 4.25H16.75V5.5H1.25V4.25ZM1.25 6.5H16.75V7.5H1.25V6.5ZM1.25 8.5H16.75V9.5H1.25V8.5Z" fill="#D22F27"/>
<path d="M1.25 4.25H9.25V9.5H1.25V4.25Z" fill="#1E50A0"/>
<path d="M1.25 10.5H16.75V11.5H1.25V10.5Z" fill="#D22F27"/>
<path d="M2.375 5.9375C2.61662 5.9375 2.8125 5.74162 2.8125 5.5C2.8125 5.25838 2.61662 5.0625 2.375 5.0625C2.13338 5.0625 1.9375 5.25838 1.9375 5.5C1.9375 5.74162 2.13338 5.9375 2.375 5.9375Z" fill="white"/>
<path d="M4.375 5.9375C4.61662 5.9375 4.8125 5.74162 4.8125 5.5C4.8125 5.25838 4.61662 5.0625 4.375 5.0625C4.13338 5.0625 3.9375 5.25838 3.9375 5.5C3.9375 5.74162 4.13338 5.9375 4.375 5.9375Z" fill="white"/>
<path d="M6.375 5.9375C6.61662 5.9375 6.8125 5.74162 6.8125 5.5C6.8125 5.25838 6.61662 5.0625 6.375 5.0625C6.13338 5.0625 5.9375 5.25838 5.9375 5.5C5.9375 5.74162 6.13338 5.9375 6.375 5.9375Z" fill="white"/>
<path d="M8.375 5.9375C8.61663 5.9375 8.8125 5.74162 8.8125 5.5C8.8125 5.25838 8.61663 5.0625 8.375 5.0625C8.13338 5.0625 7.9375 5.25838 7.9375 5.5C7.9375 5.74162 8.13338 5.9375 8.375 5.9375Z" fill="white"/>
<path d="M7.375 6.9375C7.61663 6.9375 7.8125 6.74162 7.8125 6.5C7.8125 6.25838 7.61663 6.0625 7.375 6.0625C7.13338 6.0625 6.9375 6.25838 6.9375 6.5C6.9375 6.74162 7.13338 6.9375 7.375 6.9375Z" fill="white"/>
<path d="M5.375 6.9375C5.61662 6.9375 5.8125 6.74162 5.8125 6.5C5.8125 6.25838 5.61662 6.0625 5.375 6.0625C5.13338 6.0625 4.9375 6.25838 4.9375 6.5C4.9375 6.74162 5.13338 6.9375 5.375 6.9375Z" fill="white"/>
<path d="M3.375 6.9375C3.61662 6.9375 3.8125 6.74162 3.8125 6.5C3.8125 6.25838 3.61662 6.0625 3.375 6.0625C3.13338 6.0625 2.9375 6.25838 2.9375 6.5C2.9375 6.74162 3.13338 6.9375 3.375 6.9375Z" fill="white"/>
<path d="M2.375 7.9375C2.61662 7.9375 2.8125 7.74162 2.8125 7.5C2.8125 7.25838 2.61662 7.0625 2.375 7.0625C2.13338 7.0625 1.9375 7.25838 1.9375 7.5C1.9375 7.74162 2.13338 7.9375 2.375 7.9375Z" fill="white"/>
<path d="M4.375 7.9375C4.61662 7.9375 4.8125 7.74162 4.8125 7.5C4.8125 7.25838 4.61662 7.0625 4.375 7.0625C4.13338 7.0625 3.9375 7.25838 3.9375 7.5C3.9375 7.74162 4.13338 7.9375 4.375 7.9375Z" fill="white"/>
<path d="M6.375 7.9375C6.61662 7.9375 6.8125 7.74162 6.8125 7.5C6.8125 7.25838 6.61662 7.0625 6.375 7.0625C6.13338 7.0625 5.9375 7.25838 5.9375 7.5C5.9375 7.74162 6.13338 7.9375 6.375 7.9375Z" fill="white"/>
<path d="M8.375 7.9375C8.61663 7.9375 8.8125 7.74162 8.8125 7.5C8.8125 7.25838 8.61663 7.0625 8.375 7.0625C8.13338 7.0625 7.9375 7.25838 7.9375 7.5C7.9375 7.74162 8.13338 7.9375 8.375 7.9375Z" fill="white"/>
<path d="M7.375 8.9375C7.61663 8.9375 7.8125 8.74163 7.8125 8.5C7.8125 8.25838 7.61663 8.0625 7.375 8.0625C7.13338 8.0625 6.9375 8.25838 6.9375 8.5C6.9375 8.74163 7.13338 8.9375 7.375 8.9375Z" fill="white"/>
<path d="M5.375 8.9375C5.61662 8.9375 5.8125 8.74163 5.8125 8.5C5.8125 8.25838 5.61662 8.0625 5.375 8.0625C5.13338 8.0625 4.9375 8.25838 4.9375 8.5C4.9375 8.74163 5.13338 8.9375 5.375 8.9375Z" fill="white"/>
<path d="M3.375 8.9375C3.61662 8.9375 3.8125 8.74163 3.8125 8.5C3.8125 8.25838 3.61662 8.0625 3.375 8.0625C3.13338 8.0625 2.9375 8.25838 2.9375 8.5C2.9375 8.74163 3.13338 8.9375 3.375 8.9375Z" fill="white"/>
<path d="M1.25 12.5H16.75V13.75H1.25V12.5Z" fill="#D22F27"/>
<path d="M1.25 4.5C1.25 4.36193 1.36193 4.25 1.5 4.25H16.5C16.6381 4.25 16.75 4.36193 16.75 4.5V13.5C16.75 13.6381 16.6381 13.75 16.5 13.75H1.5C1.36193 13.75 1.25 13.6381 1.25 13.5V4.5Z" stroke="black" stroke-width="0.5" stroke-linecap="round" stroke-linejoin="round"/>
</svg>
