<svg width="14" height="14" viewBox="0 0 14 14" fill="none" xmlns="http://www.w3.org/2000/svg">
<path d="M6.99352 1.16602C3.77352 1.16602 1.16602 3.77935 1.16602 6.99935C1.16602 10.2193 3.77352 12.8327 6.99352 12.8327C10.2193 12.8327 12.8327 10.2193 12.8327 6.99935C12.8327 3.77935 10.2193 1.16602 6.99352 1.16602ZM6.99935 11.666C4.42102 11.666 2.33268 9.57768 2.33268 6.99935C2.33268 4.42102 4.42102 2.33268 6.99935 2.33268C9.57768 2.33268 11.666 4.42102 11.666 6.99935C11.666 9.57768 9.57768 11.666 6.99935 11.666ZM7.29102 4.08268H6.41602V7.58268L9.47852 9.42018L9.91602 8.70268L7.29102 7.14518V4.08268Z" fill="#808080"/>
</svg>
