<svg width="30" height="8" viewBox="0 0 30 8" fill="none" xmlns="http://www.w3.org/2000/svg">
<path d="M30 1.60429L29.3957 1L27 3.39571L24.6043 1L24 1.60429L26.3957 4L24 6.39571L24.6043 7L27 4.60429L29.3957 7L30 6.39571L27.6043 4L30 1.60429Z" fill="#B8B8B8"/>
<path d="M4.84375 5.19531C4.77344 5.79688 4.55078 6.26172 4.17578 6.58984C3.80339 6.91536 3.30729 7.07812 2.6875 7.07812C2.01562 7.07812 1.47656 6.83724 1.07031 6.35547C0.666667 5.8737 0.464844 5.22917 0.464844 4.42188V3.875C0.464844 3.34635 0.558594 2.88151 0.746094 2.48047C0.936198 2.07943 1.20443 1.77214 1.55078 1.55859C1.89714 1.34245 2.29818 1.23438 2.75391 1.23438C3.35807 1.23438 3.84245 1.40365 4.20703 1.74219C4.57161 2.07812 4.78385 2.54427 4.84375 3.14062H4.08984C4.02474 2.6875 3.88281 2.35938 3.66406 2.15625C3.44792 1.95312 3.14453 1.85156 2.75391 1.85156C2.27474 1.85156 1.89844 2.02865 1.625 2.38281C1.35417 2.73698 1.21875 3.24089 1.21875 3.89453V4.44531C1.21875 5.0625 1.34766 5.55339 1.60547 5.91797C1.86328 6.28255 2.22396 6.46484 2.6875 6.46484C3.10417 6.46484 3.42318 6.37109 3.64453 6.18359C3.86849 5.99349 4.01693 5.66406 4.08984 5.19531H4.84375ZM6.74297 7H6.02031V1H6.74297V7ZM9.85703 7.07812C9.28411 7.07812 8.81797 6.89062 8.45859 6.51562C8.09922 6.13802 7.91953 5.63411 7.91953 5.00391V4.87109C7.91953 4.45182 7.99896 4.07812 8.15781 3.75C8.31927 3.41927 8.54323 3.16146 8.82969 2.97656C9.11875 2.78906 9.43125 2.69531 9.76719 2.69531C10.3167 2.69531 10.7438 2.8763 11.0484 3.23828C11.3531 3.60026 11.5055 4.11849 11.5055 4.79297V5.09375H8.64219C8.6526 5.51042 8.7737 5.84766 9.00547 6.10547C9.23984 6.36068 9.53672 6.48828 9.89609 6.48828C10.1513 6.48828 10.3674 6.4362 10.5445 6.33203C10.7216 6.22786 10.8766 6.08984 11.0094 5.91797L11.4508 6.26172C11.0966 6.80599 10.5654 7.07812 9.85703 7.07812ZM9.76719 3.28906C9.47552 3.28906 9.23073 3.39583 9.03281 3.60938C8.8349 3.82031 8.7125 4.11719 8.66563 4.5H10.7828V4.44531C10.762 4.07812 10.663 3.79427 10.4859 3.59375C10.3089 3.39062 10.0693 3.28906 9.76719 3.28906ZM15.1547 7C15.113 6.91667 15.0792 6.76823 15.0531 6.55469C14.7172 6.90365 14.3161 7.07812 13.85 7.07812C13.4333 7.07812 13.0909 6.96094 12.8227 6.72656C12.557 6.48958 12.4242 6.1901 12.4242 5.82812C12.4242 5.38802 12.5909 5.04688 12.9242 4.80469C13.2602 4.5599 13.7315 4.4375 14.3383 4.4375H15.0414V4.10547C15.0414 3.85286 14.9659 3.65234 14.8148 3.50391C14.6638 3.35286 14.4411 3.27734 14.1469 3.27734C13.8891 3.27734 13.6729 3.34245 13.4984 3.47266C13.324 3.60286 13.2367 3.76042 13.2367 3.94531H12.5102C12.5102 3.73438 12.5844 3.53125 12.7328 3.33594C12.8839 3.13802 13.087 2.98177 13.3422 2.86719C13.6 2.7526 13.8826 2.69531 14.1898 2.69531C14.6768 2.69531 15.0583 2.81771 15.3344 3.0625C15.6104 3.30469 15.7536 3.63932 15.7641 4.06641V6.01172C15.7641 6.39974 15.8135 6.70833 15.9125 6.9375V7H15.1547ZM13.9555 6.44922C14.182 6.44922 14.3969 6.39062 14.6 6.27344C14.8031 6.15625 14.9503 6.00391 15.0414 5.81641V4.94922H14.475C13.5896 4.94922 13.1469 5.20833 13.1469 5.72656C13.1469 5.95312 13.2224 6.13021 13.3734 6.25781C13.5245 6.38542 13.7185 6.44922 13.9555 6.44922ZM19.1398 3.42188C19.0305 3.40365 18.912 3.39453 18.7844 3.39453C18.3104 3.39453 17.9888 3.59635 17.8195 4V7H17.0969V2.77344H17.8L17.8117 3.26172C18.0487 2.88411 18.3846 2.69531 18.8195 2.69531C18.9602 2.69531 19.0669 2.71354 19.1398 2.75V3.42188Z" fill="#808080"/>
</svg>
