<svg width="38" height="8" viewBox="0 0 38 8" fill="none" xmlns="http://www.w3.org/2000/svg">
<path d="M37.6974 4.30164L37.6974 3.69745L35.3021 3.69745L35.3021 1.3021H34.6979L34.6979 3.69745L32.3026 3.69745L32.3026 4.30164L34.6979 4.30164L34.6979 6.697H35.3021L35.3021 4.30164L37.6974 4.30164Z" fill="#B8B8B8"/>
<path d="M18.1508 5.51562H15.768L15.2328 7H14.4594L16.6313 1.3125H17.2875L19.4633 7H18.6938L18.1508 5.51562ZM15.9945 4.89844H17.9281L16.9594 2.23828L15.9945 4.89844ZM20.1398 4.85156C20.1398 4.20312 20.2935 3.68229 20.6008 3.28906C20.9081 2.89323 21.3104 2.69531 21.8078 2.69531C22.3026 2.69531 22.6945 2.86458 22.9836 3.20312V1H23.7062V7H23.0422L23.007 6.54688C22.718 6.90104 22.3156 7.07812 21.8 7.07812C21.3104 7.07812 20.9107 6.8776 20.6008 6.47656C20.2935 6.07552 20.1398 5.55208 20.1398 4.90625V4.85156ZM20.8625 4.93359C20.8625 5.41276 20.9615 5.78776 21.1594 6.05859C21.3573 6.32943 21.6307 6.46484 21.9797 6.46484C22.438 6.46484 22.7727 6.25911 22.9836 5.84766V3.90625C22.7674 3.50781 22.4354 3.30859 21.9875 3.30859C21.6333 3.30859 21.3573 3.44531 21.1594 3.71875C20.9615 3.99219 20.8625 4.39714 20.8625 4.93359ZM24.8555 4.85156C24.8555 4.20312 25.0091 3.68229 25.3164 3.28906C25.6237 2.89323 26.026 2.69531 26.5234 2.69531C27.0182 2.69531 27.4102 2.86458 27.6992 3.20312V1H28.4219V7H27.7578L27.7227 6.54688C27.4336 6.90104 27.0312 7.07812 26.5156 7.07812C26.026 7.07812 25.6263 6.8776 25.3164 6.47656C25.0091 6.07552 24.8555 5.55208 24.8555 4.90625V4.85156ZM25.5781 4.93359C25.5781 5.41276 25.6771 5.78776 25.875 6.05859C26.0729 6.32943 26.3464 6.46484 26.6953 6.46484C27.1536 6.46484 27.4883 6.25911 27.6992 5.84766V3.90625C27.4831 3.50781 27.151 3.30859 26.7031 3.30859C26.349 3.30859 26.0729 3.44531 25.875 3.71875C25.6771 3.99219 25.5781 4.39714 25.5781 4.93359Z" fill="#808080"/>
</svg>
