<svg width="22" height="22" viewBox="0 0 22 22" fill="none" xmlns="http://www.w3.org/2000/svg">
<path d="M2.91607 2.56641C2.67311 2.56641 2.44011 2.66292 2.26831 2.83472C2.09651 3.00651 2 3.23952 2 3.48248V7.75748C2 8.00044 2.09651 8.23344 2.26831 8.40524C2.44011 8.57703 2.67311 8.67355 2.91607 8.67355C3.15903 8.67355 3.39204 8.57703 3.56383 8.40524C3.73563 8.23344 3.83214 8.00044 3.83214 7.75748V5.69326L6.54371 8.40484C6.71737 8.56665 6.94706 8.65474 7.18438 8.65056C7.42171 8.64637 7.64814 8.55023 7.81598 8.38239C7.98382 8.21455 8.07996 7.98811 8.08415 7.75079C8.08834 7.51346 8.00024 7.28378 7.83843 7.11012L5.12686 4.39855H7.19107C7.43403 4.39855 7.66704 4.30203 7.83883 4.13024C8.01063 3.95844 8.10714 3.72544 8.10714 3.48248C8.10714 3.23952 8.01063 3.00651 7.83883 2.83472C7.66704 2.66292 7.43403 2.56641 7.19107 2.56641H2.91607ZM2.91607 19.6664C2.67311 19.6664 2.44011 19.5699 2.26831 19.3981C2.09651 19.2263 2 18.9933 2 18.7503V14.4753C2 14.2324 2.09651 13.9994 2.26831 13.8276C2.44011 13.6558 2.67311 13.5593 2.91607 13.5593C3.15903 13.5593 3.39204 13.6558 3.56383 13.8276C3.73563 13.9994 3.83214 14.2324 3.83214 14.4753V16.5395L6.54371 13.828C6.71737 13.6662 6.94706 13.5781 7.18438 13.5823C7.42171 13.5864 7.64814 13.6826 7.81598 13.8504C7.98382 14.0183 8.07996 14.2447 8.08415 14.482C8.08834 14.7194 8.00024 14.949 7.83843 15.1227L5.12686 17.8343H7.19107C7.43403 17.8343 7.66704 17.9308 7.83883 18.1026C8.01063 18.2744 8.10714 18.5074 8.10714 18.7503C8.10714 18.9933 8.01063 19.2263 7.83883 19.3981C7.66704 19.5699 7.43403 19.6664 7.19107 19.6664H2.91607ZM19.1 3.48248C19.1 3.23952 19.0035 3.00651 18.8317 2.83472C18.6599 2.66292 18.4269 2.56641 18.1839 2.56641H13.9089C13.666 2.56641 13.433 2.66292 13.2612 2.83472C13.0894 3.00651 12.9929 3.23952 12.9929 3.48248C12.9929 3.72544 13.0894 3.95844 13.2612 4.13024C13.433 4.30203 13.666 4.39855 13.9089 4.39855H15.9731L13.2616 7.11012C13.0998 7.28378 13.0117 7.51346 13.0159 7.75079C13.02 7.98811 13.1162 8.21455 13.284 8.38239C13.4519 8.55023 13.6783 8.64637 13.9156 8.65056C14.1529 8.65474 14.3826 8.56665 14.5563 8.40484L17.2679 5.69326V7.75748C17.2679 8.00044 17.3644 8.23344 17.5362 8.40524C17.708 8.57703 17.941 8.67355 18.1839 8.67355C18.4269 8.67355 18.6599 8.57703 18.8317 8.40524C19.0035 8.23344 19.1 8.00044 19.1 7.75748V3.48248ZM18.1839 19.6664C18.4269 19.6664 18.6599 19.5699 18.8317 19.3981C19.0035 19.2263 19.1 18.9933 19.1 18.7503V14.4753C19.1 14.2324 19.0035 13.9994 18.8317 13.8276C18.6599 13.6558 18.4269 13.5593 18.1839 13.5593C17.941 13.5593 17.708 13.6558 17.5362 13.8276C17.3644 13.9994 17.2679 14.2324 17.2679 14.4753V16.5395L14.5563 13.828C14.4724 13.738 14.3713 13.6658 14.2589 13.6157C14.1465 13.5656 14.0252 13.5387 13.9022 13.5366C13.7792 13.5344 13.6571 13.557 13.543 13.6031C13.4289 13.6492 13.3253 13.7177 13.2383 13.8047C13.1513 13.8917 13.0828 13.9953 13.0367 14.1094C12.9906 14.2235 12.968 14.3456 12.9701 14.4686C12.9723 14.5916 12.9992 14.713 13.0493 14.8253C13.0994 14.9377 13.1716 15.0388 13.2616 15.1227L15.9731 17.8343H13.9089C13.666 17.8343 13.433 17.9308 13.2612 18.1026C13.0894 18.2744 12.9929 18.5074 12.9929 18.7503C12.9929 18.9933 13.0894 19.2263 13.2612 19.3981C13.433 19.5699 13.666 19.6664 13.9089 19.6664H18.1839Z" fill="#7F7F7F"/>
</svg>
