<svg width="15" height="15" viewBox="0 0 15 15" fill="none" xmlns="http://www.w3.org/2000/svg">
<path d="M1.69073 4.01817C2.62449 4.01817 3.38145 3.26121 3.38145 2.32745C3.38145 1.39368 2.62449 0.636719 1.69073 0.636719C0.756964 0.636719 0 1.39368 0 2.32745C0 3.26121 0.756964 4.01817 1.69073 4.01817Z" fill="#A900A6"/>
<path d="M4.97827 5.29432V14.6745H7.89068V10.0358C7.89068 8.81177 8.12095 7.62641 9.63859 7.62641C11.1354 7.62641 11.1539 9.02582 11.1539 10.113V14.6752H14.0679V9.53118C14.0679 7.00436 13.5239 5.0625 10.5705 5.0625C9.15254 5.0625 8.20209 5.84064 7.81341 6.57705H7.774V5.29432H4.97827ZM0.232178 5.29432H3.14922V14.6745H0.232178V5.29432Z" fill="#A900A6"/>
</svg>
