<svg width="47" height="47" viewBox="0 0 47 47" fill="none" xmlns="http://www.w3.org/2000/svg">
<g clip-path="url(#clip0_5904_71633)">
<mask id="path-1-inside-1_5904_71633" fill="white">
<path d="M32.3125 2.9375C33.0916 2.9375 33.8387 3.24699 34.3896 3.79787C34.9405 4.34876 35.25 5.09593 35.25 5.875V41.125C35.25 41.9041 34.9405 42.6512 34.3896 43.2021C33.8387 43.753 33.0916 44.0625 32.3125 44.0625H14.6875C13.9084 44.0625 13.1613 43.753 12.6104 43.2021C12.0595 42.6512 11.75 41.9041 11.75 41.125V5.875C11.75 5.09593 12.0595 4.34876 12.6104 3.79787C13.1613 3.24699 13.9084 2.9375 14.6875 2.9375H32.3125ZM14.6875 0C13.1294 0 11.635 0.618972 10.5332 1.72075C9.43147 2.82252 8.8125 4.31685 8.8125 5.875V41.125C8.8125 42.6831 9.43147 44.1775 10.5332 45.2793C11.635 46.381 13.1294 47 14.6875 47H32.3125C33.8706 47 35.365 46.381 36.4668 45.2793C37.5685 44.1775 38.1875 42.6831 38.1875 41.125V5.875C38.1875 4.31685 37.5685 2.82252 36.4668 1.72075C35.365 0.618972 33.8706 0 32.3125 0L14.6875 0Z"/>
</mask>
<path d="M32.3125 2.9375C33.0916 2.9375 33.8387 3.24699 34.3896 3.79787C34.9405 4.34876 35.25 5.09593 35.25 5.875V41.125C35.25 41.9041 34.9405 42.6512 34.3896 43.2021C33.8387 43.753 33.0916 44.0625 32.3125 44.0625H14.6875C13.9084 44.0625 13.1613 43.753 12.6104 43.2021C12.0595 42.6512 11.75 41.9041 11.75 41.125V5.875C11.75 5.09593 12.0595 4.34876 12.6104 3.79787C13.1613 3.24699 13.9084 2.9375 14.6875 2.9375H32.3125ZM14.6875 0C13.1294 0 11.635 0.618972 10.5332 1.72075C9.43147 2.82252 8.8125 4.31685 8.8125 5.875V41.125C8.8125 42.6831 9.43147 44.1775 10.5332 45.2793C11.635 46.381 13.1294 47 14.6875 47H32.3125C33.8706 47 35.365 46.381 36.4668 45.2793C37.5685 44.1775 38.1875 42.6831 38.1875 41.125V5.875C38.1875 4.31685 37.5685 2.82252 36.4668 1.72075C35.365 0.618972 33.8706 0 32.3125 0L14.6875 0Z" fill="black"/>
<path d="M14.6875 0V-4V0ZM8.8125 5.875H4.8125H8.8125ZM8.8125 41.125H4.8125H8.8125ZM32.3125 6.9375C32.0307 6.9375 31.7605 6.82556 31.5612 6.6263L37.2181 0.969447C35.917 -0.331587 34.1524 -1.0625 32.3125 -1.0625V6.9375ZM31.5612 6.6263C31.3619 6.42704 31.25 6.15679 31.25 5.875H39.25C39.25 4.03506 38.5191 2.27048 37.2181 0.969447L31.5612 6.6263ZM31.25 5.875V41.125H39.25V5.875H31.25ZM31.25 41.125C31.25 40.8432 31.3619 40.573 31.5612 40.3737L37.2181 46.0306C38.5191 44.7295 39.25 42.9649 39.25 41.125H31.25ZM31.5612 40.3737C31.7605 40.1744 32.0307 40.0625 32.3125 40.0625V48.0625C34.1524 48.0625 35.917 47.3316 37.2181 46.0306L31.5612 40.3737ZM32.3125 40.0625H14.6875V48.0625H32.3125V40.0625ZM14.6875 40.0625C14.9693 40.0625 15.2395 40.1744 15.4388 40.3737L9.78195 46.0306C11.083 47.3316 12.8476 48.0625 14.6875 48.0625V40.0625ZM15.4388 40.3737C15.6381 40.573 15.75 40.8432 15.75 41.125H7.75C7.75 42.9649 8.48092 44.7295 9.78195 46.0306L15.4388 40.3737ZM15.75 41.125V5.875H7.75V41.125H15.75ZM15.75 5.875C15.75 6.15679 15.6381 6.42704 15.4388 6.6263L9.78195 0.969447C8.48091 2.27048 7.75 4.03506 7.75 5.875H15.75ZM15.4388 6.6263C15.2395 6.82556 14.9693 6.9375 14.6875 6.9375V-1.0625C12.8476 -1.0625 11.083 -0.331587 9.78195 0.969447L15.4388 6.6263ZM14.6875 6.9375H32.3125V-1.0625H14.6875V6.9375ZM14.6875 -4C12.0685 -4 9.55674 -2.9596 7.70482 -1.10768L13.3617 4.54917C13.7133 4.19754 14.1902 4 14.6875 4V-4ZM7.70482 -1.10768C5.8529 0.744243 4.8125 3.25599 4.8125 5.875H12.8125C12.8125 5.37772 13.01 4.90081 13.3617 4.54917L7.70482 -1.10768ZM4.8125 5.875V41.125H12.8125V5.875H4.8125ZM4.8125 41.125C4.8125 43.744 5.8529 46.2558 7.70482 48.1077L13.3617 42.4508C13.01 42.0992 12.8125 41.6223 12.8125 41.125H4.8125ZM7.70482 48.1077C9.55674 49.9596 12.0685 51 14.6875 51V43C14.1902 43 13.7133 42.8025 13.3617 42.4508L7.70482 48.1077ZM14.6875 51H32.3125V43H14.6875V51ZM32.3125 51C34.9315 51 37.4433 49.9596 39.2952 48.1077L33.6383 42.4508C33.2867 42.8025 32.8098 43 32.3125 43V51ZM39.2952 48.1077C41.1471 46.2558 42.1875 43.744 42.1875 41.125H34.1875C34.1875 41.6223 33.99 42.0992 33.6383 42.4508L39.2952 48.1077ZM42.1875 41.125V5.875H34.1875V41.125H42.1875ZM42.1875 5.875C42.1875 3.25599 41.1471 0.744241 39.2952 -1.10768L33.6383 4.54917C33.99 4.90081 34.1875 5.37772 34.1875 5.875H42.1875ZM39.2952 -1.10768C37.4433 -2.9596 34.9315 -4 32.3125 -4V4C32.8098 4 33.2867 4.19754 33.6383 4.54917L39.2952 -1.10768ZM32.3125 -4H14.6875V4H32.3125V-4Z" fill="black" mask="url(#path-1-inside-1_5904_71633)"/>
<path d="M24.1629 38.8504C23.9871 39.0262 23.7486 39.125 23.5 39.125C23.2514 39.125 23.0129 39.0262 22.8371 38.8504C22.6613 38.6746 22.5625 38.4361 22.5625 38.1875C22.5625 37.9389 22.6613 37.7004 22.8371 37.5246C23.0129 37.3488 23.2514 37.25 23.5 37.25C23.7486 37.25 23.9871 37.3488 24.1629 37.5246C24.3387 37.7004 24.4375 37.9389 24.4375 38.1875C24.4375 38.4361 24.3387 38.6746 24.1629 38.8504Z" fill="black" stroke="black" stroke-width="4"/>
</g>
<defs>
<clipPath id="clip0_5904_71633">
<rect width="47" height="47" fill="white"/>
</clipPath>
</defs>
</svg>
