<svg width="17" height="20" viewBox="0 0 17 20" fill="none" xmlns="http://www.w3.org/2000/svg">
<path d="M14.1667 14.1365C13.4489 14.1365 12.8067 14.4378 12.3156 14.9096L5.58167 10.743C5.62889 10.512 5.66667 10.2811 5.66667 10.0402C5.66667 9.7992 5.62889 9.56827 5.58167 9.33735L12.24 5.21084C12.75 5.71285 13.4206 6.0241 14.1667 6.0241C15.7344 6.0241 17 4.67871 17 3.01205C17 1.34538 15.7344 0 14.1667 0C12.5989 0 11.3333 1.34538 11.3333 3.01205C11.3333 3.25301 11.3711 3.48394 11.4183 3.71486L4.76 7.84137C4.25 7.33936 3.57944 7.02811 2.83333 7.02811C1.26556 7.02811 0 8.37349 0 10.0402C0 11.7068 1.26556 13.0522 2.83333 13.0522C3.57944 13.0522 4.25 12.741 4.76 12.239L11.4844 16.4157C11.4372 16.6265 11.4089 16.8474 11.4089 17.0683C11.4089 18.6847 12.6461 20 14.1667 20C15.6872 20 16.9244 18.6847 16.9244 17.0683C16.9244 15.4518 15.6872 14.1365 14.1667 14.1365Z" fill="#2D2B6F"/>
</svg>
