<svg width="36" height="32" viewBox="0 0 36 32" fill="none" xmlns="http://www.w3.org/2000/svg">
<path d="M1.1502 9.44481e-05C0.984482 -0.00204296 0.8203 0.0321213 0.669187 0.100189C0.518073 0.168257 0.383691 0.268577 0.275475 0.394107C0.16726 0.519638 0.0878338 0.667334 0.042774 0.826828C-0.00228568 0.986321 -0.0118868 1.15374 0.0146448 1.31734L4.83509 30.5807C4.89515 30.9388 5.07947 31.2643 5.35567 31.5C5.63188 31.7357 5.9823 31.8666 6.34539 31.8696H29.4711C29.7432 31.8731 30.0076 31.7787 30.2161 31.6036C30.4245 31.4285 30.5631 31.1844 30.6066 30.9157L35.4271 1.32302C35.4536 1.15942 35.444 0.991999 35.3989 0.832506C35.3539 0.673012 35.2745 0.525316 35.1662 0.399785C35.058 0.274255 34.9236 0.173934 34.7725 0.105867C34.6214 0.0377992 34.4572 0.00363469 34.2915 0.0057721L1.1502 9.44481e-05ZM21.4483 21.1499H14.0672L12.0686 10.7084H23.2368L21.4483 21.1499Z" fill="#2684FF"/>
<path d="M33.8938 10.707H23.2366L21.4481 21.1485H14.067L5.35156 31.4935C5.6278 31.7323 5.98 31.8651 6.34518 31.8682H29.4765C29.7487 31.8717 30.0131 31.7773 30.2215 31.6022C30.4299 31.4271 30.5686 31.183 30.6121 30.9143L33.8938 10.707Z" fill="url(#paint0_linear_11196_71017)"/>
<defs>
<linearGradient id="paint0_linear_11196_71017" x1="36.358" y1="13.6311" x2="18.7455" y2="27.377" gradientUnits="userSpaceOnUse">
<stop offset="0.18" stop-color="#0052CC"/>
<stop offset="1" stop-color="#2684FF"/>
</linearGradient>
</defs>
</svg>
