<svg width="24" height="24" viewBox="0 0 24 24" fill="none" xmlns="http://www.w3.org/2000/svg">
<path d="M4 13C5.1 13 6 12.1 6 11C6 9.9 5.1 9 4 9C2.9 9 2 9.9 2 11C2 12.1 2.9 13 4 13ZM4.8101 14.7564C4.93865 14.4291 4.75527 14.0377 4.40438 14.0139C4.27148 14.0049 4.13697 14 4 14C3.01 14 2.07 14.21 1.22 14.58C0.48 14.9 0 15.62 0 16.43V17.5C0 17.7761 0.223858 18 0.5 18H4C4.27614 18 4.5 17.7761 4.5 17.5V16.39C4.5 15.8161 4.60998 15.266 4.8101 14.7564ZM20 13C21.1 13 22 12.1 22 11C22 9.9 21.1 9 20 9C18.9 9 18 9.9 18 11C18 12.1 18.9 13 20 13ZM24 16.43C24 15.62 23.52 14.9 22.78 14.58C21.93 14.21 20.99 14 20 14C19.863 14 19.7285 14.0049 19.5956 14.0139C19.2447 14.0377 19.0613 14.4291 19.1899 14.7564C19.39 15.266 19.5 15.8161 19.5 16.39V17.5C19.5 17.7761 19.7239 18 20 18H23.5C23.7761 18 24 17.7761 24 17.5V16.43ZM16.24 13.65C15.07 13.13 13.63 12.75 12 12.75C10.37 12.75 8.93 13.14 7.76 13.65C6.68 14.13 6 15.21 6 16.39V17C6 17.5523 6.44772 18 7 18H17C17.5523 18 18 17.5523 18 17V16.39C18 15.21 17.32 14.13 16.24 13.65ZM8.07 16C8.16 15.77 8.2 15.61 8.98 15.31C9.95 14.93 10.97 14.75 12 14.75C13.03 14.75 14.05 14.93 15.02 15.31C15.79 15.61 15.83 15.77 15.93 16H8.07ZM12 8C12.55 8 13 8.45 13 9C13 9.55 12.55 10 12 10C11.45 10 11 9.55 11 9C11 8.45 11.45 8 12 8ZM12 6C10.34 6 9 7.34 9 9C9 10.66 10.34 12 12 12C13.66 12 15 10.66 15 9C15 7.34 13.66 6 12 6Z" fill="#605F92" fill-opacity="0.7"/>
</svg>
