<?xml version="1.0" encoding="utf-8"?>
<!-- Generator: Adobe Illustrator 26.2.1, SVG Export Plug-In . SVG Version: 6.00 Build 0)  -->
<svg version="1.1" id="Layer_1" xmlns="http://www.w3.org/2000/svg" xmlns:xlink="http://www.w3.org/1999/xlink" x="0px" y="0px"
	 viewBox="0 0 1280 1024" style="enable-background:new 0 0 1280 1024;" xml:space="preserve">
<style type="text/css">
	.st0{fill-rule:evenodd;clip-rule:evenodd;fill:#6E46BE;}
</style>
<g>
	<path class="st0" d="M641.9,493.85c8.87-12.04,18.68-21.52,31.23-21.52c23.68,0,43.19,30.25,43.2,66.26
		c0,21.97-9.43,35.74-26.36,35.74c-14.75,0-22.9-8.31-37.52-32.85l-6.38-10.77l-1.13-1.89c-1.66-2.82-3.35-5.62-5.07-8.41
		l-11.26,19.95c-16,28.06-25,33.97-37.51,33.97c-17.38,0-27.77-13.58-27.77-35.1c0-34.39,19.08-66.9,43.97-66.9
		c3.05,0,5.98,0.37,8.84,1.17c2.96,0.83,5.84,2.11,8.73,3.9C630.38,480.85,635.9,486.19,641.9,493.85z M656.4,515.19
		c-2.41-3.93-4.72-7.55-6.95-10.87l-0.06-0.08c8.08-12.52,14.75-18.75,22.68-18.75c16.47,0,29.66,24.34,29.66,54.23
		c0,11.4-3.73,18.01-11.43,18.01c-7.39,0-10.92-4.89-24.96-27.53L656.4,515.19L656.4,515.19z M609.67,489.18
		c6.93,0.96,13.24,6.08,22.37,19.2c-5.27,8.09-10.48,16.23-15.63,24.4c-12.98,20.4-17.46,24.97-24.68,24.97
		c-7.43,0-11.86-6.54-11.86-18.23c0-24.96,12.41-50.5,27.21-50.5C607.96,489.02,608.82,489.07,609.67,489.18L609.67,489.18z"/>
</g>
</svg>
