<svg width="25" height="25" viewBox="0 0 25 25" fill="none" xmlns="http://www.w3.org/2000/svg">
<g clip-path="url(#clip0_12540_72556)">
<path d="M11.538 22.1172C12.5957 22.1172 13.4611 21.2518 13.4611 20.1941H9.61493C9.61493 21.2518 10.4803 22.1172 11.538 22.1172ZM17.3072 16.348V11.5403C17.3072 8.58834 15.7399 6.11719 12.9803 5.46334V4.8095C12.9803 4.01142 12.3361 3.36719 11.538 3.36719C10.7399 3.36719 10.0957 4.01142 10.0957 4.8095V5.46334C7.3457 6.11719 5.76878 8.57873 5.76878 11.5403V16.348L3.8457 18.271V19.2326H19.2303V18.271L17.3072 16.348ZM15.3842 17.3095H7.69186V11.5403C7.69186 9.15565 9.14378 7.21334 11.538 7.21334C13.9322 7.21334 15.3842 9.15565 15.3842 11.5403V17.3095Z" fill="#2D2B6F"/>
</g>
<circle cx="22.1151" cy="2.88462" r="2.88462" fill="#C711C3"/>
<defs>
<clipPath id="clip0_12540_72556">
<rect width="23.0769" height="23.0769" fill="white" transform="translate(0 0.962891)"/>
</clipPath>
</defs>
</svg>
