<?xml version="1.0" encoding="utf-8"?>
<!-- Generator: Adobe Illustrator 26.2.1, SVG Export Plug-In . SVG Version: 6.00 Build 0)  -->
<svg version="1.1" id="Layer_1" xmlns="http://www.w3.org/2000/svg" xmlns:xlink="http://www.w3.org/1999/xlink" x="0px" y="0px"
	 viewBox="0 0 1280 1024" style="enable-background:new 0 0 1280 1024;" xml:space="preserve">
<style type="text/css">
	.st0{fill:#6E46BE;}
</style>
<g>
	<path class="st0" d="M677.28,515.92c-0.06-10.98,4.89-19.26,14.89-25.37c-5.59-8.05-14.05-12.48-25.2-13.33
		c-10.56-0.84-22.11,6.18-26.34,6.18c-4.47,0-14.69-5.89-22.74-5.89c-16.6,0.26-34.24,13.3-34.24,39.84
		c0,7.84,1.43,15.94,4.28,24.29c3.81,10.98,17.56,37.9,31.9,37.46c7.5-0.18,12.8-5.35,22.56-5.35c9.47,0,14.37,5.35,22.74,5.35
		c14.47-0.21,26.9-24.67,30.52-35.69C676.24,534.22,677.28,516.49,677.28,515.92z M660.44,466.8c8.12-9.7,7.39-18.52,7.15-21.69
		c-7.18,0.42-15.48,4.91-20.2,10.44c-5.21,5.93-8.27,13.25-7.61,21.52C647.53,477.66,654.61,473.65,660.44,466.8z"/>
</g>
</svg>
