<svg width="67" height="67" viewBox="0 0 67 67" fill="none" xmlns="http://www.w3.org/2000/svg">
<path d="M7.67671 46.0612H59.3225C59.8528 46.0621 60.3629 46.2641 60.75 46.6265C61.1371 46.9888 61.3723 47.4846 61.4081 48.0136C61.4439 48.5427 61.2776 49.0656 60.9429 49.4768C60.6081 49.888 60.1298 50.1569 59.6045 50.2292L59.3225 50.2487H7.6795C7.14524 50.2541 6.62911 50.0551 6.23681 49.6924C5.84451 49.3297 5.60571 48.8307 5.56932 48.2977C5.53293 47.7646 5.70169 47.2378 6.04106 46.8252C6.38042 46.4125 6.86471 46.1452 7.39475 46.078L7.6795 46.0612H59.3198H7.6795H7.67671ZM50.9475 13.957C53.6443 13.957 55.833 16.1457 55.833 18.8424V39.78C55.833 41.0756 55.3182 42.3183 54.4021 43.2345C53.4859 44.1507 52.2432 44.6654 50.9475 44.6654H16.0517C14.756 44.6654 13.5134 44.1507 12.5972 43.2345C11.681 42.3183 11.1663 41.0756 11.1663 39.78V18.8424C11.1663 16.1457 13.3522 13.957 16.0517 13.957H50.9475ZM50.9475 18.1445H16.0517C15.8666 18.1445 15.6891 18.2181 15.5582 18.3489C15.4273 18.4798 15.3538 18.6573 15.3538 18.8424V39.78C15.3538 40.1652 15.6665 40.4779 16.0517 40.4779H50.9475C51.1326 40.4779 51.3102 40.4043 51.441 40.2735C51.5719 40.1426 51.6455 39.965 51.6455 39.78V18.8424C51.6455 18.6573 51.5719 18.4798 51.441 18.3489C51.3102 18.2181 51.1326 18.1445 50.9475 18.1445Z" fill="black"/>
</svg>
