<svg width="25" height="8" viewBox="0 0 25 8" fill="none" xmlns="http://www.w3.org/2000/svg">
<path d="M5.12656 6.38672V7H2.11484V6.38672H5.12656ZM2.26719 1.3125V7H1.51328V1.3125H2.26719ZM4.72812 3.75781V4.37109H2.11484V3.75781H4.72812ZM5.0875 1.3125V1.92969H2.11484V1.3125H5.0875ZM8.73672 6.17969V1H9.46328V7H8.79922L8.73672 6.17969ZM5.89297 4.93359V4.85156C5.89297 4.52865 5.93203 4.23568 6.01016 3.97266C6.09088 3.70703 6.20417 3.47917 6.35 3.28906C6.49844 3.09896 6.67422 2.95312 6.87734 2.85156C7.08307 2.7474 7.31224 2.69531 7.56484 2.69531C7.83047 2.69531 8.06224 2.74219 8.26016 2.83594C8.46068 2.92708 8.62995 3.0612 8.76797 3.23828C8.90859 3.41276 9.01927 3.6237 9.1 3.87109C9.18073 4.11849 9.23672 4.39844 9.26797 4.71094V5.07031C9.23932 5.38021 9.18333 5.65885 9.1 5.90625C9.01927 6.15365 8.90859 6.36458 8.76797 6.53906C8.62995 6.71354 8.46068 6.84766 8.26016 6.94141C8.05963 7.03255 7.82526 7.07812 7.55703 7.07812C7.30963 7.07812 7.08307 7.02474 6.87734 6.91797C6.67422 6.8112 6.49844 6.66146 6.35 6.46875C6.20417 6.27604 6.09088 6.04948 6.01016 5.78906C5.93203 5.52604 5.89297 5.24089 5.89297 4.93359ZM6.61953 4.85156V4.93359C6.61953 5.14453 6.64036 5.34245 6.68203 5.52734C6.7263 5.71224 6.79401 5.875 6.88516 6.01562C6.9763 6.15625 7.09219 6.26693 7.23281 6.34766C7.37344 6.42578 7.54141 6.46484 7.73672 6.46484C7.9763 6.46484 8.17292 6.41406 8.32656 6.3125C8.48281 6.21094 8.60781 6.07682 8.70156 5.91016C8.79531 5.74349 8.86823 5.5625 8.92031 5.36719V4.42578C8.88906 4.28255 8.84349 4.14453 8.78359 4.01172C8.7263 3.8763 8.65078 3.75651 8.55703 3.65234C8.46588 3.54557 8.3526 3.46094 8.21719 3.39844C8.08437 3.33594 7.92682 3.30469 7.74453 3.30469C7.54661 3.30469 7.37604 3.34635 7.23281 3.42969C7.09219 3.51042 6.9763 3.6224 6.88516 3.76562C6.79401 3.90625 6.7263 4.07031 6.68203 4.25781C6.64036 4.44271 6.61953 4.64062 6.61953 4.85156ZM11.5734 2.77344V7H10.8469V2.77344H11.5734ZM10.7922 1.65234C10.7922 1.53516 10.8273 1.4362 10.8977 1.35547C10.9706 1.27474 11.0773 1.23438 11.218 1.23438C11.356 1.23438 11.4615 1.27474 11.5344 1.35547C11.6099 1.4362 11.6477 1.53516 11.6477 1.65234C11.6477 1.76432 11.6099 1.86068 11.5344 1.94141C11.4615 2.01953 11.356 2.05859 11.218 2.05859C11.0773 2.05859 10.9706 2.01953 10.8977 1.94141C10.8273 1.86068 10.7922 1.76432 10.7922 1.65234ZM14.7031 2.77344V3.32812H12.418V2.77344H14.7031ZM13.1914 1.74609H13.9141V5.95312C13.9141 6.09635 13.9362 6.20443 13.9805 6.27734C14.0247 6.35026 14.082 6.39844 14.1523 6.42188C14.2227 6.44531 14.2982 6.45703 14.3789 6.45703C14.4388 6.45703 14.5013 6.45182 14.5664 6.44141C14.6341 6.42839 14.6849 6.41797 14.7188 6.41016L14.7227 7C14.6654 7.01823 14.5898 7.03516 14.4961 7.05078C14.4049 7.06901 14.2943 7.07812 14.1641 7.07812C13.987 7.07812 13.8242 7.04297 13.6758 6.97266C13.5273 6.90234 13.4089 6.78516 13.3203 6.62109C13.2344 6.45443 13.1914 6.23047 13.1914 5.94922V1.74609Z" fill="#808080"/>
<path d="M18.4468 5.34027L22.5486 1.23813C22.7107 1.08306 22.927 0.9976 23.1513 1.00005C23.3756 1.0025 23.59 1.09267 23.7486 1.25125C23.9072 1.40983 23.9974 1.62421 23.9999 1.84849C24.0025 2.07277 23.9171 2.28912 23.762 2.45121L19.6596 6.55335C19.566 6.64694 19.4468 6.71074 19.317 6.7367L18 7.00016L18.2635 5.68284C18.2894 5.55305 18.3532 5.43386 18.4468 5.34027V5.34027Z" stroke="#B8B8B8" stroke-width="0.5" stroke-linecap="round" stroke-linejoin="round"/>
<path d="M21.8549 2.14062L22.8604 3.14621" stroke="#B8B8B8" stroke-width="0.5"/>
</svg>
