<svg width="15" height="15" viewBox="0 0 15 15" fill="none" xmlns="http://www.w3.org/2000/svg">
<path d="M14.9989 8.07061C14.9989 7.48766 14.9506 7.06225 14.8461 6.62109H8.05273V9.25228H12.0403C11.9599 9.90617 11.5258 10.8909 10.561 11.5526L10.5475 11.6407L12.6955 13.2712L12.8443 13.2858C14.211 12.0489 14.9989 10.2291 14.9989 8.07061Z" fill="#A900A6"/>
<path d="M8.05363 14.9925C10.0072 14.9925 11.6473 14.3623 12.8452 13.2752L10.5619 11.542C9.95095 11.9595 9.1309 12.251 8.05363 12.251C6.14024 12.251 4.51627 11.0142 3.93737 9.30469L3.85252 9.31175L1.61905 11.0055L1.58984 11.0851C2.77968 13.4012 5.2237 14.9925 8.05363 14.9925Z" fill="#A900A6"/>
<path d="M3.93742 9.31087C3.78467 8.86971 3.69627 8.397 3.69627 7.9086C3.69627 7.42014 3.78467 6.94748 3.92938 6.50632L3.92534 6.41237L1.66388 4.69141L1.58989 4.72589C1.0995 5.68701 0.818115 6.7663 0.818115 7.9086C0.818115 9.05089 1.0995 10.1301 1.58989 11.0912L3.93742 9.31087Z" fill="#A900A6"/>
<path d="M8.05365 3.5579C9.4123 3.5579 10.3288 4.13298 10.8514 4.61356L12.8934 2.65983C11.6393 1.51754 10.0072 0.816406 8.05365 0.816406C5.22371 0.816406 2.77968 2.40773 1.58984 4.72381L3.92934 6.50424C4.51628 4.79474 6.14025 3.5579 8.05365 3.5579Z" fill="#A900A6"/>
</svg>
