<svg width="32" height="32" viewBox="0 0 32 32" fill="none" xmlns="http://www.w3.org/2000/svg">
<path fill-rule="evenodd" clip-rule="evenodd" d="M27.3043 4.69674C21.0514 -1.55684 10.9199 -1.56691 4.6791 4.67458C-1.56574 10.9221 -1.55969 21.0507 4.69722 27.3043C10.9501 33.5579 21.0836 33.5659 27.3224 27.3244C33.5652 21.0829 33.5592 10.9503 27.3043 4.69674ZM19.243 22.7304L15.8437 19.3307L12.4444 22.7304C11.0568 24.1181 10.0137 25.3265 8.35834 23.673C6.70701 22.0194 7.90926 20.9762 9.30281 19.5865L12.7021 16.1888L9.30281 12.7891C7.91328 11.4015 6.70701 10.3582 8.35834 8.70265C10.0137 7.05114 11.0568 8.25755 12.4444 9.64723L15.8437 13.0429L19.243 9.64723C20.6325 8.25956 21.6696 7.04913 23.325 8.70265C24.9803 10.3582 23.7741 11.4015 22.3845 12.7891L18.9852 16.1868L22.3845 19.5845C23.7721 20.9762 24.9803 22.0194 23.325 23.673C21.6737 25.3265 20.6325 24.1181 19.243 22.7304Z" fill="#F16D62"/>
</svg>
