<svg width="603" height="402" viewBox="0 0 603 402" fill="none" xmlns="http://www.w3.org/2000/svg">
<path d="M343.028 127.983V224.643C343.028 227.787 340.696 230.325 337.823 230.325H172.667C169.794 230.325 167.462 227.774 167.462 224.643V127.983C167.462 124.839 169.794 122.301 172.667 122.301H337.835C340.696 122.288 343.028 124.839 343.028 127.983Z" fill="#E9F2FF"/>
<path d="M343.028 127.983V132.905H167.462V127.983C167.462 124.839 169.794 122.301 172.667 122.301H337.835C340.696 122.288 343.028 124.839 343.028 127.983Z" fill="#BAC9D6"/>
<path d="M172.32 129.231C173.216 129.231 173.943 128.504 173.943 127.608C173.943 126.711 173.216 125.984 172.32 125.984C171.423 125.984 170.696 126.711 170.696 127.608C170.696 128.504 171.423 129.231 172.32 129.231Z" fill="#939393"/>
<path d="M178.014 129.231C178.911 129.231 179.638 128.504 179.638 127.608C179.638 126.711 178.911 125.984 178.014 125.984C177.117 125.984 176.391 126.711 176.391 127.608C176.391 128.504 177.117 129.231 178.014 129.231Z" fill="#CEDCED"/>
<path d="M183.697 129.231C184.593 129.231 185.32 128.504 185.32 127.608C185.32 126.711 184.593 125.984 183.697 125.984C182.8 125.984 182.073 126.711 182.073 127.608C182.073 128.504 182.8 129.231 183.697 129.231Z" fill="white"/>
<path d="M340.413 133.097H169.021C168.918 133.097 168.828 133.007 168.828 132.904C168.828 132.801 168.918 132.711 169.021 132.711H340.413C340.516 132.711 340.606 132.801 340.606 132.904C340.606 133.007 340.529 133.097 340.413 133.097Z" fill="#939393"/>
<path d="M272.214 173.439C278.888 164.832 284.183 155.169 287.907 144.939C289.479 136.692 289.312 129.825 290.677 121.385C292.43 119.981 294.349 117.43 294.13 114.131C294.092 113.629 294.556 113.191 294.607 112.688C294.723 111.58 294.027 110.511 293.1 109.88C292.172 109.248 291.064 108.965 289.982 108.707C289.131 108.501 288.294 108.295 287.443 108.076C286.683 107.882 285.833 107.702 285.137 108.063C284.325 108.475 284.003 109.441 283.539 110.717C283.784 113.552 284.029 116.399 284.235 119.672C282.483 127.596 280.486 135.455 277.793 143.599C274.494 149.268 271.028 154.834 267.511 159.666C268.103 164.356 268.825 169.329 272.214 173.439Z" fill="#CD6D4D"/>
<path d="M284.415 119.905C283.462 118.178 282.495 116.452 281.542 114.725C281.452 114.558 281.361 114.39 281.374 114.197C281.387 113.991 281.529 113.823 281.658 113.682C282.031 113.243 282.405 112.805 282.792 112.367C283.075 112.032 283.384 111.697 283.797 111.568C284.132 111.465 284.492 111.53 284.84 111.62C285.948 111.891 287.018 112.367 287.971 113.012C287.958 113.501 287.662 113.978 287.224 114.21C286.786 114.442 286.232 114.429 285.755 114.223C286.502 115.099 287.263 116.001 287.726 117.057C288.19 118.114 288.319 119.389 287.894 120.446C286.683 120.317 285.497 120.021 284.415 119.905Z" fill="#CD6D4D"/>
<path d="M288.345 120.148C288.229 120.148 288.151 120.058 288.151 119.942C288.242 118.022 287.391 116.051 285.922 114.814C285.845 114.75 285.832 114.621 285.897 114.544C285.961 114.466 286.09 114.453 286.167 114.518C287.726 115.832 288.641 117.919 288.538 119.955C288.538 120.071 288.448 120.148 288.345 120.148Z" fill="#8F5F53"/>
<path d="M290.471 115.084C290.303 115.084 290.136 115.058 290.007 115.032C289.582 114.955 289.118 114.826 288.835 114.504C288.306 114.788 287.598 114.749 287.121 114.375C287.031 114.311 287.018 114.195 287.082 114.105C287.147 114.014 287.263 114.002 287.353 114.066C287.752 114.375 288.358 114.375 288.77 114.079C288.822 114.04 288.873 114.027 288.925 114.04C288.976 114.053 289.028 114.092 289.054 114.143C289.221 114.453 289.633 114.569 290.059 114.646C290.278 114.684 290.484 114.71 290.664 114.672C290.806 114.633 290.948 114.517 290.961 114.375C290.961 114.285 291.025 114.221 291.102 114.195C291.192 114.169 291.27 114.208 291.321 114.285C291.476 114.543 291.875 114.569 292.146 114.427C292.468 114.246 292.674 113.873 292.816 113.576C292.842 113.512 292.88 113.448 292.906 113.37C293.048 113.061 293.202 112.726 293.434 112.455C293.512 112.378 293.628 112.365 293.705 112.443C293.782 112.52 293.795 112.636 293.718 112.713C293.512 112.945 293.383 113.229 293.254 113.525C293.228 113.589 293.19 113.667 293.164 113.731C292.996 114.092 292.752 114.517 292.326 114.749C291.991 114.929 291.54 114.942 291.218 114.723C291.115 114.865 290.961 114.981 290.767 115.032C290.677 115.071 290.574 115.084 290.471 115.084Z" fill="#8F5F53"/>
<path d="M291.283 114.506C291.257 114.506 291.231 114.506 291.206 114.493C291.103 114.454 291.064 114.338 291.103 114.235C291.631 113.011 292.069 111.748 292.417 110.46C292.443 110.357 292.546 110.292 292.649 110.318C292.752 110.344 292.816 110.447 292.79 110.55C292.443 111.851 291.992 113.14 291.463 114.377C291.425 114.454 291.36 114.506 291.283 114.506Z" fill="#8F5F53"/>
<path d="M288.964 114.467C288.951 114.467 288.925 114.467 288.912 114.454C288.809 114.429 288.745 114.325 288.77 114.222L289.93 109.854C289.956 109.751 290.059 109.687 290.162 109.713C290.265 109.738 290.329 109.842 290.304 109.945L289.144 114.313C289.131 114.403 289.054 114.467 288.964 114.467Z" fill="#8F5F53"/>
<path d="M286.915 112.275C286.902 112.275 286.889 112.275 286.863 112.275C286.76 112.249 286.696 112.146 286.722 112.043C286.953 111.154 287.121 110.239 287.224 109.337C287.237 109.234 287.34 109.156 287.443 109.169C287.546 109.182 287.623 109.272 287.611 109.388C287.495 110.316 287.327 111.244 287.095 112.146C287.082 112.21 287.005 112.275 286.915 112.275Z" fill="#8F5F53"/>
<path d="M285.176 111.685C285.073 111.685 284.996 111.607 284.983 111.517L284.725 109.146C284.712 109.043 284.789 108.94 284.893 108.927C284.996 108.914 285.099 108.992 285.112 109.095L285.369 111.465C285.382 111.569 285.305 111.672 285.202 111.685C285.189 111.685 285.189 111.685 285.176 111.685Z" fill="#8F5F53"/>
<path d="M286.167 157.591C281.31 167.474 275.537 176.892 268.902 185.989C269.443 188.617 269.456 191.349 268.966 193.99C268.219 197.971 266.338 201.631 264.74 204.89C264.882 213.343 265.68 221.847 268.219 229.977C267.961 230.093 267.703 230.209 267.446 230.325H229.926C229.72 226.111 229.797 222.349 229.874 218.677C229.874 218.613 229.874 218.548 229.874 218.484C229.9 217.311 229.926 216.152 229.939 214.992C230.067 211.449 230.067 207.905 229.951 204.375C229.951 204.324 229.951 204.259 229.951 204.208C229.939 203.679 229.913 203.151 229.887 202.623C229.887 202.61 229.887 202.597 229.887 202.584C229.552 194.776 228.65 187.032 227.246 179.366C227.233 179.289 227.22 179.224 227.207 179.147C229.977 177.691 232.76 175.887 235.878 175.346C236.033 175.32 236.188 175.295 236.355 175.269C237.218 175.153 238.095 175.153 238.958 175.101C239.473 175.075 240.001 175.024 240.504 174.934C240.607 174.908 240.723 174.895 240.826 174.869C243.764 174.238 246.341 172.228 249.253 171.674C249.575 171.61 249.91 171.571 250.245 171.545C250.348 171.532 250.451 171.519 250.541 171.506C250.709 171.481 250.863 171.468 251.031 171.442C253.891 171.081 256.597 170.695 259.122 170.089C263.503 162.655 268.451 155.568 273.656 149.358C275.022 143.753 276.684 138.213 278.617 132.878C279.905 129.322 281.31 125.843 282.843 122.48C287.7 124.22 291.862 127.866 294.31 132.878C294.336 132.93 294.362 132.969 294.375 133.02C291.398 141.24 288.667 149.538 286.167 157.591Z" fill="#FF6162"/>
<path d="M251.276 164.935C253.53 165.179 255.85 164.883 257.963 164.071C258.517 163.865 259.084 163.582 259.47 163.092C258.336 160.592 257.976 157.835 257.615 155.116C257.254 152.398 256.88 149.641 255.747 147.141C254.613 144.641 252.577 142.412 249.575 141.832C246.663 140.505 243.455 139.732 240.259 139.913C237.064 140.093 233.881 141.278 231.549 143.482C228.135 146.716 226.937 151.651 226.614 156.328C226.305 161.018 226.692 165.772 225.403 170.501C228.612 170.81 231.846 171.132 234.551 170.861C235.814 170.823 237.09 170.642 238.262 170.076C242.076 167.563 246.328 164.393 251.276 164.935Z" fill="#3B2C26"/>
<path d="M244.821 177.226C242.025 177.046 239.307 175.77 237.387 173.722C237.593 169.534 237.992 165.54 238.533 161.559C241.883 162.19 245.117 162.731 248.352 163.246C248.906 166.261 249.704 169.367 250.761 172.021C249.756 174.263 247.978 176.144 244.821 177.226Z" fill="#CD6D4D"/>
<path d="M238.636 165.282C240.994 166.519 243.597 167.318 246.251 167.614C247.398 167.743 248.609 167.769 249.691 167.356C251.147 166.789 252.191 165.449 252.745 163.993C253.299 162.537 253.415 160.953 253.466 159.394C253.556 156.25 253.389 153.093 252.964 149.975C250.928 148.983 249.498 147.063 249.008 144.898C246.315 148.725 242.282 151.586 237.889 153.132C238.018 157.061 238.146 161.004 238.636 165.282Z" fill="#CD6D4D"/>
<path d="M244.911 161.068C246.702 161.197 248.506 161.017 250.232 160.527C250.284 161.326 250.078 162.138 249.743 162.872C249.575 163.259 249.356 163.633 249.034 163.89C248.274 164.509 247.102 164.328 246.328 163.736C245.568 163.143 245.117 162.215 244.911 161.068Z" fill="white"/>
<path d="M237.451 151.625C237.85 158.209 238.688 165.102 242.553 170.333C240.26 170.772 237.876 171.21 235.608 170.668C234.578 170.424 233.598 169.973 232.748 169.019C233.315 163.054 234.81 157.178 237.451 151.625Z" fill="#3B2C26"/>
<path d="M247.513 167.718C244.421 167.718 240.878 166.481 240.672 166.417C240.569 166.378 240.517 166.275 240.556 166.172C240.594 166.069 240.698 166.017 240.801 166.056C240.865 166.082 247.681 168.452 250.528 166.674C250.619 166.623 250.735 166.648 250.799 166.739C250.851 166.829 250.825 166.945 250.735 167.009C249.884 167.538 248.738 167.718 247.513 167.718Z" fill="#8F5F53"/>
<path d="M249.24 225.648C249.137 225.648 249.06 225.57 249.047 225.467C247.668 209.297 246.624 192.869 245.929 176.648C245.929 176.544 246.006 176.454 246.109 176.441C246.212 176.441 246.302 176.519 246.315 176.622C246.998 192.831 248.055 209.259 249.433 225.429C249.446 225.532 249.369 225.635 249.253 225.635C249.253 225.648 249.24 225.648 249.24 225.648Z" fill="#E0464F"/>
<path d="M256.584 188.938C255.914 188.938 255.244 188.912 254.587 188.873C254.484 188.861 254.394 188.77 254.407 188.667C254.419 188.564 254.51 188.487 254.613 188.487C257.872 188.693 261.119 188.384 264.276 187.572C264.379 187.546 264.482 187.611 264.508 187.714C264.534 187.817 264.469 187.92 264.366 187.946C261.828 188.603 259.212 188.938 256.584 188.938Z" fill="#E0464F"/>
<path d="M268.761 186.26C268.696 186.26 268.619 186.221 268.593 186.157C266.57 182.343 264.625 178.413 262.808 174.484C262.769 174.38 262.808 174.277 262.898 174.226C263.001 174.187 263.104 174.226 263.156 174.316C264.96 178.233 266.905 182.163 268.928 185.964C268.98 186.054 268.941 186.17 268.851 186.221C268.812 186.247 268.786 186.26 268.761 186.26Z" fill="#E0464F"/>
<path d="M272.844 173.634C272.831 173.634 272.819 173.634 272.806 173.634C272.703 173.608 272.638 173.505 272.664 173.402C273.669 168.854 274.3 164.177 274.545 159.525C274.545 159.422 274.648 159.332 274.751 159.345C274.854 159.345 274.944 159.448 274.932 159.551C274.674 164.228 274.043 168.918 273.038 173.492C273.012 173.57 272.922 173.634 272.844 173.634Z" fill="#E0464F"/>
<path d="M235.338 211.643C238.224 208.576 241.11 205.51 243.997 202.443C245.169 202.495 246.161 201.941 246.87 201.194C247.578 200.446 248.068 199.506 248.532 198.578C250.658 198.849 252.565 197.599 253.106 195.834C253.493 193.012 252.513 190.216 250.645 188.219C248.068 188.747 245.839 189.778 243.816 191.118C242.669 193.347 241.484 195.524 240.44 197.766C237.773 199.776 235.158 201.928 232.465 204.44C232.684 206.76 233.302 209.027 234.294 211.128C234.462 211.437 234.72 211.798 235.338 211.643Z" fill="#CD6D4D"/>
<path d="M248.287 196.553C248.196 196.553 248.119 196.488 248.093 196.398C247.681 194.594 247.14 192.803 246.47 191.09C246.431 190.987 246.483 190.884 246.586 190.845C246.689 190.806 246.792 190.858 246.831 190.961C247.514 192.7 248.055 194.504 248.467 196.321C248.493 196.424 248.428 196.527 248.325 196.553C248.312 196.553 248.299 196.553 248.287 196.553Z" fill="#8F5F53"/>
<path d="M248.313 191.247C248.222 191.247 248.145 191.183 248.119 191.092C248.093 190.989 248.171 190.886 248.274 190.86C249.459 190.616 250.619 190.216 251.714 189.675C251.804 189.624 251.92 189.662 251.972 189.765C252.023 189.868 251.985 189.971 251.882 190.023C250.761 190.577 249.575 190.989 248.351 191.234C248.338 191.247 248.325 191.247 248.313 191.247Z" fill="#8F5F53"/>
<path d="M248.944 193.141C248.866 193.141 248.789 193.089 248.763 192.999C248.738 192.896 248.789 192.793 248.892 192.754L252.474 191.698C252.577 191.672 252.68 191.724 252.719 191.827C252.758 191.93 252.693 192.033 252.59 192.072L249.008 193.128C248.982 193.141 248.97 193.141 248.944 193.141Z" fill="#8F5F53"/>
<path d="M249.55 195.577C249.472 195.577 249.395 195.525 249.369 195.448C249.331 195.345 249.382 195.242 249.485 195.203C250.593 194.765 251.817 194.61 253.003 194.739C253.106 194.752 253.183 194.842 253.17 194.958C253.157 195.061 253.067 195.139 252.951 195.126C251.83 194.997 250.671 195.151 249.614 195.564C249.601 195.577 249.575 195.577 249.55 195.577Z" fill="#8F5F53"/>
<path d="M248.416 198.538C248.39 198.538 248.364 198.538 248.339 198.525C248.235 198.473 248.197 198.37 248.248 198.267C248.558 197.597 249.24 197.121 249.975 197.056C250.078 197.043 250.181 197.121 250.181 197.236C250.194 197.34 250.117 197.443 250.001 197.443C249.408 197.494 248.841 197.894 248.596 198.422C248.558 198.499 248.48 198.538 248.416 198.538Z" fill="#8F5F53"/>
<path d="M231.704 198.229C230.776 200.484 229.849 202.739 228.908 204.994C230.441 204.156 232.219 202.881 234.088 201.773C234.565 205.419 235.299 208.666 236.175 211.861C230.944 218.304 225.326 223.11 219.129 226.975C217.26 228.147 214.774 227.941 213.137 226.691C211.501 225.442 210.625 223.367 210.444 221.319C210.264 219.27 210.676 217.208 211.192 215.211C212.042 211.887 213.15 208.64 214.271 205.406C215.74 201.116 217.209 196.812 218.845 192.573C220.778 187.561 222.672 182.472 227.22 179.16C229.462 185.267 234.23 192.122 231.704 198.229Z" fill="#FF6162"/>
<path d="M219.064 212.594C219.013 212.594 218.961 212.568 218.922 212.53C218.858 212.452 218.858 212.323 218.948 212.259C223.6 208.316 228.612 204.696 233.817 201.526C233.907 201.475 234.023 201.5 234.088 201.591C234.152 201.681 234.113 201.797 234.023 201.861C228.831 205.031 223.844 208.639 219.206 212.568C219.154 212.581 219.116 212.594 219.064 212.594Z" fill="#E0464F"/>
<path d="M228.934 204.943C228.909 204.943 228.883 204.943 228.857 204.93C228.754 204.891 228.715 204.775 228.754 204.672C230.261 201.309 231.666 197.856 232.916 194.391C232.954 194.287 233.057 194.236 233.16 194.275C233.264 194.313 233.315 194.416 233.276 194.519C232.027 197.998 230.622 201.464 229.102 204.84C229.089 204.891 229.012 204.943 228.934 204.943Z" fill="#E0464F"/>
<path d="M231.253 199.929C231.214 199.929 231.176 199.916 231.15 199.903C231.06 199.839 231.034 199.723 231.098 199.632C231.91 198.408 232.902 197.326 234.062 196.411C234.152 196.347 234.268 196.36 234.332 196.45C234.397 196.54 234.384 196.656 234.294 196.721C233.173 197.597 232.206 198.653 231.42 199.839C231.382 199.89 231.317 199.929 231.253 199.929Z" fill="#E0464F"/>
<path d="M225.932 222.219C225.881 222.219 225.816 222.194 225.791 222.155C225.726 222.078 225.726 221.949 225.816 221.884C229.501 218.766 232.967 215.326 236.086 211.641C236.15 211.564 236.279 211.551 236.356 211.615C236.433 211.68 236.446 211.809 236.382 211.886C233.238 215.584 229.772 219.037 226.061 222.168C226.023 222.207 225.971 222.219 225.932 222.219Z" fill="#E0464F"/>
<path d="M243.519 182.33C244.189 180.449 245.001 178.633 245.967 176.893C247.604 177.769 249.06 178.968 250.374 180.295C251.495 178.117 251.598 174.986 251.856 172.577C251.302 171.147 251.392 171.378 250.451 170.477C249.949 173.015 247.913 174.844 246.096 176.648C243.017 175.875 240.221 174.432 237.206 172.796C236.639 173.504 235.93 174.509 235.686 175.192C238.314 177.383 240.852 179.702 243.519 182.33Z" fill="#E0464F"/>
<path d="M244.229 176.12L246.239 179.367L247.463 175.051L244.229 176.12Z" fill="#CD6D4D"/>
<path d="M269.384 276.84H319.067V273.206H269.384V276.84Z" fill="#017326"/>
<path d="M212.802 244.306L223.239 275.564C223.496 276.324 224.205 276.84 225.017 276.84H287.121C288.396 276.84 289.311 275.59 288.899 274.366L278.462 243.108C278.204 242.347 277.496 241.832 276.684 241.832H214.58C213.292 241.832 212.39 243.095 212.802 244.306Z" fill="#7AD001"/>
<path d="M248.144 265.941C250.884 265.941 253.105 263.72 253.105 260.98C253.105 258.24 250.884 256.02 248.144 256.02C245.405 256.02 243.184 258.24 243.184 260.98C243.184 263.72 245.405 265.941 248.144 265.941Z" fill="white"/>
<path d="M341.107 276.852H179.276V285.433H341.107V276.852Z" fill="#CEDCED"/>
<path d="M341.12 276.852H292.235V285.433H341.12V276.852Z" fill="#E9F2FF"/>
<path d="M329.889 362.059H335.828V285.434H329.889V362.059Z" fill="#BAC9D6"/>
<path d="M297.261 362.059H303.201V285.434H297.261V362.059Z" fill="#BAC9D6"/>
<path d="M303.196 344.551H329.88V339.59H303.196V344.551Z" fill="#BAC9D6"/>
<path d="M216.877 362.059H222.816V285.434H216.877V362.059Z" fill="#BAC9D6"/>
<path d="M184.236 362.059H190.176V285.434H184.236V362.059Z" fill="#BAC9D6"/>
<path d="M190.184 344.551H216.868V339.59H190.184V344.551Z" fill="#BAC9D6"/>
<path d="M468.549 114.777C466.487 119.377 461.952 122.779 456.939 123.462C461.127 125.51 464.4 129.35 465.791 133.821C467.634 130.522 470.855 128.01 474.553 127.056C472.349 126.116 470.829 123.977 470.069 121.709C469.309 119.429 469.206 116.993 468.549 114.777Z" fill="#FEB000"/>
<path d="M319.745 151.305C317.683 155.904 313.148 159.306 308.136 159.989C312.323 162.037 315.596 165.877 316.987 170.348C318.83 167.05 322.051 164.537 325.749 163.584C323.546 162.643 322.025 160.504 321.265 158.237C320.505 155.943 320.415 153.508 319.745 151.305Z" fill="#FEB000"/>
<path d="M398.134 44.8398C397.877 49.8777 394.874 54.6837 390.455 57.1317C395.093 57.5183 399.539 59.9277 402.451 63.5869C402.966 59.8375 405.066 56.3329 408.171 54.1039C405.775 54.0266 403.584 52.5835 402.051 50.741C400.531 48.8985 399.564 46.6566 398.134 44.8398Z" fill="#FEB000"/>
<path d="M314.913 54.4102C316.626 59.1517 320.904 62.8754 325.852 63.9319C321.522 65.6584 317.979 69.2533 316.265 73.6083C314.668 70.181 311.653 67.4365 308.032 66.2125C310.3 65.4394 311.975 63.4165 312.903 61.2004C313.817 58.9842 314.088 56.5619 314.913 54.4102Z" fill="#FEB000"/>
<path d="M400.389 187.999C399.023 186.118 396.549 185.937 394.604 185.963C394.294 185.963 393.947 186.015 393.779 186.272C393.663 186.44 393.663 186.659 393.663 186.852C393.676 190.395 393.702 193.952 393.715 197.495C394.784 196.889 395.866 196.258 396.949 195.627C398.546 194.686 400.26 193.617 400.917 191.877C401.394 190.602 401.201 189.094 400.389 187.999Z" fill="#A45DCE"/>
<path d="M362.367 123.678C358.824 122.003 356.234 118.459 355.706 114.581C355.177 110.703 356.749 106.593 359.726 104.041C361.027 102.933 362.56 102.109 363.849 100.988C366.4 98.7716 367.856 95.5375 368.719 92.2648C369.582 88.9922 369.917 85.6035 370.665 82.3051C371.36 79.2256 372.894 75.7854 375.973 75.0768C377.996 74.6129 380.07 75.502 382.583 77.061C385.83 73.0539 392.375 73.0153 396.627 75.9401C400.879 78.8778 403.134 83.9801 404.177 89.0308C405.221 94.0945 405.234 99.3127 406.11 104.402C406.6 107.288 407.656 110.484 410.323 111.695C411.599 112.262 413.042 112.288 414.343 112.777C417.474 113.963 419.008 117.841 418.234 121.101C417.461 124.348 414.833 126.912 411.844 128.419C408.854 129.927 405.504 130.519 401.794 130.571C398.946 133.521 395.016 135.518 390.919 135.609C386.822 135.699 382.634 133.753 380.354 129.682C378.679 131.692 375.947 132.774 373.357 132.465C371.979 132.297 370.665 131.769 369.389 131.189C366.529 129.875 363.488 127.852 362.367 123.678Z" fill="#3B2C26"/>
<path d="M371.128 189.274C373.782 194.054 372.984 199.955 371.837 205.315C369.466 216.293 365.936 226.987 362.405 237.642C364.493 237.733 366.889 237.99 369.234 238.261C376.153 239.047 383.059 239.962 389.953 241.005C393.483 244.639 395.055 249.599 394.436 254.302C380.637 255.05 366.709 255.024 352.832 254.186C348.245 256.235 341.88 252.279 339.303 246.932C336.726 241.585 337.01 235.349 337.641 229.448C339.277 213.922 342.821 198.666 346.081 183.746C354.662 185.241 363.294 186.568 371.128 189.274Z" fill="#4D5A6D"/>
<path d="M359.364 243.39C359.339 243.39 359.3 243.377 359.274 243.364C359.184 243.313 359.145 243.197 359.197 243.106L362.47 236.909C362.521 236.819 362.637 236.78 362.727 236.832C362.817 236.883 362.856 236.999 362.805 237.089L359.532 243.287C359.506 243.351 359.429 243.39 359.364 243.39Z" fill="#3C4A5B"/>
<path d="M425.231 215.095C427.125 217.414 429.174 219.604 431.377 221.653C432.562 222.761 434.095 223.895 435.667 223.457C436.711 223.16 437.458 222.207 437.755 221.163C438.051 220.133 437.961 219.024 437.806 217.955C437.098 213.291 435.049 208.961 433.026 204.71C431.725 201.978 430.037 198.924 427.073 198.293C424.471 197.739 421.778 199.44 420.425 201.733C419.059 204.039 418.595 206.951 425.231 215.095Z" fill="#FF6162"/>
<path d="M413.982 213.163C415.567 211.397 417.139 209.645 418.724 207.88C419.33 207.197 420 206.488 420.889 206.269C421.559 206.102 422.254 206.256 422.899 206.501C425.669 207.558 427.434 210.367 428.194 213.279C426.622 216.461 425.012 219.631 423.337 222.762C420.309 219.76 417.294 216.745 413.982 213.163Z" fill="#FFAD92"/>
<path d="M411.728 239.875C412.681 244.41 413.274 249.023 413.519 253.649C413.609 255.285 413.622 257.024 412.771 258.429C412.462 258.944 412.011 259.421 411.431 259.588C410.852 259.756 410.22 259.601 409.653 259.357C408.159 258.725 406.973 257.566 405.814 256.432C404.409 255.053 403.018 253.674 401.613 252.309C401.227 251.935 400.802 251.407 400.827 250.788C402.541 245.763 406.445 241.55 411.728 239.875Z" fill="#FF6162"/>
<path d="M386.113 257.113C388.999 258.079 392.001 259.058 395.004 258.62C398.392 258.131 401.278 255.902 403.688 253.467C411.947 245.104 416.869 233.276 426.983 227.298C427.125 223.845 424.831 220.443 422.461 217.403C421.507 216.178 420.515 214.954 419.239 214.091C417.423 212.854 415.194 212.442 413.029 212.055C411.419 213.833 409.563 216.307 407.708 218.781C404.152 223.523 400.557 228.303 396.112 232.233C395.094 221.809 394.656 212.197 394.656 202.585C396.292 196.826 396.395 190.087 394.437 183.426C382.518 186.402 370.42 188.631 358.527 189.752C356.929 192.406 357.329 195.859 358.579 198.694C359.829 201.529 361.826 203.951 363.488 206.567C368.487 214.465 370.265 223.883 372.752 232.903C375.239 241.896 377.223 254.137 386.113 257.113Z" fill="#4D5A6D"/>
<path d="M396.24 243.97C396.137 243.97 396.06 243.893 396.047 243.79C395.712 239.989 395.622 236.136 395.776 232.322C395.776 232.219 395.867 232.129 395.983 232.142C396.086 232.142 396.176 232.232 396.163 232.348C395.996 236.136 396.086 239.976 396.434 243.764C396.447 243.867 396.369 243.97 396.253 243.97C396.253 243.97 396.253 243.97 396.24 243.97Z" fill="#3C4A5B"/>
<path d="M370.613 224.282C370.523 224.282 370.446 224.217 370.42 224.127C368.951 217.092 365.936 210.302 361.697 204.491C359.893 203.757 358.205 202.301 357.187 200.574C357.136 200.484 357.162 200.368 357.252 200.304C357.342 200.252 357.458 200.278 357.522 200.368C358.515 202.03 360.151 203.447 361.903 204.143C361.942 204.156 361.968 204.182 361.993 204.208C366.284 210.07 369.338 216.925 370.819 224.037C370.845 224.14 370.768 224.243 370.665 224.269C370.639 224.282 370.626 224.282 370.613 224.282Z" fill="#3C4A5B"/>
<path d="M393.496 258.93C390.906 258.93 388.355 258.079 386.049 257.306C378.176 254.665 375.676 244.989 373.486 236.446C373.177 235.222 372.88 234.075 372.558 232.942C372.533 232.839 372.584 232.735 372.687 232.71C372.79 232.684 372.893 232.735 372.919 232.839C373.228 233.972 373.525 235.119 373.847 236.343C376.024 244.783 378.485 254.356 386.164 256.933C388.87 257.848 391.95 258.878 394.978 258.44C397.786 258.028 400.518 256.417 403.559 253.338C403.636 253.261 403.752 253.261 403.829 253.338C403.907 253.415 403.907 253.531 403.829 253.609C400.737 256.739 397.941 258.402 395.029 258.827C394.527 258.891 394.011 258.93 393.496 258.93Z" fill="#3C4A5B"/>
<path d="M350.152 121.27C344.702 109.262 341.172 96.377 339.664 83.2863C340.128 73.1203 342.254 65.0803 343.014 54.7468C341.339 52.5951 339.806 49.0518 340.978 45.2251C341.159 44.6324 340.746 44.001 340.824 43.3955C340.991 42.0555 342.125 40.986 343.388 40.4964C344.65 40.0068 346.042 39.9939 347.395 39.981C348.451 39.9682 349.508 39.9682 350.564 39.9553C351.518 39.9424 352.562 39.9682 353.283 40.5866C354.121 41.2953 354.237 42.5322 354.43 44.1685C353.348 47.4412 352.265 50.7268 351.093 54.5278C350.938 64.3587 351.08 74.1897 351.969 84.5361C354.262 92.1509 356.788 99.6755 359.571 106.35C357.522 111.71 355.293 117.366 350.152 121.27Z" fill="#FFAD92"/>
<path d="M350.783 54.7352C352.394 52.97 354.017 51.2048 355.628 49.4268C355.783 49.2593 355.937 49.0789 355.976 48.8598C356.015 48.615 355.899 48.3831 355.783 48.1641C355.461 47.5456 355.138 46.9143 354.816 46.2958C354.572 45.832 354.314 45.3423 353.85 45.0718C353.476 44.8656 353.038 44.8398 352.613 44.8398C351.222 44.8527 349.843 45.0975 348.542 45.6C348.426 46.1927 348.632 46.8241 349.083 47.2235C349.534 47.6229 350.191 47.7518 350.809 47.6487C349.675 48.4733 348.529 49.3108 347.691 50.4318C346.854 51.5527 346.338 53.0087 346.544 54.3745C348 54.5935 349.482 54.5806 350.783 54.7352Z" fill="#FFAD92"/>
<path d="M346.132 53.8844C346.119 53.8844 346.106 53.8844 346.093 53.8844C345.99 53.8586 345.913 53.7684 345.939 53.6654C346.39 51.2431 348.039 49.0527 350.242 47.9446C350.332 47.8931 350.448 47.9317 350.5 48.0348C350.551 48.125 350.513 48.2409 350.41 48.2925C348.309 49.349 346.75 51.4363 346.312 53.7427C346.312 53.82 346.222 53.8844 346.132 53.8844Z" fill="#EB7154"/>
<path d="M348.4 47.5828C347.924 47.5828 347.447 47.4025 347.099 47.0803C346.687 47.4025 346.107 47.4282 345.566 47.3896C345.308 47.3767 344.973 47.3509 344.677 47.1963C344.483 47.0932 344.303 46.9128 344.226 46.6809C343.801 46.8613 343.259 46.7325 342.924 46.4232C342.499 46.0367 342.332 45.4569 342.241 45.0059C342.229 44.9157 342.203 44.8255 342.19 44.7353C342.113 44.3359 342.035 43.9623 341.868 43.6402C341.816 43.55 341.855 43.434 341.945 43.3825C342.035 43.3309 342.151 43.3696 342.203 43.4598C342.409 43.8463 342.486 44.2586 342.576 44.6709C342.589 44.7611 342.615 44.8513 342.628 44.9415C342.718 45.3409 342.86 45.8434 343.195 46.1526C343.478 46.4103 344.007 46.5005 344.264 46.2171C344.329 46.1526 344.419 46.1398 344.496 46.1784C344.574 46.2171 344.612 46.3073 344.599 46.3846C344.561 46.5778 344.715 46.7711 344.883 46.8613C345.089 46.9644 345.334 46.9901 345.617 47.003C346.158 47.0288 346.687 47.0159 346.983 46.6809C347.022 46.6423 347.073 46.6165 347.125 46.6165C347.176 46.6165 347.241 46.6423 347.267 46.6809C347.666 47.1576 348.413 47.338 348.98 47.0803C349.083 47.0417 349.186 47.0803 349.238 47.1834C349.277 47.2865 349.238 47.3896 349.135 47.4411C348.89 47.5313 348.645 47.5828 348.4 47.5828Z" fill="#EB7154"/>
<path d="M344.264 46.4097C344.174 46.4097 344.083 46.3453 344.07 46.2551C343.787 44.6445 343.633 43.0081 343.581 41.3847C343.581 41.2816 343.658 41.1914 343.774 41.1914C343.877 41.1914 343.967 41.2687 343.967 41.3847C344.019 42.9953 344.186 44.6187 344.457 46.2035C344.47 46.3066 344.405 46.4097 344.302 46.4226C344.289 46.4097 344.277 46.4097 344.264 46.4097Z" fill="#EB7154"/>
<path d="M347.009 47.0148C346.906 47.0148 346.816 46.9375 346.816 46.8216L346.674 41.3456C346.674 41.2425 346.751 41.1523 346.867 41.1523C346.97 41.1523 347.06 41.2297 347.06 41.3456L347.202 46.8216C347.202 46.9247 347.125 47.0148 347.009 47.0148Z" fill="#EB7154"/>
<path d="M350.023 45.0047C349.92 45.0047 349.83 44.9146 349.83 44.8115C349.817 43.6776 349.869 42.5438 349.998 41.4228C350.01 41.3197 350.114 41.2424 350.217 41.2553C350.32 41.2682 350.397 41.3584 350.384 41.4743C350.255 42.5824 350.204 43.7034 350.217 44.8115C350.23 44.9274 350.139 45.0047 350.023 45.0047C350.036 45.0047 350.036 45.0047 350.023 45.0047Z" fill="#EB7154"/>
<path d="M352.253 44.8004C352.227 44.8004 352.214 44.8004 352.188 44.7876C352.085 44.7489 352.034 44.6458 352.072 44.5428L353.039 41.8241C353.077 41.721 353.18 41.6695 353.284 41.7081C353.387 41.7468 353.438 41.8499 353.4 41.953L352.433 44.6716C352.407 44.7618 352.33 44.8004 352.253 44.8004Z" fill="#EB7154"/>
<path d="M406.11 140.866C413.88 137.632 421.649 134.411 429.419 131.177C431.879 130.159 434.392 129.103 436.325 127.273C437.832 125.843 438.902 124.026 439.907 122.196C443.759 115.187 446.929 107.791 449.325 100.164C446.375 99.1974 443.115 98.2569 439.958 97.0586C437.162 104.351 432.575 111.245 427.344 117.584C422.01 119.748 416.663 121.385 410.749 122.416C408.893 128.536 407.051 134.656 406.11 140.866Z" fill="#FFAD92"/>
<path d="M401.176 190.525C397.568 186.801 392.105 186.26 387.041 187.342C381.978 188.425 377.275 190.808 372.25 192.084C360.666 195.022 347.653 191.478 339.175 183.065C342.538 179.818 344.767 176.068 346.983 172.345C351.583 164.588 356.337 156.355 356.389 147.349C356.414 142.375 355.023 137.195 356.775 132.544C353.271 129.684 350.462 126.398 348.155 122.79C350.423 115.846 354.353 108.978 359.533 103.219C361.981 107.226 364.171 111.388 366.078 115.678C366.722 115.472 367.817 115.24 368.809 115.511C371.296 116.194 372.288 119.647 374.814 120.149C381.204 120.11 388.072 119.505 394.45 120.033C395.571 119.067 396.821 120.677 398.302 121.103C400.042 121.605 401.897 121.463 403.688 121.283C407.863 120.845 411.999 120.162 416.392 119.415C413.39 126.514 411.354 134.013 410.285 141.782C406.458 143.29 402.696 144.965 398.792 146.885C396.834 152.245 394.862 157.618 392.698 163.184C393.754 167.899 394.798 172.602 395.854 177.318C396.138 178.555 396.421 179.818 397.027 180.939C397.813 182.356 399.075 183.438 400.003 184.765C401.176 186.389 401.395 188.425 401.176 190.525Z" fill="#C87AED"/>
<path d="M398.972 147.13C398.946 147.13 398.933 147.13 398.907 147.117C398.804 147.078 398.753 146.975 398.791 146.872L402.219 136.758C402.257 136.655 402.36 136.603 402.463 136.642C402.567 136.68 402.618 136.783 402.579 136.887L399.152 147.001C399.126 147.078 399.049 147.13 398.972 147.13Z" fill="#A45DCE"/>
<path d="M356.762 133.161C356.723 133.161 356.698 133.148 356.659 133.135C356.569 133.084 356.53 132.968 356.594 132.865C358.798 129.102 361.31 125.482 364.055 122.106C364.119 122.029 364.248 122.016 364.325 122.08C364.403 122.145 364.416 122.274 364.351 122.351C361.62 125.714 359.12 129.321 356.917 133.058C356.891 133.122 356.826 133.161 356.762 133.161Z" fill="#A45DCE"/>
<path d="M377.107 148.561C377.042 148.561 376.991 148.535 376.952 148.484C374.736 145.443 373.28 141.874 372.739 138.15C372.726 138.047 372.79 137.944 372.906 137.931C373.01 137.918 373.113 137.983 373.125 138.099C373.667 141.758 375.097 145.276 377.274 148.265C377.339 148.355 377.313 148.471 377.236 148.535C377.184 148.548 377.146 148.561 377.107 148.561Z" fill="#A45DCE"/>
<path d="M362.019 187.342C361.928 187.342 361.851 187.277 361.825 187.187C361.8 187.084 361.877 186.981 361.98 186.955C367.056 185.899 371.746 183.193 375.187 179.315C375.251 179.238 375.38 179.225 375.457 179.302C375.535 179.366 375.547 179.495 375.47 179.573C371.978 183.515 367.211 186.272 362.057 187.342C362.044 187.329 362.031 187.342 362.019 187.342Z" fill="#A45DCE"/>
<path d="M389.695 117.935C389.914 113.606 390.443 109.29 391.37 104.793C386.874 106.777 382.029 107.95 377.532 107.872C376.579 111.184 375.445 114.444 373.873 117.343C372.829 117.343 371.786 117.111 370.497 116.415C370.574 118.76 370.858 121.131 371.708 123.334C372.559 125.537 374.002 127.547 376.025 128.745C379.272 130.678 383.549 130.189 386.822 128.294C390.095 126.4 392.517 123.334 394.463 120.048C392.775 119.662 391.164 118.992 389.695 117.935Z" fill="#FFAD92"/>
<path d="M391.563 96.61C391.035 97.4089 390.507 98.2464 390.442 99.1999C390.391 100.153 390.868 101.107 391.666 101.635C392.349 100.746 393.496 99.7926 394.81 99.2643C395.223 99.0968 395.674 98.9808 396.112 99.0066C397.49 99.1097 398.328 100.785 397.98 102.125C397.632 103.465 396.447 104.418 395.197 105.011C393.947 105.604 392.594 105.926 391.357 106.544C388.484 109.482 385.971 110.641 381.771 110.629C378.705 110.616 374.118 110.074 372.224 107.665C370.613 105.604 369.685 102.215 370.098 99.6379C370.742 95.5277 372.03 91.5077 373.912 87.797C375.561 84.5243 377.957 81.2644 382.171 80.4141C381.823 83.8929 382.171 87.5135 383.755 90.6187C385.34 93.7239 388.265 96.2493 391.563 96.61Z" fill="#FFAD92"/>
<path d="M375.393 100.242C377.261 101.492 379.529 102.136 381.771 102.046C381.255 102.884 380.663 103.708 379.851 104.288C379.039 104.855 377.983 105.151 377.042 104.855C376.23 104.597 375.599 103.914 375.29 103.128C374.994 102.329 374.994 101.44 375.393 100.242Z" fill="white"/>
<path d="M380.599 110.436C379.066 110.436 377.545 110.256 376.063 109.882C375.96 109.857 375.896 109.754 375.922 109.65C375.947 109.547 376.051 109.483 376.154 109.509C381.243 110.771 386.874 109.779 391.216 106.829C391.306 106.764 391.422 106.79 391.486 106.88C391.551 106.97 391.525 107.086 391.435 107.151C388.278 109.303 384.438 110.436 380.599 110.436Z" fill="#EB7154"/>
<path d="M464.224 85.228L434.775 77.3477L429.296 97.8222L458.745 105.703L464.224 85.228Z" fill="#FF6162"/>
<path d="M449.802 96.4023C447.934 99.5977 446.156 102.832 444.455 106.117C445.37 105.666 446.298 105.215 447.212 104.764C447.303 104.713 447.419 104.674 447.522 104.7C447.638 104.726 447.715 104.855 447.779 104.958C448.295 105.885 448.797 106.813 449.3 107.741C450.55 104.481 451.606 101.144 452.456 97.7037C451.49 97.5104 450.562 97.0852 449.802 96.4023Z" fill="#00ABFE"/>
<path d="M453.667 97.3805C454.337 100.95 455.342 104.467 456.669 107.843C457.249 106.748 457.751 105.601 458.151 104.415C459.336 104.403 460.509 104.39 461.694 104.364C459.761 101.813 457.829 99.2617 455.896 96.6719C455.084 97.1615 454.285 97.6382 453.667 97.3805Z" fill="#00ABFE"/>
<path d="M453.681 91.0424C451.954 90.4755 449.918 91.4032 449.081 93.0009C448.243 94.6114 448.591 96.7116 449.815 98.0516C450.214 98.4897 450.704 98.8634 451.271 99.0695C452.173 99.3916 453.165 99.2628 454.067 98.9536C455.343 98.5155 456.567 97.6522 456.992 96.3766C457.314 95.3845 457.108 94.2764 456.58 93.3874C456.039 92.4855 455.304 91.5707 453.681 91.0424Z" fill="#FEB000"/>
<path d="M444.726 80.144C445.254 79.5256 445.847 78.9329 446.607 78.6365C447.367 78.3402 448.308 78.4046 448.874 79.0102C449.802 79.0231 450.549 79.7704 451.451 79.9765C451.722 80.0409 452.018 80.0667 452.289 80.1569C452.637 80.2857 452.92 80.5692 453.088 80.9815C453.668 80.7238 454.363 81.1104 454.673 81.6644C454.969 82.2184 454.969 82.8884 454.905 83.5198C454.84 84.1511 454.737 84.7825 454.827 85.4009C454.724 85.839 454.569 86.2642 454.35 86.6507C454.17 86.9857 453.912 87.3207 453.552 87.4625C453.191 87.6042 452.701 87.4625 452.585 87.0888C451.98 87.3465 451.181 86.9213 451.065 86.2642C450.292 86.6121 449.274 86.2771 448.862 85.5169C448.166 85.6457 447.483 85.1432 447.174 84.5119C446.864 83.8806 446.864 83.1461 446.89 82.4375C446.916 81.7288 446.968 81.0073 446.787 80.3502C446.246 80.5048 445.666 80.4661 444.726 80.144Z" fill="#FFAD92"/>
<path d="M448.797 85.5939C448.784 85.5939 448.784 85.5939 448.771 85.5939C448.668 85.581 448.591 85.4779 448.604 85.3749C448.823 83.8029 448.849 82.2181 448.655 80.6462C448.643 80.5431 448.72 80.4401 448.823 80.4272C448.926 80.4143 449.029 80.4916 449.042 80.5947C449.235 82.2053 449.209 83.8287 448.99 85.4264C448.978 85.5295 448.9 85.5939 448.797 85.5939Z" fill="#EB7154"/>
<path d="M450.82 86.4074H450.807C450.704 86.3945 450.627 86.3043 450.627 86.2013L450.988 81.5241C451.001 81.4211 451.091 81.3438 451.194 81.3438C451.297 81.3566 451.374 81.4468 451.374 81.5499L451.013 86.227C451.001 86.3301 450.923 86.4074 450.82 86.4074Z" fill="#EB7154"/>
<path d="M452.83 87.0614C452.817 87.0614 452.804 87.0614 452.791 87.0614C452.688 87.0485 452.611 86.9454 452.637 86.8423C452.894 85.3606 452.997 83.8402 452.946 82.3456C452.946 82.2425 453.023 82.1523 453.139 82.1523C453.242 82.1523 453.332 82.2297 453.332 82.3456C453.384 83.8789 453.268 85.4122 453.01 86.9197C452.997 86.9841 452.92 87.0614 452.83 87.0614Z" fill="#EB7154"/>
<path d="M508.105 362.379H94.8954C94.715 362.379 94.5732 362.237 94.5732 362.056C94.5732 361.876 94.715 361.734 94.8954 361.734H508.105C508.285 361.734 508.427 361.876 508.427 362.056C508.427 362.237 508.285 362.379 508.105 362.379Z" fill="#3C4A5B"/>
<path d="M220.263 96.7256V64.0761C220.263 60.7003 222.994 57.9688 226.37 57.9688H259.007C262.383 57.9688 265.114 60.7003 265.114 64.0761V96.7128C265.114 100.089 262.383 102.82 259.007 102.82H226.37C222.994 102.833 220.263 100.089 220.263 96.7256Z" fill="#00ABFE"/>
<path d="M240.092 93.4778C239.293 93.4778 238.533 93.0913 238.069 92.4341L229.642 80.5545C228.843 79.4336 229.114 77.8874 230.235 77.1014C231.356 76.3026 232.902 76.5732 233.688 77.6941L239.989 86.5845L251.636 68.4688C252.371 67.322 253.904 66.987 255.064 67.7214C256.21 68.4559 256.545 69.9891 255.811 71.1488L242.179 92.3568C241.728 93.0526 240.968 93.4778 240.156 93.4907C240.13 93.4778 240.118 93.4778 240.092 93.4778Z" fill="white"/>
<path d="M145.029 193.399V163.739C145.029 159.538 148.431 156.137 152.631 156.137H182.292C186.492 156.137 189.893 159.538 189.893 163.739V193.399C189.893 197.599 186.492 201.001 182.292 201.001H152.631C148.444 201.001 145.029 197.599 145.029 193.399Z" fill="#7AD001"/>
<path d="M185.062 167.14H158.429C158.069 167.14 157.785 166.857 157.785 166.496C157.785 166.135 158.069 165.852 158.429 165.852H185.062C185.423 165.852 185.706 166.135 185.706 166.496C185.706 166.857 185.41 167.14 185.062 167.14Z" fill="#017326"/>
<path d="M185.062 179.214H158.429C158.069 179.214 157.785 178.931 157.785 178.57C157.785 178.209 158.069 177.926 158.429 177.926H185.062C185.423 177.926 185.706 178.209 185.706 178.57C185.706 178.931 185.41 179.214 185.062 179.214Z" fill="#017326"/>
<path d="M185.062 191.285H158.429C158.069 191.285 157.785 191.001 157.785 190.64C157.785 190.28 158.069 189.996 158.429 189.996H185.062C185.423 189.996 185.706 190.28 185.706 190.64C185.706 191.001 185.41 191.285 185.062 191.285Z" fill="#017326"/>
<path d="M151.678 170.272C151.407 170.272 151.149 170.143 150.995 169.924L148.173 165.942C147.903 165.569 147.993 165.053 148.366 164.783C148.74 164.512 149.255 164.602 149.526 164.976L151.639 167.952L155.543 161.871C155.788 161.484 156.303 161.368 156.69 161.626C157.076 161.871 157.192 162.386 156.935 162.773L152.361 169.885C152.206 170.117 151.961 170.259 151.678 170.272C151.678 170.272 151.691 170.272 151.678 170.272Z" fill="white"/>
<path d="M151.678 182.252C151.407 182.252 151.149 182.123 150.995 181.904L148.173 177.923C147.903 177.549 147.993 177.034 148.366 176.763C148.74 176.493 149.255 176.583 149.526 176.957L151.639 179.933L155.543 173.851C155.788 173.465 156.303 173.349 156.69 173.607C157.076 173.851 157.192 174.367 156.935 174.753L152.361 181.866C152.206 182.098 151.961 182.239 151.678 182.252C151.678 182.252 151.691 182.252 151.678 182.252Z" fill="white"/>
<path d="M151.678 193.967C151.407 193.967 151.149 193.838 150.995 193.619L148.173 189.638C147.903 189.264 147.993 188.749 148.366 188.478C148.74 188.208 149.255 188.298 149.526 188.671L151.639 191.648L155.543 185.566C155.788 185.18 156.303 185.064 156.69 185.321C157.076 185.566 157.192 186.082 156.935 186.468L152.361 193.58C152.206 193.812 151.961 193.954 151.678 193.967C151.678 193.967 151.691 193.967 151.678 193.967Z" fill="white"/>
</svg>
