<svg width="145" height="32" viewBox="0 0 145 32" fill="none" xmlns="http://www.w3.org/2000/svg">
<g clip-path="url(#clip0_6221_71571)">
<path d="M12.6817 11.4197C12.6817 12.7917 12.0842 14.0047 11.1056 14.9537C10.0188 16.0087 8.44271 16.2737 8.44271 17.1697C8.44271 18.3827 10.4535 18.0137 12.3829 19.8867C13.6603 21.1267 14.4473 22.7617 14.4473 24.6607C14.4473 28.4057 11.3497 31.3867 7.46512 31.3867C3.57951 31.3857 0.481934 28.4087 0.481934 24.6617C0.481934 22.7627 1.26998 21.1277 2.54733 19.8877C4.47571 18.0157 6.48651 18.3847 6.48651 17.1717C6.48651 16.2747 4.91042 16.0107 3.82364 14.9557C2.84503 14.0057 2.24756 12.7927 2.24756 11.3687C2.24756 8.62572 4.55709 6.40972 7.38271 6.40972C7.92661 6.40972 8.41592 6.48972 8.82282 6.48972C9.55729 6.48972 9.93741 6.17272 9.93741 5.67172C9.93741 5.38172 9.80143 5.01172 9.80143 4.61672C9.80143 3.71972 10.5895 2.98072 11.5403 2.98072C12.4911 2.98072 13.2523 3.74572 13.2523 4.66872C13.2523 5.64472 12.4643 6.09372 11.8668 6.30472C11.3775 6.46272 10.9964 6.67372 10.9964 7.14872C10.9964 8.04272 12.6817 8.91272 12.6817 11.4187V11.4197ZM12.1377 24.6627C12.1377 22.0527 10.1548 19.9417 7.46512 19.9417C4.77445 19.9417 2.79146 22.0517 2.79146 24.6627C2.79146 27.2477 4.77445 29.3847 7.46512 29.3847C10.1537 29.3847 12.1377 27.2447 12.1377 24.6627ZM10.5359 11.3667C10.5359 9.70572 9.1504 8.33372 7.46615 8.33372C5.78087 8.33372 4.39639 9.70572 4.39639 11.3667C4.39639 13.0287 5.78087 14.4007 7.46615 14.4007C9.1504 14.4007 10.5359 13.0287 10.5359 11.3667ZM22.4616 6.67172C23.331 6.67172 23.9831 7.30472 23.9831 8.09572C23.9831 8.88672 23.3578 9.51972 22.4894 9.51972C21.5922 9.51972 21.1029 8.96672 20.2067 8.96672C19.3373 8.96672 18.6574 9.57272 18.6574 10.6017V18.9097C18.6574 19.207 18.5357 19.4922 18.3192 19.7024C18.1026 19.9126 17.8089 20.0307 17.5026 20.0307C17.1964 20.0307 16.9026 19.9126 16.6861 19.7024C16.4695 19.4922 16.3478 19.207 16.3478 18.9097V7.72672C16.3459 7.57947 16.374 7.4333 16.4303 7.29658C16.4867 7.15985 16.5703 7.03526 16.6763 6.92993C16.7823 6.8246 16.9087 6.7406 17.0482 6.68274C17.1877 6.62488 17.3375 6.59429 17.4892 6.59272C18.6574 6.59272 18.44 7.67372 19.6082 7.67372C20.7228 7.67372 21.1297 6.67172 22.4616 6.67172ZM24.9895 13.3187C24.9895 9.33572 27.8152 6.46072 31.7008 6.46072C35.2598 6.46072 38.0855 8.99272 38.0855 12.4487C38.0855 13.2657 37.5426 13.8197 36.7545 13.8197H27.9243C27.5432 13.8197 27.4072 13.9517 27.4072 14.2417C27.4072 14.9017 27.9511 16.1147 28.767 16.9057C29.5808 17.6967 30.6954 18.1717 32.2715 18.1717C33.4396 18.1717 34.4718 17.7497 35.2598 17.1957C35.504 17.0117 35.7759 16.9057 36.0479 16.9057C36.6186 16.9057 37.0801 17.4067 37.0801 17.9347C37.0801 18.2507 36.9719 18.5147 36.6999 18.7517C35.5586 19.6757 33.9557 20.1767 32.2169 20.1767C28.0057 20.1767 24.9895 17.2227 24.9895 13.3187ZM34.6078 9.52072C33.8465 8.78172 32.8689 8.41272 31.7008 8.41272C30.5326 8.41272 29.4448 8.86172 28.6578 9.62572C28.0325 10.2327 27.5978 11.0237 27.5978 11.5517C27.5978 11.8157 27.7606 11.9217 28.1139 11.9217H35.1785C35.504 11.9217 35.6678 11.8157 35.6678 11.5517C35.6678 10.9187 35.1517 10.0477 34.6078 9.52072ZM40.4228 13.3187C40.4228 9.33572 43.2474 6.46072 47.133 6.46072C50.6931 6.46072 53.5187 8.99272 53.5187 12.4487C53.5187 13.2657 52.9748 13.8197 52.1868 13.8197H43.3566C42.9754 13.8197 42.8405 13.9517 42.8405 14.2417C42.8405 14.9017 43.3834 16.1147 44.1992 16.9057C45.014 17.6967 46.1276 18.1717 47.7037 18.1717C48.8718 18.1717 49.9051 17.7497 50.6921 17.1957C50.9372 17.0117 51.2092 16.9057 51.4801 16.9057C52.0508 16.9057 52.5133 17.4067 52.5133 17.9347C52.5133 18.2507 52.4041 18.5147 52.1322 18.7517C50.9918 19.6757 49.389 20.1767 47.6491 20.1767C43.438 20.1767 40.4228 17.2227 40.4228 13.3187ZM50.04 9.52072C49.2798 8.78172 48.3012 8.41272 47.133 8.41272C45.9648 8.41272 44.8781 8.86172 44.09 9.62572C43.4658 10.2327 43.03 11.0237 43.03 11.5517C43.03 11.8157 43.1938 11.9217 43.5471 11.9217H50.6107C50.9372 11.9217 51.1 11.8157 51.1 11.5517C51.1 10.9187 50.5839 10.0477 50.04 9.52072ZM67.1307 20.0447C66.9769 20.0459 66.8244 20.0174 66.6821 19.9609C66.5397 19.9043 66.4104 19.8208 66.3016 19.7153C66.1928 19.6098 66.1067 19.4843 66.0483 19.3462C65.9899 19.208 65.9604 19.06 65.9615 18.9107V11.7367C65.9615 9.86372 64.4401 8.43972 62.4839 8.43972C60.5009 8.43972 58.9794 9.88972 58.9794 11.7367V18.9107C58.9794 19.208 58.8577 19.4932 58.6412 19.7034C58.4246 19.9136 58.1309 20.0317 57.8246 20.0317C57.5184 20.0317 57.2246 19.9136 57.0081 19.7034C56.7915 19.4932 56.6699 19.208 56.6699 18.9107V7.70072C56.6699 7.09372 57.1859 6.59272 57.7834 6.59272C58.9248 6.59272 58.8702 7.59572 59.4687 7.59572C60.0662 7.59572 60.881 6.46072 62.9999 6.46072C65.9615 6.46072 68.2711 8.86072 68.2711 11.7367V18.9107C68.273 19.0579 68.245 19.204 68.1887 19.3406C68.1324 19.4773 68.0489 19.6018 67.943 19.7072C67.8371 19.8125 67.7109 19.8965 67.5715 19.9544C67.4321 20.0123 67.2823 20.043 67.1307 20.0447ZM82.7268 20.0447C82.573 20.0459 82.4204 20.0174 82.2781 19.9609C82.1358 19.9043 82.0064 19.8208 81.8976 19.7153C81.7888 19.6098 81.7027 19.4843 81.6443 19.3462C81.586 19.208 81.5565 19.06 81.5576 18.9107V11.7357C81.5576 9.86372 80.0361 8.43872 78.0799 8.43872C76.0969 8.43872 74.5754 9.88872 74.5754 11.7357V18.9107C74.5754 19.208 74.4537 19.4932 74.2372 19.7034C74.0206 19.9136 73.7269 20.0317 73.4206 20.0317C73.1144 20.0317 72.8207 19.9136 72.6041 19.7034C72.3875 19.4932 72.2659 19.208 72.2659 18.9107V1.13272C72.2659 0.835411 72.3875 0.55028 72.6041 0.340052C72.8207 0.129824 73.1144 0.0117188 73.4206 0.0117188C73.7269 0.0117188 74.0206 0.129824 74.2372 0.340052C74.4537 0.55028 74.5754 0.835411 74.5754 1.13272V6.96272C74.5754 7.27872 74.7104 7.46272 75.0637 7.46272C75.6612 7.46272 76.477 6.46072 78.597 6.46072C81.5576 6.46072 83.8671 8.86072 83.8671 11.7357V18.9107C83.869 19.058 83.841 19.2041 83.7846 19.3409C83.7283 19.4776 83.6447 19.6022 83.5387 19.7075C83.4327 19.8128 83.3063 19.8968 83.1668 19.9547C83.0273 20.0126 82.8774 20.0432 82.7257 20.0447H82.7268ZM87.043 13.3187C87.043 9.49472 90.1951 6.46072 94.1611 6.46072C98.1291 6.46072 101.28 9.49472 101.28 13.3187C101.28 17.1437 98.1281 20.1767 94.1621 20.1767C90.1972 20.1767 87.044 17.1437 87.044 13.3187H87.043ZM98.9738 13.3187C98.9738 10.6547 96.9362 8.46572 94.1642 8.46572C91.4199 8.46572 89.3824 10.6557 89.3824 13.3187C89.3824 15.9827 91.4199 18.1717 94.1642 18.1717C96.9352 18.1717 98.9738 15.9827 98.9738 13.3187ZM105.601 6.59272C106.253 6.59272 106.769 7.09272 106.769 7.72672V14.9007C106.769 16.7737 108.29 18.1977 110.247 18.1977C112.23 18.1977 113.752 16.7477 113.752 14.9007V7.72672C113.752 7.42941 113.874 7.14428 114.09 6.93405C114.307 6.72382 114.6 6.60572 114.907 6.60572C115.213 6.60572 115.507 6.72382 115.723 6.93405C115.94 7.14428 116.061 7.42941 116.061 7.72672V18.9367C116.061 19.5427 115.545 20.0437 114.948 20.0437C113.807 20.0437 113.861 19.0417 113.263 19.0417C112.665 19.0417 111.85 20.1757 109.73 20.1757C106.769 20.1757 104.46 17.7757 104.46 14.9007V7.72672C104.462 7.09372 104.976 6.59272 105.601 6.59272ZM120.163 19.2007C119.647 18.8837 119.294 18.5677 119.294 17.9607C119.294 17.3807 119.755 16.9327 120.326 16.9327C121.006 16.9327 121.305 17.3277 121.875 17.6177C122.581 18.0137 123.397 18.2247 124.402 18.2247C126.249 18.2247 127.173 17.4067 127.173 16.4047C127.173 14.9807 125.815 14.7167 123.968 14.2417C121.685 13.6617 119.485 13.0017 119.485 10.4437C119.485 8.17572 121.277 6.46072 124.456 6.46072C125.706 6.46072 126.875 6.77772 127.799 7.33072C128.124 7.51572 128.451 7.91172 128.451 8.36072C128.451 8.94072 127.961 9.44072 127.336 9.44072C126.928 9.44072 126.603 9.17772 126.195 8.91372C125.788 8.65072 125.189 8.41372 124.375 8.41372C122.554 8.41372 121.766 9.17772 121.766 10.2067C121.766 11.5517 123.098 11.8677 125 12.3167C127.228 12.8437 129.428 13.5297 129.428 16.1407C129.428 18.4097 127.689 20.1767 124.348 20.1767C122.717 20.1767 121.25 19.8597 120.163 19.2007ZM131.603 13.3187C131.603 9.33572 134.428 6.46072 138.314 6.46072C141.873 6.46072 144.699 8.99272 144.699 12.4487C144.699 13.2657 144.156 13.8197 143.368 13.8197H134.538C134.157 13.8197 134.022 13.9517 134.022 14.2417C134.022 14.9017 134.564 16.1147 135.379 16.9057C136.195 17.6967 137.309 18.1717 138.885 18.1717C140.053 18.1717 141.085 17.7497 141.873 17.1957C142.118 17.0117 142.389 16.9057 142.661 16.9057C143.232 16.9057 143.693 17.4067 143.693 17.9347C143.693 18.2507 143.585 18.5147 143.313 18.7517C142.172 19.6757 140.569 20.1767 138.83 20.1767C134.621 20.1767 131.603 17.2227 131.603 13.3187ZM141.224 9.52072C140.463 8.78172 139.485 8.41272 138.317 8.41272C137.148 8.41272 136.061 8.86172 135.273 9.62572C134.649 10.2327 134.214 11.0237 134.214 11.5517C134.214 11.8157 134.377 11.9217 134.73 11.9217H141.795C142.12 11.9217 142.283 11.8157 142.283 11.5517C142.283 10.9187 141.767 10.0477 141.224 9.52072Z" fill="#008561"/>
</g>
<defs>
<clipPath id="clip0_6221_71571">
<rect width="144.217" height="32" fill="white" transform="translate(0.481934)"/>
</clipPath>
</defs>
</svg>
