<svg width="316" height="103" viewBox="0 0 316 103" fill="none" xmlns="http://www.w3.org/2000/svg">
<path d="M103.495 60.3684C100.359 60.3684 97.8152 59.9524 95.8632 59.1204C93.9112 58.2564 92.4392 57.0724 91.4472 55.5684C90.4872 54.0644 89.9272 52.3684 89.7672 50.4804H93.5112C93.6072 52.0164 94.1192 53.2644 95.0472 54.2244C95.9752 55.1524 97.1912 55.8404 98.6952 56.2884C100.231 56.7364 101.911 56.9604 103.735 56.9604C106.423 56.9604 108.551 56.4964 110.119 55.5684C111.687 54.6084 112.471 53.2004 112.471 51.3444C112.471 50.2244 112.071 49.3284 111.271 48.6564C110.503 47.9524 109.463 47.3764 108.151 46.9284C106.871 46.4804 105.463 46.0804 103.927 45.7284C102.391 45.3444 100.839 44.9444 99.2712 44.5284C97.7352 44.1124 96.3112 43.5844 94.9992 42.9444C93.7192 42.3044 92.6792 41.4884 91.8792 40.4964C91.1112 39.4724 90.7272 38.1764 90.7272 36.6084C90.7272 34.0164 91.7192 31.9044 93.7032 30.2724C95.7192 28.6404 98.7112 27.8244 102.679 27.8244C105.495 27.8244 107.815 28.2564 109.639 29.1204C111.463 29.9524 112.823 31.0564 113.719 32.4324C114.647 33.8084 115.159 35.2964 115.255 36.8964H111.559C111.367 35.2964 110.567 33.9524 109.159 32.8644C107.751 31.7444 105.591 31.1844 102.679 31.1844C100.887 31.1844 99.4312 31.3604 98.3112 31.7124C97.1912 32.0644 96.3272 32.5284 95.7192 33.1044C95.1432 33.6484 94.7432 34.2244 94.5192 34.8324C94.3272 35.4404 94.2312 36.0164 94.2312 36.5604C94.2312 37.6164 94.6152 38.4804 95.3832 39.1524C96.1832 39.7924 97.2232 40.3364 98.5032 40.7844C99.8152 41.2004 101.255 41.5844 102.823 41.9364C104.391 42.2884 105.943 42.6884 107.479 43.1364C109.047 43.5524 110.471 44.0964 111.751 44.7684C113.063 45.4084 114.103 46.2404 114.871 47.2644C115.671 48.2884 116.071 49.6004 116.071 51.2004C116.071 54.1444 114.951 56.4164 112.711 58.0164C110.471 59.5844 107.399 60.3684 103.495 60.3684ZM120.882 59.9844V35.9844H124.482V39.7284C125.346 38.5764 126.402 37.6004 127.65 36.8004C128.898 36.0004 130.498 35.6004 132.45 35.6004C134.114 35.6004 135.666 36.0004 137.106 36.8004C138.578 37.5684 139.762 38.7364 140.658 40.3044C141.586 41.8404 142.05 43.7444 142.05 46.0164V59.9844H138.45V46.1124C138.45 43.9364 137.826 42.1924 136.578 40.8804C135.33 39.5364 133.714 38.8644 131.73 38.8644C130.386 38.8644 129.17 39.1684 128.082 39.7764C126.994 40.3844 126.114 41.2484 125.442 42.3684C124.802 43.4564 124.482 44.7204 124.482 46.1604V59.9844H120.882ZM158.198 60.3684C155.862 60.3684 153.814 59.8244 152.054 58.7364C150.326 57.6164 148.982 56.1124 148.022 54.2244C147.062 52.3364 146.582 50.2564 146.582 47.9844C146.582 45.6804 147.062 43.6004 148.022 41.7444C148.982 39.8564 150.326 38.3684 152.054 37.2804C153.814 36.1604 155.862 35.6004 158.198 35.6004C160.182 35.6004 161.878 35.9844 163.286 36.7524C164.726 37.5204 165.894 38.5604 166.79 39.8724V35.9844H170.39V59.9844H166.79V56.1444C165.894 57.4244 164.726 58.4484 163.286 59.2164C161.878 59.9844 160.182 60.3684 158.198 60.3684ZM158.678 57.1044C160.47 57.1044 161.974 56.6884 163.19 55.8564C164.438 55.0244 165.382 53.9204 166.022 52.5444C166.662 51.1364 166.982 49.6164 166.982 47.9844C166.982 46.3204 166.662 44.8004 166.022 43.4244C165.382 42.0484 164.438 40.9444 163.19 40.1124C161.974 39.2804 160.47 38.8644 158.678 38.8644C156.918 38.8644 155.398 39.2804 154.118 40.1124C152.838 40.9444 151.862 42.0484 151.19 43.4244C150.518 44.8004 150.182 46.3204 150.182 47.9844C150.182 49.6164 150.518 51.1364 151.19 52.5444C151.862 53.9204 152.838 55.0244 154.118 55.8564C155.398 56.6884 156.918 57.1044 158.678 57.1044ZM176.617 69.4884V35.9844H180.217V39.8244C181.113 38.5124 182.265 37.4884 183.673 36.7524C185.113 35.9844 186.825 35.6004 188.809 35.6004C191.145 35.6004 193.177 36.1604 194.905 37.2804C196.665 38.3684 198.025 39.8564 198.985 41.7444C199.945 43.6004 200.425 45.6804 200.425 47.9844C200.425 50.2564 199.945 52.3364 198.985 54.2244C198.025 56.1124 196.665 57.6164 194.905 58.7364C193.177 59.8244 191.145 60.3684 188.809 60.3684C186.825 60.3684 185.113 59.9844 183.673 59.2164C182.265 58.4164 181.113 57.3764 180.217 56.0964V69.4884H176.617ZM188.329 57.1044C190.121 57.1044 191.641 56.6884 192.889 55.8564C194.169 55.0244 195.145 53.9204 195.817 52.5444C196.489 51.1364 196.825 49.6164 196.825 47.9844C196.825 46.3204 196.489 44.8004 195.817 43.4244C195.145 42.0484 194.169 40.9444 192.889 40.1124C191.641 39.2804 190.121 38.8644 188.329 38.8644C186.569 38.8644 185.065 39.2804 183.817 40.1124C182.569 40.9444 181.625 42.0484 180.985 43.4244C180.345 44.8004 180.025 46.3204 180.025 47.9844C180.025 49.6164 180.345 51.1364 180.985 52.5444C181.625 53.9204 182.569 55.0244 183.817 55.8564C185.065 56.6884 186.569 57.1044 188.329 57.1044ZM217.356 60.3684C215.372 60.3684 213.66 59.9844 212.22 59.2164C210.812 58.4484 209.66 57.4244 208.764 56.1444V59.9844H205.164V26.3844H208.764V39.8724C209.66 38.5604 210.812 37.5204 212.22 36.7524C213.66 35.9844 215.372 35.6004 217.356 35.6004C219.692 35.6004 221.724 36.1604 223.452 37.2804C225.212 38.3684 226.572 39.8564 227.532 41.7444C228.492 43.6004 228.972 45.6804 228.972 47.9844C228.972 50.2564 228.492 52.3364 227.532 54.2244C226.572 56.1124 225.212 57.6164 223.452 58.7364C221.724 59.8244 219.692 60.3684 217.356 60.3684ZM216.876 57.1044C218.668 57.1044 220.188 56.6884 221.436 55.8564C222.716 55.0244 223.692 53.9204 224.364 52.5444C225.036 51.1364 225.372 49.6164 225.372 47.9844C225.372 46.3204 225.036 44.8004 224.364 43.4244C223.692 42.0484 222.716 40.9444 221.436 40.1124C220.188 39.2804 218.668 38.8644 216.876 38.8644C215.116 38.8644 213.612 39.2804 212.364 40.1124C211.116 40.9444 210.172 42.0484 209.532 43.4244C208.892 44.8004 208.572 46.3204 208.572 47.9844C208.572 49.6164 208.892 51.1364 209.532 52.5444C210.172 53.9204 211.116 55.0244 212.364 55.8564C213.612 56.6884 215.116 57.1044 216.876 57.1044ZM233.711 59.9844V35.9844H237.311V41.8884C237.439 41.4724 237.679 40.9284 238.031 40.2564C238.415 39.5524 238.959 38.8484 239.663 38.1444C240.367 37.4404 241.247 36.8484 242.303 36.3684C243.391 35.8564 244.671 35.6004 246.143 35.6004H246.383V39.2004H245.951C244.159 39.2004 242.607 39.6964 241.295 40.6884C240.015 41.6484 239.023 42.9124 238.319 44.4804C237.647 46.0164 237.311 47.6644 237.311 49.4244V59.9844H233.711ZM250.113 31.9524V27.2484H254.001V31.9524H250.113ZM250.257 59.9844V35.9844H253.857V59.9844H250.257ZM260.101 59.9844V26.3844H263.701V59.9844H260.101ZM269.945 59.9844V26.3844H273.545V59.9844H269.945ZM279.645 31.9524V27.2484H283.533V31.9524H279.645ZM279.789 59.9844V35.9844H283.389V59.9844H279.789ZM299.76 60.3684C297.424 60.3684 295.376 59.8244 293.616 58.7364C291.888 57.6164 290.544 56.1124 289.584 54.2244C288.624 52.3364 288.144 50.2564 288.144 47.9844C288.144 45.6804 288.624 43.6004 289.584 41.7444C290.544 39.8564 291.888 38.3684 293.616 37.2804C295.376 36.1604 297.424 35.6004 299.76 35.6004C301.744 35.6004 303.44 35.9844 304.848 36.7524C306.288 37.5204 307.456 38.5604 308.352 39.8724V35.9844H311.952V59.9844H308.352V56.1444C307.456 57.4244 306.288 58.4484 304.848 59.2164C303.44 59.9844 301.744 60.3684 299.76 60.3684ZM300.24 57.1044C302.032 57.1044 303.536 56.6884 304.752 55.8564C306 55.0244 306.944 53.9204 307.584 52.5444C308.224 51.1364 308.544 49.6164 308.544 47.9844C308.544 46.3204 308.224 44.8004 307.584 43.4244C306.944 42.0484 306 40.9444 304.752 40.1124C303.536 39.2804 302.032 38.8644 300.24 38.8644C298.48 38.8644 296.96 39.2804 295.68 40.1124C294.4 40.9444 293.424 42.0484 292.752 43.4244C292.08 44.8004 291.744 46.3204 291.744 47.9844C291.744 49.6164 292.08 51.1364 292.752 52.5444C293.424 53.9204 294.4 55.0244 295.68 55.8564C296.96 56.6884 298.48 57.1044 300.24 57.1044Z" fill="white"/>
<path d="M30.1432 64.5922C29.2506 63.3345 25.922 63.6667 24.5467 63.8291C20.1287 64.3474 12.5801 66.5966 8.03231 67.7757L1.97686 69.2467C1.40822 69.3132 0.327303 69.3693 0.238016 68.5659C0.11352 67.4726 3.42212 65.8601 4.28148 65.3769C7.80623 63.3975 15.4878 60.587 17.7411 57.6171C14.453 55.9697 14.3296 56.3143 10.883 55.7451C10.2352 55.6376 9.0385 55.4795 9.04852 54.5771C9.05926 53.6098 10.7401 52.9802 11.4625 52.6497L18.9312 49.1408L37.9307 39.8072C42.1784 37.9693 47.4797 36.4826 51.9265 38.2436C54.1683 39.1298 55.7596 41.3044 56.7694 43.4229C57.3648 44.6656 57.6933 45.5855 57.9457 46.9535C59.6424 56.1752 49.2052 62.2006 42.5551 66.0842L38.1208 68.5761L31.2013 72.3608C29.496 73.2793 28.7883 74.0745 27.1082 72.8462C28.2282 71.1873 31.4858 66.4858 30.1432 64.5922ZM5.68322 66.8067L5.54568 66.3747L5.40013 66.6645L5.68322 66.8067ZM10.9716 65.4515C14.9551 64.3375 23.2761 62.124 27.1746 62.1252C32.0793 62.1271 33.0013 65.2251 30.9899 69.351L30.2622 70.8003C32.393 70.2769 36.5364 67.8277 38.6091 66.6435C43.7701 63.6927 51.797 59.2554 55.1291 54.2501C58.1383 49.7325 56.1507 41.7185 51.2336 39.6234C47.8253 38.1733 43.4936 39.3738 40.1343 40.5507C35.2518 42.2622 27.5629 46.3792 22.7146 48.8628L12.3705 54.1945L16.4232 55.3003C19.4569 56.2755 19.7806 58.2709 17.1966 60.2474C14.1003 62.6161 8.15104 64.5179 5.82877 66.5168C7.5521 66.5437 9.30263 65.9164 10.9716 65.4515ZM41.5597 56.7719C34.514 52.951 37.6573 41.9965 45.4678 41.9294C46.887 41.9197 48.2736 42.4054 49.4943 43.0874C54.4607 45.8678 54.4104 52.9637 49.922 56.354C47.9957 57.8113 45.8591 58.085 43.5413 57.7669C42.7337 57.4339 42.307 57.2742 41.5597 56.7719ZM48.1009 30.3957C50.7834 24.1569 57.193 27.7128 60.6491 30.7548C65.8856 35.3623 70.4992 43.7584 71.328 50.7694C71.8199 54.9218 71.2133 61.9961 65.3985 61.5336C62.1421 61.2704 59.7439 59.079 57.3143 57.1621C58.7961 54.7122 59.5335 53.9283 59.932 50.8545C60.5854 45.8472 57.7956 39.1908 53.3994 36.722C51.702 35.7681 49.2345 35.5926 47.3076 35.4417C47.2546 33.6765 47.3908 32.0499 48.1009 30.3957Z" fill="white"/>
</svg>
